<svg xmlns="http://www.w3.org/2000/svg" xmlns:xlink="http://www.w3.org/1999/xlink" width="32" height="32" viewBox="-5 -10 32 32"><g style="fill:#fafafa;fill-opacity:1;stroke:#000;stroke-opacity:1" transform="matrix(1.1961 0 0 1.14175 -1.567 -.68)"><path id="a" fill-rule="evenodd" d="M19.243-3.843a9.614 9.614 0 0 0-3.591-2.672 12.439 12.439 0 0 0-5.016-1.004A12.44 12.44 0 0 0 5.62-6.515a9.614 9.614 0 0 0-3.59 2.672C.033-1.428-.504 1.787.552 4.978c1.806 5.45 7.53 11.755 9.907 14.213a.248.248 0 0 0 .176.072.248.248 0 0 0 .175-.072c2.378-2.458 8.102-8.763 9.907-14.213 1.058-3.191.52-6.407-1.475-8.82zm1.03 8.702c-.192.58-.43 1.169-.703 1.763-1.096 2.378-2.773 4.827-4.451 6.966a70.113 70.113 0 0 1-4.483 5.146C8.183 16.179 2.979 10.284.999 4.981-.016 1.917.495-1.286 2.402-3.593c1.864-2.255 4.788-3.5 8.234-3.506 3.446.006 6.37 1.252 8.235 3.506 1.284 1.951 1.336 2.239 1.564 3.075.243.892.39 1.704.311 3.046-.034.576-.281 1.756-.471 2.33z" style="display:inline;fill:snow;fill-opacity:.98198199;stroke:#000;stroke-width:.290017;stroke-opacity:1"/><use xlink:href="#a" style="fill:#fafafa;fill-opacity:1;stroke:#000;stroke-opacity:1" transform="matrix(.6768 0 0 .65043 3.56 .435)"/><path d="M8.03-3.699 7.964 4.33l-.04 5.048S3.631 4.394 3.94 1.55c.067-.614.152-1.827 1.083-3.121C6.143-3.128 8.03-3.7 8.03-3.7z" style="fill:#fff8f8;fill-opacity:.98198199;stroke:#000;stroke-width:.2;stroke-miterlimit:1;stroke-dashoffset:.06;stroke-opacity:1;paint-order:stroke fill markers"/><path d="m13.44-3.7.066 8.026.041 5.047s4.291-5.07 3.983-7.907c-.067-.613-.152-1.824-1.083-3.1C15.327-3.168 13.44-3.7 13.44-3.7z" style="fill:snow;fill-opacity:.98198199;stroke:#010101;stroke-width:.2;stroke-miterlimit:1;stroke-dashoffset:.06;stroke-opacity:1;paint-order:stroke fill markers"/></g></svg>