<svg xmlns="http://www.w3.org/2000/svg" xml:space="preserve" width="32" height="32" viewBox="0 0 29.643 29.643"><g style="display:inline;fill:#121212;fill-opacity:1;stroke:#fff;stroke-opacity:1"><g style="display:inline;fill:#060316;fill-opacity:1;stroke:#f5f6fe;stroke-width:.2;stroke-miterlimit:1;stroke-dasharray:none;stroke-dashoffset:.06;stroke-opacity:1;paint-order:stroke fill markers" transform="translate(5.326 -11.43) scale(.92633)"><path d="m19.611 43.496-.157-.035-2.55-1.736-6.832-2.543-2.511-1.959-.059-.11-.067-1.283-2.363-2.821-.37-.176-.071-.062-.216-.335-.028-.125-1.872-2.326-.551-1.346-1.795-1.553-1.32-1.631-1.959-.663-.114-.105-.126-.34.028-.14.39-.505-.271-.332-.11-.093-.082-.503-.385-.277-.067-.12.01-.531.19-.433 1.773-1.553.311.02.13.175.154.46-.01.113-.234.402-.077.067-.07.13.023.065.034.12.046-.013.003.021.077-.03.393-.05.13.015 1.887.82.566-.808V21.2l.01-.054.624-1.476.181-.185.236-.133-.094.06 4.192-2.345 1.238-1.908.051-.144-.67-1.037.13-.235.935-.175h.24l.105.027.976.507.077.013.207.167.3.165.059.07.203.473 1.074.5.97.838.323.125.114.14.139.448.662.224 1.018-.113.452-.218.105-.023h2.41l.096.02 1.283.566.077.225-1.086 1.459-.024.082.671.086.12.054.509.493.043.128-.043.218-.246.132-.572-.105-1.268.2-2.17.578-1.474.858-.773 2.383-.049.067-.846.746.031.254-.043.194-.172.185.286.433.025.162-.007.197 1.493 1.455.038.148-.207.586 1.542.183.154.097.317.6.572-.027 1.61-.555.667-.487.332.125-.068 2.313 2.047.008.169.075 1.819 2.353.034.085v.098l-.038.097-.465.508-.083 1.416.08.537.01.33-.421.633-.12.628.277.242.019.203-.388.46-.265.047-.594-.277-.182.093.234.335-.043.203-.08-.051 1.564.589.12.148v.705l-.044.105-.95.949.168.253-.01.167-1.291 1.498-.13.067-.394.05v-.019zm-9.292-4.569 6.814 2.536 2.502 1.701.222-.027 1.172-1.361-.173-.263.02-.18.984-.987v-.538l-1.298-.428-.212-.107-.159-.163.073-.253-.25-.355.068-.218.442-.23h.207l.538.245.197-.23-.234-.203-.053-.137.139-.75.037-.075.395-.632-.096-.604-.015-.07.082-1.503.038-.09.465-.5-1.73-2.235-2.142-.013-.202-.164.062-2.104-.404.28-1.738.59-.745.036-.197-.098-.326-.62-1.656-.2-.164-.202.24-.683-1.493-1.456-.033-.152.032-.243-.347-.52.068-.257.163-.132-.038-.276.049-.14.877-.773.782-2.404.077-.09 1.613-.928 2.223-.59 1.336-.21h.082l.366.067-.37-.355-.812-.106-.163-.202.105-.32.988-1.33-1.055-.466h-2.31l-.513.235-1.1.12h-.082l-.818-.27-.134-.136-.177-.478-.308-.128-.975-.843-1.065-.487-.092-.086-.207-.492-.223-.143-.251-.13-.955-.495h-.154l-.615.12.595 1.03-.02.214-.144.16-1.194 1.841-.062.058-4.164 2.33-.126.087-.186.212-.542 1.284v.183l-.024.082-.692.983-.268.062-2.004-.865-.292.047-.297.073-.19-.15-.125-.211-.025-.092.047-.303.108-.174.178-.304-.096-.288-1.545 1.358-.126.315v.386l.37.27.062.102.082.515.317.334.065.223-.403.578.068.188 1.93.652.092.063 1.335 1.65 1.85 1.616.557 1.36 1.887 2.357.034.133.153.222.428.223 2.425 2.887.034.085.067 1.264 2.435 1.896z" style="display:inline;fill:#060316;fill-opacity:1;stroke:#f5f6fe;stroke-width:.2;stroke-miterlimit:1;stroke-dasharray:none;stroke-dashoffset:.148999;stroke-opacity:1;paint-order:stroke fill markers"/><path d="M7.875 25.375c-1.695 0-3.063 1.326-3.063 2.969 0 1.642 1.368 2.968 3.063 2.968.594 0 1.148-.163 1.617-.445a2.945 2.945 0 0 0 1.446-2.523c0-1.643-1.368-2.969-3.063-2.969zm0 5.542c-1.47 0-2.654-1.148-2.654-2.573s1.184-2.573 2.654-2.573 2.654 1.148 2.654 2.573-1.184 2.573-2.654 2.573z" style="display:inline;opacity:.98;fill:#060316;fill-opacity:1;stroke:#f5f6fe;stroke-width:.2;stroke-miterlimit:1;stroke-dasharray:none;stroke-dashoffset:.06;stroke-opacity:1;paint-order:stroke fill markers"/><path d="M7.058 28.146a.403.403 0 0 1-.408-.396c0-.218.184-.396.408-.396.164 0 .307.08.368.218.04.099.163.138.265.099.102-.04.143-.158.102-.257-.122-.278-.428-.456-.735-.456a.807.807 0 0 0-.816.792c0 .435.367.792.816.792.225 0 .409.178.409.396a.403.403 0 0 1-.409.395.423.423 0 0 1-.367-.217c-.041-.1-.163-.139-.266-.1-.102.04-.143.159-.102.258.123.277.43.455.735.455.45 0 .817-.356.817-.791a.807.807 0 0 0-.817-.792zM9.161 26.978c-.102-.04-.224.02-.265.119l-.817 2.375c-.04.099.02.218.123.257h.06c.083 0 .164-.06.205-.138l.817-2.375c.04-.1-.02-.218-.123-.238z" style="display:inline;fill:#060316;fill-opacity:1;stroke:#f5f6fe;stroke-width:.2;stroke-miterlimit:1;stroke-dasharray:none;stroke-dashoffset:.06;stroke-opacity:1;paint-order:stroke fill markers"/><ellipse cx="9.1" cy="29.531" rx=".204" ry=".198" style="display:inline;fill:#060316;fill-opacity:1;stroke:#f5f6fe;stroke-width:.2;stroke-miterlimit:1;stroke-dasharray:none;stroke-dashoffset:.06;stroke-opacity:1;paint-order:stroke fill markers"/></g></g></svg>