<svg xmlns="http://www.w3.org/2000/svg" xml:space="preserve" width="32" height="32" viewBox="0 0 29.643 29.643"><g style="display:inline;stroke-width:.185266;stroke-dasharray:none"><g style="display:inline;stroke-width:.496663;stroke-dasharray:none"><g style="fill:#f5f3ff;fill-opacity:1;stroke:#010521;stroke-width:.3;stroke-dasharray:none;stroke-opacity:1;paint-order:stroke fill markers"><g style="fill:#f5f3ff;fill-opacity:1;stroke:#010521;stroke-width:.3;stroke-dasharray:none;stroke-opacity:1" transform="translate(-13.78 -9.866) scale(.92633)"><path d="m68.345 88.5-.38-.09-6.133-4.449-16.44-6.52-6.044-5.019-.14-.281-.162-3.29-5.687-7.23-.889-.449-.172-.16-.519-.86-.067-.32-4.504-5.96-1.327-3.45-4.32-3.98-3.177-4.18-4.711-1.7-.276-.269-.302-.87.068-.36.94-1.293-.655-.85-.263-.24-.198-1.29-.926-.71-.162-.309.022-1.36.46-1.109 4.266-3.98.749.05.311.45.37 1.18-.022.289-.564 1.03-.185.173-.17.333.057.167.081.308.11-.035.007.055.185-.078.948-.13.312.04 4.54 2.102 1.363-2.07v-.43l.023-.141 1.502-3.781.436-.475.568-.34-.227.155 10.087-6.012 2.978-4.89.124-.37-1.613-2.658.312-.602 2.252-.449h.577l.253.07 2.347 1.301.185.032.5.43.723.421.14.18.487 1.21 2.586 1.282 2.334 2.148.776.32.275.36.334 1.148 1.593.575 2.451-.29 1.088-.558.253-.059h5.799l.23.051 3.087 1.45.185.577-2.613 3.739-.059.21 1.616.22.289.14 1.223 1.262.104.328-.104.559-.591.34-1.377-.27-3.05.512-5.222 1.48-3.548 2.2-1.86 6.109-.116.172-2.036 1.91.075.652-.103.497-.415.474.69 1.11.058.413-.016.506 3.592 3.73.09.38-.496 1.5 3.71.468.37.25.763 1.54 1.376-.071 3.873-1.422 1.607-1.25.798.32-.162 5.93 4.924.02.406.191 4.378 6.031.081.219v.25l-.09.25-1.12 1.3-.198 3.63.192 1.377.021.846-1.012 1.62-.289 1.61.668.621.045.52-.934 1.18-.636.12-1.431-.71-.438.238.564.859-.103.52-.192-.131 3.761 1.51.29.378v1.809l-.104.27-2.289 2.43.406.648-.022.43-3.11 3.84-.311.171-.948.129v-.05zM45.986 76.79l16.396 6.5 6.02 4.359.533-.07 2.821-3.489-.415-.672.045-.46 2.37-2.532v-1.379l-3.124-1.097-.51-.274-.382-.419.175-.647-.6-.91.162-.56 1.065-.59h.496l1.296.63.474-.59-.565-.52-.126-.351.334-1.922.09-.191.949-1.62-.231-1.548-.036-.18.198-3.852.09-.23 1.12-1.281-4.161-5.73-5.154-.032-.488-.422.149-5.39-.97.718-4.184 1.512-1.792.09-.474-.25-.785-1.59-3.985-.512-.393-.52.578-1.75-3.593-3.73-.08-.39.078-.622-.836-1.332.164-.659.392-.34-.092-.708.117-.359 2.112-1.98 1.882-6.16.185-.231 3.882-2.379 5.348-1.512 3.213-.539h.199l.88.172-.89-.91-1.953-.27-.393-.52.253-.82 2.378-3.41-2.54-1.191H58.12l-1.236.602-2.645.308h-.199l-1.969-.691-.32-.35-.428-1.224-.74-.329-2.347-2.16-2.563-1.25-.221-.219-.497-1.261-.538-.366-.604-.333-2.297-1.27h-.37l-1.48.309 1.43 2.638-.045.55-.347.41-2.875 4.718-.149.149-10.02 5.968-.302.226-.447.544-1.304 3.289v.469l-.059.21-1.665 2.52-.645.16-4.82-2.218-.704.12-.714.187-.456-.385-.303-.54-.06-.236.112-.776.26-.445.43-.78-.23-.74-3.72 3.481-.302.809v.988l.889.692.149.261.199 1.32.762.859.156.57-.968 1.482.162.48 4.644 1.672.222.16 3.213 4.23 4.45 4.141 1.34 3.489 4.54 6.039.082.34.37.57 1.03.57 5.835 7.399.08.218.163 3.239L45.91 76.8z" style="display:inline;fill:#f5f3ff;fill-opacity:1;stroke:#010521;stroke-width:.744995;stroke-dasharray:none;stroke-opacity:1;paint-order:stroke fill markers" transform="matrix(.41559 0 0 .39019 11.708 7.215)"/><path d="M28.375 23.625c-1.695 0-3.063 1.326-3.063 2.969 0 1.642 1.368 2.968 3.063 2.968.594 0 1.148-.163 1.617-.445a2.945 2.945 0 0 0 1.446-2.523c0-1.643-1.368-2.969-3.063-2.969zm0 5.542c-1.47 0-2.654-1.148-2.654-2.573s1.184-2.573 2.654-2.573 2.654 1.148 2.654 2.573-1.184 2.573-2.654 2.573z" style="opacity:.98;fill:#f5f3ff;fill-opacity:1;stroke:#010521;stroke-width:.3;stroke-dasharray:none;stroke-opacity:1;paint-order:stroke fill markers"/><path d="M27.558 26.396A.403.403 0 0 1 27.15 26c0-.218.184-.396.408-.396.164 0 .307.08.368.218.04.099.163.138.265.099.102-.04.143-.158.102-.257-.122-.278-.428-.456-.735-.456a.807.807 0 0 0-.816.792c0 .435.367.792.816.792.225 0 .409.178.409.396a.403.403 0 0 1-.409.395.423.423 0 0 1-.367-.217c-.041-.1-.164-.139-.266-.1-.102.04-.143.159-.102.258.123.277.43.455.735.455.45 0 .817-.356.817-.791a.807.807 0 0 0-.817-.792zM29.661 25.228c-.102-.04-.224.02-.265.119l-.817 2.375c-.04.099.02.218.123.257h.06c.083 0 .164-.06.205-.138l.817-2.375c.04-.1-.02-.218-.123-.238z" style="fill:#f5f3ff;fill-opacity:1;stroke:#010521;stroke-width:.3;stroke-dasharray:none;stroke-opacity:1;paint-order:stroke fill markers"/><ellipse cx="29.6" cy="27.781" rx=".204" ry=".198" style="fill:#f5f3ff;fill-opacity:1;stroke:#010521;stroke-width:.3;stroke-dasharray:none;stroke-opacity:1;paint-order:stroke fill markers"/></g></g></g></g></svg>