<?xml version="1.0" encoding="UTF-8" standalone="no"?>
<svg
   version="1.1"
   viewBox="-5 -10 31.526081 31.529184"
   id="svg2"
   width="31.526081"
   height="31.529184"
   xml:space="preserve"
   xmlns="http://www.w3.org/2000/svg"
   xmlns:svg="http://www.w3.org/2000/svg"><defs
     id="defs2" /><g
     id="g504"
     transform="translate(-0.38339174,-0.27920461)"><path
       style="fill:#020000;fill-opacity:1;stroke-width:3.40742"
       d="M 0.07084682,21.268365 C -1.8065835,20.604524 -3.6946619,18.595421 -4.2204011,16.702058 -4.7410903,14.826887 -4.7518134,-2.6834632 -4.2333495,-4.5500271 c 0.5190742,-1.8690209 2.0599854,-3.6299042 3.91299816,-4.4716122 1.34940844,-0.6129516 2.62899194,-0.6906474 11.49521734,-0.69798 9.88199,-0.00817 9.994442,6.133e-4 11.835233,0.9246409 1.077527,0.5408884 2.253148,1.5156385 2.797753,2.3197252 0.933821,1.3787392 0.93999,1.4440217 1.056627,11.1841363 0.139423,11.6435889 0.03942,12.5722839 -1.548457,14.3807929 -2.271966,2.587628 -2.991467,2.727599 -13.973455,2.718334 C 3.8981761,21.801768 1.2162059,21.673317 0.07091494,21.268365 Z"
       id="path465" /><g
       id="g473"
       transform="matrix(1.6436277,0,0,1.0690975,2.4971591,-0.83010885)"
       style="fill:#9b897c;fill-opacity:1"><g
         id="g466"
         transform="matrix(0.8293026,0,0,1,2.7192971,-13.663379)"
         style="fill:#9b897c;fill-opacity:1"><path
           style="fill:#9b897c;fill-opacity:1;stroke-width:0.282496"
           d="m -5.1667686,29.926985 c -4.75e-4,-0.03927 -0.256264,-0.05057 -1.145422,-0.05057 -0.72054,0 -1.153875,-0.01503 -1.169262,-0.04046 -0.01345,-0.02225 -0.05891,-0.04046 -0.101031,-0.04046 -0.07464,0 -0.07649,-0.04536 -0.07298,-1.786493 0.002,-0.982572 0.0127,-1.810725 0.02382,-1.840341 0.01643,-0.04376 0.36408,-0.05385 1.856143,-0.05385 h 1.8359343 l -0.02133,0.0203 v 1.87069 1.870693 l -0.427571,-1.5e-5 c -0.253206,-0.05421 -0.588364,-0.0019 -0.7783303,0.05055 z m -1.483989,-0.687668 v -0.212418 l 0.158227,-0.0047 c 0.08703,-0.0026 0.181492,-0.0015 0.209925,0.0024 0.02843,0.004 0.04858,-0.01672 0.04476,-0.04577 -0.0038,-0.02907 -0.0048,-0.144347 -0.0023,-0.256165 l 0.0047,-0.203303 0.153186,0.01503 0.153184,0.01485 0.02638,-0.179861 c 0.02425,-0.165316 0.03442,-0.178281 0.125887,-0.160412 0.07205,0.01409 0.0977,0.04314 0.09296,0.10532 -0.01525,0.199909 -2.53e-4,0.237521 0.08557,0.214575 0.135915,-0.03634 0.279353,0.04006 0.271093,0.144403 -0.004,0.05 -0.0052,0.150059 -0.0028,0.222363 0.0043,0.129992 0.0065,0.131456 0.200096,0.131456 h 0.1957173 l 0.01197,0.212347 0.01197,0.212348 0.286787,0.01183 0.286788,0.01183 v -0.264677 -0.264679 l -0.207674,5.6e-5 -0.207673,5.5e-5 0.01355,-0.222514 0.01355,-0.222515 h -0.181687 -0.1816663 v -0.179897 -0.179898 l -0.207674,-0.01222 c -0.20252,-0.01184 -0.207982,-0.01541 -0.220069,-0.14367 -0.01026,-0.10904 0.0012,-0.131455 0.06736,-0.131455 0.04387,0 0.124975,0.02107 0.180237,0.04681 0.09213,0.04293 0.118222,0.03033 0.3140493,-0.151675 0.213327,-0.198258 0.213575,-0.198774 0.217838,-0.451279 l 0.0043,-0.25279 h 0.197783 0.197784 V 26.782185 26.51928 h -0.296677 -0.296677 v 0.222457 c 0,0.219089 -0.0018,0.222537 -0.118672,0.227516 -0.06527,0.0028 -0.1364703,0.0096 -0.1582273,0.01522 -0.02176,0.0056 -0.06228,0.0124 -0.09005,0.01522 -0.0343,0.0034 -0.04577,0.05567 -0.03577,0.162968 0.01853,0.198756 -0.08836,0.328497 -0.245372,0.297806 -0.09807,-0.01917 -0.103498,-0.01147 -0.103498,0.146264 0,0.116763 -0.01676,0.1665 -0.0561,0.1665 -0.03085,0 -0.08426,0.01109 -0.118672,0.02456 -0.0514,0.02016 -0.06257,-0.0083 -0.06257,-0.159455 v -0.184012 l -0.165489,-0.0124 c -0.165301,-0.0124 -0.165497,-0.01259 -0.17165,-0.184332 -0.01018,-0.284048 -0.0077,-0.279982 -0.167211,-0.272983 -0.22592,0.01 -0.235526,-9.58e-4 -0.215784,-0.244388 l 0.0179,-0.220787 h -0.323824 -0.32382 l 0.01235,0.252795 -0.0083,0.222519 c -0.0072,0.193936 0.467023,0.0807 0.435432,0.131382 -0.0208,0.03337 -0.03808,0.128919 -0.03841,0.212347 l -6.15e-4,0.151675 h 0.175731 0.175731 l 0.01216,0.171893 0.01216,0.171893 0.207674,0.01222 0.207674,0.01222 v 0.139461 0.139443 h -0.221547 -0.221546 l 0.01414,0.182002 0.01414,0.182021 -0.138734,6.29e-4 c -0.2116,9.58e-4 -0.246994,0.0413 -0.22505,0.25663 l 0.01913,0.187658 h -0.189244 c -0.162814,0 -0.192575,0.01278 -0.213096,0.091 -0.0328,0.125161 -0.03097,0.374703 0.003,0.409444 0.01536,0.01578 0.153323,0.0233 0.306566,0.01691 l 0.278627,-0.01165 z m -0.929587,0.637113 c -0.05071,-0.0335 -0.04927,-0.03929 0.0099,-0.03983 0.03807,-3.44e-4 0.06922,0.01766 0.06922,0.03983 0,0.04932 -0.0045,0.04932 -0.07911,0 z"
           id="path466" /></g><g
         id="g468"
         transform="matrix(0.8293026,0,0,1,2.7192971,-21.663379)"
         style="fill:#9b897c;fill-opacity:1"><path
           style="fill:#9b897c;fill-opacity:1;stroke-width:0.331512"
           d="m -6.3082009,33.229434 v -0.38228 H -6.765299 -7.2223975 l 0.00706,-0.24211 c 0.015664,-0.53814 0.021524,-0.522448 -0.1951622,-0.522448 H -7.6050335 V 31.85324 31.623861 l 0.2053328,8.8e-5 0.2053329,8.8e-5 v -0.369625 -0.369627 l 0.4430862,-0.01446 0.4430866,-0.01446 V 30.47534 30.094846 h 0.4755075 0.4755078 v 0.382278 0.38228 h 0.4538925 0.453894 v 0.38228 0.38228 h 0.194518 0.194525 v 0.229379 0.229356 h -0.194521 -0.194526 v 0.382279 0.382279 h -0.4538931 -0.4538933 v 0.382281 0.382277 h -0.4755081 -0.4755074 z m 0.6828158,-0.751817 0.012792,-0.344052 h 0.2527673 c 0.2824765,0 0.3052454,-0.02692 0.3052454,-0.360961 v -0.19971 h -0.2809819 -0.2809819 v -0.325638 -0.325634 l -0.1454955,-0.03218 c -0.080022,-0.01774 -0.1804761,-0.01632 -0.2232311,0.0031 -0.023912,0.01682 -0.018917,0.09375 -0.042868,0.212379 -0.00774,0.04721 -0.015544,0.169706 -0.017371,0.272246 l -0.00331,0.186426 -0.2410264,0.01753 c -0.1325643,0.0097 -0.270448,-0.002 -0.3064079,-0.02581 -0.054586,-0.03613 -0.057615,-0.02616 -0.018336,0.06035 0.025872,0.05699 0.047041,0.184981 0.047041,0.284416 0,0.151333 0.017974,0.186095 0.1104176,0.213444 0.060729,0.018 0.1774438,0.01989 0.2593676,0.0043 l 0.1489513,-0.02851 v 0.349342 c 0,0.383528 0.016909,0.409163 0.2593674,0.393252 l 0.1512968,-0.0099 z m -1.0293011,-0.739074 c -0.00152,-0.08795 -0.079786,-0.176055 -0.1262885,-0.14217 -0.038009,0.0277 -0.037896,0.05398 4.58e-4,0.108475 0.054229,0.07705 0.1269151,0.09652 0.1258305,0.0337 z m -0.042565,-0.242109 c 0,-0.01397 -0.00972,-0.02548 -0.021615,-0.02548 -0.011888,0 -0.021615,0.01136 -0.021615,0.02548 0,0.01397 0.00972,0.02548 0.021615,0.02548 0.011888,0 0.021615,-0.01135 0.021615,-0.02548 z"
           id="path467" /><path
           style="fill:#9b897c;fill-opacity:1;stroke-width:0.288098"
           d="m -7.5538221,25.171134 c 0,-0.280264 0.01681,-0.442066 0.04942,-0.475398 0.03899,-0.03988 0.03828,-0.06878 -0.0034,-0.137015 -0.0399,-0.06533 -0.05232,-0.32997 -0.05076,-1.081762 0.0011,-0.547404 0.0027,-1.009199 0.0034,-1.026216 7.16e-4,-0.01705 0.382567,-0.03093 0.848511,-0.03093 h 0.8471692 v 1.361225 1.361227 h 0.136257 c 0.148759,0 0.272044,-0.09718 0.172724,-0.136153 -0.04071,-0.01591 -0.05807,-0.113712 -0.06311,-0.355435 l -0.0069,-0.333404 h 0.122595 c 0.12022,0 0.122596,-0.004 0.122596,-0.206247 0,-0.201662 0.0027,-0.206246 0.121025,-0.206246 h 0.121026 v -0.247493 -0.247496 h 0.141194 0.1411961 v -0.203507 c 0,-0.191342 0.0067,-0.204286 0.110939,-0.216558 0.108477,-0.01284 0.111202,-0.01974 0.122842,-0.314669 0.01188,-0.300964 0.01215,-0.301589 0.121026,-0.288744 l 0.109122,0.01283 0.01057,1.577782 0.01057,1.577784 H -5.2336419 -6.1014624 V 24.19349 22.832264 h -0.1210247 -0.121026 v 0.412494 0.412491 h -0.121026 c -0.116542,0 -0.121026,0.0069 -0.121026,0.185612 0,0.178751 -0.0045,0.185631 -0.121025,0.185631 h -0.121026 v 0.26812 0.268121 l -0.131111,-2.6e-5 -0.131108,-2.6e-5 0.01379,0.203377 0.01379,0.203375 -0.134813,0.01321 -0.134813,0.01321 -0.01184,0.299056 c -0.01135,0.286783 -0.01593,0.299057 -0.11094,0.299057 -0.09881,0 -0.09909,-0.0012 -0.09909,-0.424867 z m 2.9237783,-0.777967 0.01528,-0.728468 -0.128175,0.0067 c -0.126053,0.0065 -0.128176,0.01 -0.128176,0.212853 0,0.194332 -0.0064,0.206999 -0.1109391,0.219298 -0.06349,0.0075 -0.110939,0.03834 -0.110939,0.07219 0,0.109286 -0.0046,0.120727 -0.08349,0.206567 -0.113217,0.123217 -0.03637,0.104533 -0.0781,0.134485 -0.0453,0.03252 -0.163086,0.0069 -0.163086,0.03197 -0.01349,0.117928 -0.01437,0.262014 -0.01567,0.307541 0.112423,0.01514 0.195769,-0.03641 0.05795,0.186532 v 0.102618 l 0.365033,-0.01189 0.3650321,-0.01188 z m -2.4565953,-0.302763 c 0.0032,-0.200574 0.0068,-0.206601 0.131109,-0.219172 0.124175,-0.01246 0.127854,-0.01859 0.127854,-0.212045 0,-0.196725 0.0017,-0.199323 0.140707,-0.215916 0.06297,0.01457 0.129022,0.005 0.193535,0.0077 -0.06444,-0.07598 -0.09085,-0.168614 -0.09997,-0.35062 l -0.01239,-0.247351 -0.352987,-0.01188 -0.352988,-0.01189 v 0.746833 0.746832 l 0.110939,-0.01302 c 0.104015,-0.01226 0.111143,-0.02593 0.114194,-0.219299 z"
           id="path468" /></g><g
         id="g470"
         transform="matrix(0.8293026,0,0,1,2.6674658,-29.725879)"
         style="fill:#9b897c;fill-opacity:1"><path
           style="fill:#9b897c;fill-opacity:1;stroke-width:0.282496"
           d="m -5.1667686,29.926985 c -4.75e-4,-0.03927 -0.256264,-0.05057 -1.145422,-0.05057 -0.72054,0 -1.153875,-0.01503 -1.169262,-0.04046 -0.01345,-0.02225 -0.05891,-0.04046 -0.101031,-0.04046 -0.07464,0 -0.07649,-0.04536 -0.07298,-1.786493 0.002,-0.982572 0.0127,-1.810725 0.02382,-1.840341 0.01643,-0.04376 0.36408,-0.05385 1.856143,-0.05385 h 1.8359343 l -0.02133,0.0203 v 1.87069 1.870693 l -0.427571,-1.5e-5 c -0.253206,-0.05421 -0.588364,-0.0019 -0.7783303,0.05055 z m -1.483989,-0.687668 v -0.212418 l 0.158227,-0.0047 c 0.08703,-0.0026 0.181492,-0.0015 0.209925,0.0024 0.02843,0.004 0.04858,-0.01672 0.04476,-0.04577 -0.0038,-0.02907 -0.0048,-0.144347 -0.0023,-0.256165 l 0.0047,-0.203303 0.153186,0.01503 0.153184,0.01485 0.02638,-0.179861 c 0.02425,-0.165316 0.03442,-0.178281 0.125887,-0.160412 0.07205,0.01409 0.0977,0.04314 0.09296,0.10532 -0.01525,0.199909 -2.53e-4,0.237521 0.08557,0.214575 0.135915,-0.03634 0.279353,0.04006 0.271093,0.144403 -0.004,0.05 -0.0052,0.150059 -0.0028,0.222363 0.0043,0.129992 0.0065,0.131456 0.200096,0.131456 h 0.1957173 l 0.01197,0.212347 0.01197,0.212348 0.286787,0.01183 0.286788,0.01183 v -0.264677 -0.264679 l -0.207674,5.6e-5 -0.207673,5.5e-5 0.01355,-0.222514 0.01355,-0.222515 h -0.181687 -0.1816663 v -0.179897 -0.179898 l -0.207674,-0.01222 c -0.20252,-0.01184 -0.207982,-0.01541 -0.220069,-0.14367 -0.01026,-0.10904 0.0012,-0.131455 0.06736,-0.131455 0.04387,0 0.124975,0.02107 0.180237,0.04681 0.09213,0.04293 0.118222,0.03033 0.3140493,-0.151675 0.213327,-0.198258 0.213575,-0.198774 0.217838,-0.451279 l 0.0043,-0.25279 h 0.197783 0.197784 V 26.782185 26.51928 h -0.296677 -0.296677 v 0.222457 c 0,0.219089 -0.0018,0.222537 -0.118672,0.227516 -0.06527,0.0028 -0.1364703,0.0096 -0.1582273,0.01522 -0.02176,0.0056 -0.06228,0.0124 -0.09005,0.01522 -0.0343,0.0034 -0.04577,0.05567 -0.03577,0.162968 0.01853,0.198756 -0.08836,0.328497 -0.245372,0.297806 -0.09807,-0.01917 -0.103498,-0.01147 -0.103498,0.146264 0,0.116763 -0.01676,0.1665 -0.0561,0.1665 -0.03085,0 -0.08426,0.01109 -0.118672,0.02456 -0.0514,0.02016 -0.06257,-0.0083 -0.06257,-0.159455 v -0.184012 l -0.165489,-0.0124 c -0.165301,-0.0124 -0.165497,-0.01259 -0.17165,-0.184332 -0.01018,-0.284048 -0.0077,-0.279982 -0.167211,-0.272983 -0.22592,0.01 -0.235526,-9.58e-4 -0.215784,-0.244388 l 0.0179,-0.220787 h -0.323824 -0.32382 l 0.01235,0.252795 -0.0083,0.222519 c -0.0072,0.193936 0.467023,0.0807 0.435432,0.131382 -0.0208,0.03337 -0.03808,0.128919 -0.03841,0.212347 l -6.15e-4,0.151675 h 0.175731 0.175731 l 0.01216,0.171893 0.01216,0.171893 0.207674,0.01222 0.207674,0.01222 v 0.139461 0.139443 h -0.221547 -0.221546 l 0.01414,0.182002 0.01414,0.182021 -0.138734,6.29e-4 c -0.2116,9.58e-4 -0.246994,0.0413 -0.22505,0.25663 l 0.01913,0.187658 h -0.189244 c -0.162814,0 -0.192575,0.01278 -0.213096,0.091 -0.0328,0.125161 -0.03097,0.374703 0.003,0.409444 0.01536,0.01578 0.153323,0.0233 0.306566,0.01691 l 0.278627,-0.01165 z m -0.929587,0.637113 c -0.05071,-0.0335 -0.04927,-0.03929 0.0099,-0.03983 0.03807,-3.44e-4 0.06922,0.01766 0.06922,0.03983 0,0.04932 -0.0045,0.04932 -0.07911,0 z"
           id="path469" /><path
           style="fill:#9b897c;fill-opacity:1;stroke-width:0.288098"
           d="m -7.7267268,37.893152 1.885e-4,-1.907765 -0.01086,-1.907777 c 0,0 0.102028,-0.02695 0.598562,0.01246 0.496534,0.03936 1.283704,0.01036 1.985394,0.01782 1.009561,0.01054 1.010096,0.03106 1.060489,0.09352 0.244281,0.302795 0.126088,1.318168 0.125727,1.952236 -0.01162,1.433183 -0.0029,1.627135 -0.0024,1.738759 l -1.883873,0.01073 -1.2872607,0.01073 m 1.4809247,-0.783786 v -0.35062 h 0.20529 0.20529 l -0.01366,-0.244514 -0.01366,-0.244515 0.252966,-0.01321 c 0.139131,-0.0073 0.266206,-0.0086 0.28239,-0.0031 0.01618,0.0055 0.02395,0.279424 0.01726,0.608427 l -0.01217,0.598219 h 0.244121 0.244122 v -1.443735 -1.443725 h -0.252266 -0.252267 l 0.0068,0.48468 c 0.01008,0.718556 0.01997,0.693736 -0.269667,0.676949 l -0.241127,-0.01399 v -0.24383 -0.243831 h -0.202525 -0.202519 l 0.01473,-0.329995 0.01473,-0.329992 h -0.255966 -0.255967 v 0.572806 0.572808 l -0.128887,0.01934 c -0.219154,0.03288 -0.269014,-5.61e-4 -0.282494,-0.18954 l -0.0122,-0.17107 h -0.443763 -0.443756 l -0.0067,0.123753 c -0.0037,0.06807 0.0035,0.351134 0.01599,0.629051 l 0.02272,0.505304 h 0.358445 c 0.251575,0 0.363076,0.01533 0.373979,0.05156 0.0085,0.02836 0.02597,0.100566 0.03873,0.16045 0.01276,0.05988 0.421411,0.102004 0.459289,0.08125 0.06159,-0.03376 0.06792,-0.01302 0.05989,0.195429 -0.01263,0.32787 -0.0064,0.336304 0.249767,0.336304 h 0.223143 z"
           id="path470" /></g><g
         id="g471"
         transform="matrix(0.65458173,0,0,0.86373137,1.8123132,-32.871266)"
         style="fill:#9b897c;fill-opacity:1"><path
           style="fill:#9b897c;fill-opacity:1;stroke-width:0.331512"
           d="m -6.3082009,33.229434 v -0.38228 H -6.765299 -7.2223975 l 0.00706,-0.24211 c 0.015664,-0.53814 0.021524,-0.522448 -0.1951622,-0.522448 H -7.6050335 V 31.85324 31.623861 l 0.2053328,8.8e-5 0.2053329,8.8e-5 v -0.369625 -0.369627 l 0.4430862,-0.01446 0.4430866,-0.01446 V 30.47534 30.094846 h 0.4755075 0.4755078 v 0.382278 0.38228 h 0.4538925 0.453894 v 0.38228 0.38228 h 0.194518 0.194525 v 0.229379 0.229356 h -0.194521 -0.194526 v 0.382279 0.382279 h -0.4538931 -0.4538933 v 0.382281 0.382277 h -0.4755081 -0.4755074 z m 0.6828158,-0.751817 0.012792,-0.344052 h 0.2527673 c 0.2824765,0 0.3052454,-0.02692 0.3052454,-0.360961 v -0.19971 h -0.2809819 -0.2809819 v -0.325638 -0.325634 l -0.1454955,-0.03218 c -0.080022,-0.01774 -0.1804761,-0.01632 -0.2232311,0.0031 -0.023912,0.01682 -0.018917,0.09375 -0.042868,0.212379 -0.00774,0.04721 -0.015544,0.169706 -0.017371,0.272246 l -0.00331,0.186426 -0.2410264,0.01753 c -0.1325643,0.0097 -0.270448,-0.002 -0.3064079,-0.02581 -0.054586,-0.03613 -0.057615,-0.02616 -0.018336,0.06035 0.025872,0.05699 0.047041,0.184981 0.047041,0.284416 0,0.151333 0.017974,0.186095 0.1104176,0.213444 0.060729,0.018 0.1774438,0.01989 0.2593676,0.0043 l 0.1489513,-0.02851 v 0.349342 c 0,0.383528 0.016909,0.409163 0.2593674,0.393252 l 0.1512968,-0.0099 z m -1.0293011,-0.739074 c -0.00152,-0.08795 -0.079786,-0.176055 -0.1262885,-0.14217 -0.038009,0.0277 -0.037896,0.05398 4.58e-4,0.108475 0.054229,0.07705 0.1269151,0.09652 0.1258305,0.0337 z m -0.042565,-0.242109 c 0,-0.01397 -0.00972,-0.02548 -0.021615,-0.02548 -0.011888,0 -0.021615,0.01136 -0.021615,0.02548 0,0.01397 0.00972,0.02548 0.021615,0.02548 0.011888,0 0.021615,-0.01135 0.021615,-0.02548 z"
           id="path471" /></g><g
         id="g472"
         transform="matrix(0.73680333,0,0,0.93186568,2.4011799,-11.51826)"
         style="fill:#9b897c;fill-opacity:1"><path
           style="fill:#9b897c;fill-opacity:1;stroke-width:0.331512"
           d="m -6.3082009,33.229434 v -0.38228 H -6.765299 -7.2223975 l 0.00706,-0.24211 c 0.015664,-0.53814 0.021524,-0.522448 -0.1951622,-0.522448 H -7.6050335 V 31.85324 31.623861 l 0.2053328,8.8e-5 0.2053329,8.8e-5 v -0.369625 -0.369627 l 0.4430862,-0.01446 0.4430866,-0.01446 V 30.47534 30.094846 h 0.4755075 0.4755078 v 0.382278 0.38228 h 0.4538925 0.453894 v 0.38228 0.38228 h 0.194518 0.194525 v 0.229379 0.229356 h -0.194521 -0.194526 v 0.382279 0.382279 h -0.4538931 -0.4538933 v 0.382281 0.382277 h -0.4755081 -0.4755074 z m 0.6828158,-0.751817 0.012792,-0.344052 h 0.2527673 c 0.2824765,0 0.3052454,-0.02692 0.3052454,-0.360961 v -0.19971 h -0.2809819 -0.2809819 v -0.325638 -0.325634 l -0.1454955,-0.03218 c -0.080022,-0.01774 -0.1804761,-0.01632 -0.2232311,0.0031 -0.023912,0.01682 -0.018917,0.09375 -0.042868,0.212379 -0.00774,0.04721 -0.015544,0.169706 -0.017371,0.272246 l -0.00331,0.186426 -0.2410264,0.01753 c -0.1325643,0.0097 -0.270448,-0.002 -0.3064079,-0.02581 -0.054586,-0.03613 -0.057615,-0.02616 -0.018336,0.06035 0.025872,0.05699 0.047041,0.184981 0.047041,0.284416 0,0.151333 0.017974,0.186095 0.1104176,0.213444 0.060729,0.018 0.1774438,0.01989 0.2593676,0.0043 l 0.1489513,-0.02851 v 0.349342 c 0,0.383528 0.016909,0.409163 0.2593674,0.393252 l 0.1512968,-0.0099 z m -1.0293011,-0.739074 c -0.00152,-0.08795 -0.079786,-0.176055 -0.1262885,-0.14217 -0.038009,0.0277 -0.037896,0.05398 4.58e-4,0.108475 0.054229,0.07705 0.1269151,0.09652 0.1258305,0.0337 z m -0.042565,-0.242109 c 0,-0.01397 -0.00972,-0.02548 -0.021615,-0.02548 -0.011888,0 -0.021615,0.01136 -0.021615,0.02548 0,0.01397 0.00972,0.02548 0.021615,0.02548 0.011888,0 0.021615,-0.01135 0.021615,-0.02548 z"
           id="path472" /></g></g><g
       id="g480"
       transform="matrix(-1.6832653,-0.00881526,0.00770929,-1.0944212,7.5791939,12.800075)"
       style="fill:#9b897c;fill-opacity:1"><g
         id="g474"
         transform="matrix(0.8293026,0,0,1,2.7192971,-13.663379)"
         style="fill:#9b897c;fill-opacity:1"><path
           style="fill:#9b897c;fill-opacity:1;stroke-width:0.282496"
           d="m -5.1667686,29.926985 c -4.75e-4,-0.03927 -0.256264,-0.05057 -1.145422,-0.05057 -0.72054,0 -1.153875,-0.01503 -1.169262,-0.04046 -0.01345,-0.02225 -0.05891,-0.04046 -0.101031,-0.04046 -0.07464,0 -0.07649,-0.04536 -0.07298,-1.786493 0.002,-0.982572 0.0127,-1.810725 0.02382,-1.840341 0.01643,-0.04376 0.36408,-0.05385 1.856143,-0.05385 h 1.8359343 l -0.02133,0.0203 v 1.87069 1.870693 l -0.427571,-1.5e-5 c -0.253206,-0.05421 -0.588364,-0.0019 -0.7783303,0.05055 z m -1.483989,-0.687668 v -0.212418 l 0.158227,-0.0047 c 0.08703,-0.0026 0.181492,-0.0015 0.209925,0.0024 0.02843,0.004 0.04858,-0.01672 0.04476,-0.04577 -0.0038,-0.02907 -0.0048,-0.144347 -0.0023,-0.256165 l 0.0047,-0.203303 0.153186,0.01503 0.153184,0.01485 0.02638,-0.179861 c 0.02425,-0.165316 0.03442,-0.178281 0.125887,-0.160412 0.07205,0.01409 0.0977,0.04314 0.09296,0.10532 -0.01525,0.199909 -2.53e-4,0.237521 0.08557,0.214575 0.135915,-0.03634 0.279353,0.04006 0.271093,0.144403 -0.004,0.05 -0.0052,0.150059 -0.0028,0.222363 0.0043,0.129992 0.0065,0.131456 0.200096,0.131456 h 0.1957173 l 0.01197,0.212347 0.01197,0.212348 0.286787,0.01183 0.286788,0.01183 v -0.264677 -0.264679 l -0.207674,5.6e-5 -0.207673,5.5e-5 0.01355,-0.222514 0.01355,-0.222515 h -0.181687 -0.1816663 v -0.179897 -0.179898 l -0.207674,-0.01222 c -0.20252,-0.01184 -0.207982,-0.01541 -0.220069,-0.14367 -0.01026,-0.10904 0.0012,-0.131455 0.06736,-0.131455 0.04387,0 0.124975,0.02107 0.180237,0.04681 0.09213,0.04293 0.118222,0.03033 0.3140493,-0.151675 0.213327,-0.198258 0.213575,-0.198774 0.217838,-0.451279 l 0.0043,-0.25279 h 0.197783 0.197784 V 26.782185 26.51928 h -0.296677 -0.296677 v 0.222457 c 0,0.219089 -0.0018,0.222537 -0.118672,0.227516 -0.06527,0.0028 -0.1364703,0.0096 -0.1582273,0.01522 -0.02176,0.0056 -0.06228,0.0124 -0.09005,0.01522 -0.0343,0.0034 -0.04577,0.05567 -0.03577,0.162968 0.01853,0.198756 -0.08836,0.328497 -0.245372,0.297806 -0.09807,-0.01917 -0.103498,-0.01147 -0.103498,0.146264 0,0.116763 -0.01676,0.1665 -0.0561,0.1665 -0.03085,0 -0.08426,0.01109 -0.118672,0.02456 -0.0514,0.02016 -0.06257,-0.0083 -0.06257,-0.159455 v -0.184012 l -0.165489,-0.0124 c -0.165301,-0.0124 -0.165497,-0.01259 -0.17165,-0.184332 -0.01018,-0.284048 -0.0077,-0.279982 -0.167211,-0.272983 -0.22592,0.01 -0.235526,-9.58e-4 -0.215784,-0.244388 l 0.0179,-0.220787 h -0.323824 -0.32382 l 0.01235,0.252795 -0.0083,0.222519 c -0.0072,0.193936 0.467023,0.0807 0.435432,0.131382 -0.0208,0.03337 -0.03808,0.128919 -0.03841,0.212347 l -6.15e-4,0.151675 h 0.175731 0.175731 l 0.01216,0.171893 0.01216,0.171893 0.207674,0.01222 0.207674,0.01222 v 0.139461 0.139443 h -0.221547 -0.221546 l 0.01414,0.182002 0.01414,0.182021 -0.138734,6.29e-4 c -0.2116,9.58e-4 -0.246994,0.0413 -0.22505,0.25663 l 0.01913,0.187658 h -0.189244 c -0.162814,0 -0.192575,0.01278 -0.213096,0.091 -0.0328,0.125161 -0.03097,0.374703 0.003,0.409444 0.01536,0.01578 0.153323,0.0233 0.306566,0.01691 l 0.278627,-0.01165 z m -0.929587,0.637113 c -0.05071,-0.0335 -0.04927,-0.03929 0.0099,-0.03983 0.03807,-3.44e-4 0.06922,0.01766 0.06922,0.03983 0,0.04932 -0.0045,0.04932 -0.07911,0 z"
           id="path473" /></g><g
         id="g475"
         transform="matrix(0.8293026,0,0,1,2.7192971,-21.663379)"
         style="fill:#9b897c;fill-opacity:1"><path
           style="fill:#9b897c;fill-opacity:1;stroke-width:0.331512"
           d="m -6.3082009,33.229434 v -0.38228 H -6.765299 -7.2223975 l 0.00706,-0.24211 c 0.015664,-0.53814 0.021524,-0.522448 -0.1951622,-0.522448 H -7.6050335 V 31.85324 31.623861 l 0.2053328,8.8e-5 0.2053329,8.8e-5 v -0.369625 -0.369627 l 0.4430862,-0.01446 0.4430866,-0.01446 V 30.47534 30.094846 h 0.4755075 0.4755078 v 0.382278 0.38228 h 0.4538925 0.453894 v 0.38228 0.38228 h 0.194518 0.194525 v 0.229379 0.229356 h -0.194521 -0.194526 v 0.382279 0.382279 h -0.4538931 -0.4538933 v 0.382281 0.382277 h -0.4755081 -0.4755074 z m 0.6828158,-0.751817 0.012792,-0.344052 h 0.2527673 c 0.2824765,0 0.3052454,-0.02692 0.3052454,-0.360961 v -0.19971 h -0.2809819 -0.2809819 v -0.325638 -0.325634 l -0.1454955,-0.03218 c -0.080022,-0.01774 -0.1804761,-0.01632 -0.2232311,0.0031 -0.023912,0.01682 -0.018917,0.09375 -0.042868,0.212379 -0.00774,0.04721 -0.015544,0.169706 -0.017371,0.272246 l -0.00331,0.186426 -0.2410264,0.01753 c -0.1325643,0.0097 -0.270448,-0.002 -0.3064079,-0.02581 -0.054586,-0.03613 -0.057615,-0.02616 -0.018336,0.06035 0.025872,0.05699 0.047041,0.184981 0.047041,0.284416 0,0.151333 0.017974,0.186095 0.1104176,0.213444 0.060729,0.018 0.1774438,0.01989 0.2593676,0.0043 l 0.1489513,-0.02851 v 0.349342 c 0,0.383528 0.016909,0.409163 0.2593674,0.393252 l 0.1512968,-0.0099 z m -1.0293011,-0.739074 c -0.00152,-0.08795 -0.079786,-0.176055 -0.1262885,-0.14217 -0.038009,0.0277 -0.037896,0.05398 4.58e-4,0.108475 0.054229,0.07705 0.1269151,0.09652 0.1258305,0.0337 z m -0.042565,-0.242109 c 0,-0.01397 -0.00972,-0.02548 -0.021615,-0.02548 -0.011888,0 -0.021615,0.01136 -0.021615,0.02548 0,0.01397 0.00972,0.02548 0.021615,0.02548 0.011888,0 0.021615,-0.01135 0.021615,-0.02548 z"
           id="path474" /><path
           style="fill:#9b897c;fill-opacity:1;stroke-width:0.288098"
           d="m -7.5538221,25.171134 c 0,-0.280264 0.01681,-0.442066 0.04942,-0.475398 0.03899,-0.03988 0.03828,-0.06878 -0.0034,-0.137015 -0.0399,-0.06533 -0.05232,-0.32997 -0.05076,-1.081762 0.0011,-0.547404 0.0027,-1.009199 0.0034,-1.026216 7.16e-4,-0.01705 0.382567,-0.03093 0.848511,-0.03093 h 0.8471692 v 1.361225 1.361227 h 0.136257 c 0.148759,0 0.272044,-0.09718 0.172724,-0.136153 -0.04071,-0.01591 -0.05807,-0.113712 -0.06311,-0.355435 l -0.0069,-0.333404 h 0.122595 c 0.12022,0 0.122596,-0.004 0.122596,-0.206247 0,-0.201662 0.0027,-0.206246 0.121025,-0.206246 h 0.121026 v -0.247493 -0.247496 h 0.141194 0.1411961 v -0.203507 c 0,-0.191342 0.0067,-0.204286 0.110939,-0.216558 0.108477,-0.01284 0.111202,-0.01974 0.122842,-0.314669 0.01188,-0.300964 0.01215,-0.301589 0.121026,-0.288744 l 0.109122,0.01283 0.01057,1.577782 0.01057,1.577784 H -5.2336419 -6.1014624 V 24.19349 22.832264 h -0.1210247 -0.121026 v 0.412494 0.412491 h -0.121026 c -0.116542,0 -0.121026,0.0069 -0.121026,0.185612 0,0.178751 -0.0045,0.185631 -0.121025,0.185631 h -0.121026 v 0.26812 0.268121 l -0.131111,-2.6e-5 -0.131108,-2.6e-5 0.01379,0.203377 0.01379,0.203375 -0.134813,0.01321 -0.134813,0.01321 -0.01184,0.299056 c -0.01135,0.286783 -0.01593,0.299057 -0.11094,0.299057 -0.09881,0 -0.09909,-0.0012 -0.09909,-0.424867 z m 2.9237783,-0.777967 0.01528,-0.728468 -0.128175,0.0067 c -0.126053,0.0065 -0.128176,0.01 -0.128176,0.212853 0,0.194332 -0.0064,0.206999 -0.1109391,0.219298 -0.06349,0.0075 -0.110939,0.03834 -0.110939,0.07219 0,0.109286 -0.0046,0.120727 -0.08349,0.206567 -0.113217,0.123217 -0.03637,0.104533 -0.0781,0.134485 -0.0453,0.03252 -0.163086,0.0069 -0.163086,0.03197 -0.01349,0.117928 -0.01437,0.262014 -0.01567,0.307541 0.112423,0.01514 0.195769,-0.03641 0.05795,0.186532 v 0.102618 l 0.365033,-0.01189 0.3650321,-0.01188 z m -2.4565953,-0.302763 c 0.0032,-0.200574 0.0068,-0.206601 0.131109,-0.219172 0.124175,-0.01246 0.127854,-0.01859 0.127854,-0.212045 0,-0.196725 0.0017,-0.199323 0.140707,-0.215916 0.06297,0.01457 0.129022,0.005 0.193535,0.0077 -0.06444,-0.07598 -0.09085,-0.168614 -0.09997,-0.35062 l -0.01239,-0.247351 -0.352987,-0.01188 -0.352988,-0.01189 v 0.746833 0.746832 l 0.110939,-0.01302 c 0.104015,-0.01226 0.111143,-0.02593 0.114194,-0.219299 z"
           id="path475" /></g><g
         id="g477"
         transform="matrix(0.8293026,0,0,1,2.6674658,-29.725879)"
         style="fill:#9b897c;fill-opacity:1"><path
           style="fill:#9b897c;fill-opacity:1;stroke-width:0.282496"
           d="m -5.1667686,29.926985 c -4.75e-4,-0.03927 -0.256264,-0.05057 -1.145422,-0.05057 -0.72054,0 -1.153875,-0.01503 -1.169262,-0.04046 -0.01345,-0.02225 -0.05891,-0.04046 -0.101031,-0.04046 -0.07464,0 -0.07649,-0.04536 -0.07298,-1.786493 0.002,-0.982572 0.0127,-1.810725 0.02382,-1.840341 0.01643,-0.04376 0.36408,-0.05385 1.856143,-0.05385 h 1.8359343 l -0.02133,0.0203 v 1.87069 1.870693 l -0.427571,-1.5e-5 c -0.253206,-0.05421 -0.588364,-0.0019 -0.7783303,0.05055 z m -1.483989,-0.687668 v -0.212418 l 0.158227,-0.0047 c 0.08703,-0.0026 0.181492,-0.0015 0.209925,0.0024 0.02843,0.004 0.04858,-0.01672 0.04476,-0.04577 -0.0038,-0.02907 -0.0048,-0.144347 -0.0023,-0.256165 l 0.0047,-0.203303 0.153186,0.01503 0.153184,0.01485 0.02638,-0.179861 c 0.02425,-0.165316 0.03442,-0.178281 0.125887,-0.160412 0.07205,0.01409 0.0977,0.04314 0.09296,0.10532 -0.01525,0.199909 -2.53e-4,0.237521 0.08557,0.214575 0.135915,-0.03634 0.279353,0.04006 0.271093,0.144403 -0.004,0.05 -0.0052,0.150059 -0.0028,0.222363 0.0043,0.129992 0.0065,0.131456 0.200096,0.131456 h 0.1957173 l 0.01197,0.212347 0.01197,0.212348 0.286787,0.01183 0.286788,0.01183 v -0.264677 -0.264679 l -0.207674,5.6e-5 -0.207673,5.5e-5 0.01355,-0.222514 0.01355,-0.222515 h -0.181687 -0.1816663 v -0.179897 -0.179898 l -0.207674,-0.01222 c -0.20252,-0.01184 -0.207982,-0.01541 -0.220069,-0.14367 -0.01026,-0.10904 0.0012,-0.131455 0.06736,-0.131455 0.04387,0 0.124975,0.02107 0.180237,0.04681 0.09213,0.04293 0.118222,0.03033 0.3140493,-0.151675 0.213327,-0.198258 0.213575,-0.198774 0.217838,-0.451279 l 0.0043,-0.25279 h 0.197783 0.197784 V 26.782185 26.51928 h -0.296677 -0.296677 v 0.222457 c 0,0.219089 -0.0018,0.222537 -0.118672,0.227516 -0.06527,0.0028 -0.1364703,0.0096 -0.1582273,0.01522 -0.02176,0.0056 -0.06228,0.0124 -0.09005,0.01522 -0.0343,0.0034 -0.04577,0.05567 -0.03577,0.162968 0.01853,0.198756 -0.08836,0.328497 -0.245372,0.297806 -0.09807,-0.01917 -0.103498,-0.01147 -0.103498,0.146264 0,0.116763 -0.01676,0.1665 -0.0561,0.1665 -0.03085,0 -0.08426,0.01109 -0.118672,0.02456 -0.0514,0.02016 -0.06257,-0.0083 -0.06257,-0.159455 v -0.184012 l -0.165489,-0.0124 c -0.165301,-0.0124 -0.165497,-0.01259 -0.17165,-0.184332 -0.01018,-0.284048 -0.0077,-0.279982 -0.167211,-0.272983 -0.22592,0.01 -0.235526,-9.58e-4 -0.215784,-0.244388 l 0.0179,-0.220787 h -0.323824 -0.32382 l 0.01235,0.252795 -0.0083,0.222519 c -0.0072,0.193936 0.467023,0.0807 0.435432,0.131382 -0.0208,0.03337 -0.03808,0.128919 -0.03841,0.212347 l -6.15e-4,0.151675 h 0.175731 0.175731 l 0.01216,0.171893 0.01216,0.171893 0.207674,0.01222 0.207674,0.01222 v 0.139461 0.139443 h -0.221547 -0.221546 l 0.01414,0.182002 0.01414,0.182021 -0.138734,6.29e-4 c -0.2116,9.58e-4 -0.246994,0.0413 -0.22505,0.25663 l 0.01913,0.187658 h -0.189244 c -0.162814,0 -0.192575,0.01278 -0.213096,0.091 -0.0328,0.125161 -0.03097,0.374703 0.003,0.409444 0.01536,0.01578 0.153323,0.0233 0.306566,0.01691 l 0.278627,-0.01165 z m -0.929587,0.637113 c -0.05071,-0.0335 -0.04927,-0.03929 0.0099,-0.03983 0.03807,-3.44e-4 0.06922,0.01766 0.06922,0.03983 0,0.04932 -0.0045,0.04932 -0.07911,0 z"
           id="path476" /><path
           style="fill:#9b897c;fill-opacity:1;stroke-width:0.288098"
           d="m -7.7267268,37.893152 1.885e-4,-1.907765 -0.01086,-1.907777 c 0,0 0.102028,-0.02695 0.598562,0.01246 0.496534,0.03936 1.283704,0.01036 1.985394,0.01782 1.009561,0.01054 1.010096,0.03106 1.060489,0.09352 0.244281,0.302795 0.126088,1.318168 0.125727,1.952236 -0.01162,1.433183 -0.0029,1.627135 -0.0024,1.738759 l -1.883873,0.01073 -1.2872607,0.01073 m 1.4809247,-0.783786 v -0.35062 h 0.20529 0.20529 l -0.01366,-0.244514 -0.01366,-0.244515 0.252966,-0.01321 c 0.139131,-0.0073 0.266206,-0.0086 0.28239,-0.0031 0.01618,0.0055 0.02395,0.279424 0.01726,0.608427 l -0.01217,0.598219 h 0.244121 0.244122 v -1.443735 -1.443725 h -0.252266 -0.252267 l 0.0068,0.48468 c 0.01008,0.718556 0.01997,0.693736 -0.269667,0.676949 l -0.241127,-0.01399 v -0.24383 -0.243831 h -0.202525 -0.202519 l 0.01473,-0.329995 0.01473,-0.329992 h -0.255966 -0.255967 v 0.572806 0.572808 l -0.128887,0.01934 c -0.219154,0.03288 -0.269014,-5.61e-4 -0.282494,-0.18954 l -0.0122,-0.17107 h -0.443763 -0.443756 l -0.0067,0.123753 c -0.0037,0.06807 0.0035,0.351134 0.01599,0.629051 l 0.02272,0.505304 h 0.358445 c 0.251575,0 0.363076,0.01533 0.373979,0.05156 0.0085,0.02836 0.02597,0.100566 0.03873,0.16045 0.01276,0.05988 0.421411,0.102004 0.459289,0.08125 0.06159,-0.03376 0.06792,-0.01302 0.05989,0.195429 -0.01263,0.32787 -0.0064,0.336304 0.249767,0.336304 h 0.223143 z"
           id="path477" /></g><g
         id="g478"
         transform="matrix(0.75599592,-1.521769e-5,-1.1417605e-5,0.99505621,2.2232606,-37.284345)"
         style="fill:#9b897c;fill-opacity:1"><path
           style="fill:#9b897c;fill-opacity:1;stroke-width:0.331512"
           d="m -6.3082009,33.229434 v -0.38228 H -6.765299 -7.2223975 l 0.00706,-0.24211 c 0.015664,-0.53814 0.021524,-0.522448 -0.1951622,-0.522448 H -7.6050335 V 31.85324 31.623861 l 0.2053328,8.8e-5 0.2053329,8.8e-5 v -0.369625 -0.369627 l 0.4430862,-0.01446 0.4430866,-0.01446 V 30.47534 30.094846 h 0.4755075 0.4755078 v 0.382278 0.38228 h 0.4538925 0.453894 v 0.38228 0.38228 h 0.194518 0.194525 v 0.229379 0.229356 h -0.194521 -0.194526 v 0.382279 0.382279 h -0.4538931 -0.4538933 v 0.382281 0.382277 h -0.4755081 -0.4755074 z m 0.6828158,-0.751817 0.012792,-0.344052 h 0.2527673 c 0.2824765,0 0.3052454,-0.02692 0.3052454,-0.360961 v -0.19971 h -0.2809819 -0.2809819 v -0.325638 -0.325634 l -0.1454955,-0.03218 c -0.080022,-0.01774 -0.1804761,-0.01632 -0.2232311,0.0031 -0.023912,0.01682 -0.018917,0.09375 -0.042868,0.212379 -0.00774,0.04721 -0.015544,0.169706 -0.017371,0.272246 l -0.00331,0.186426 -0.2410264,0.01753 c -0.1325643,0.0097 -0.270448,-0.002 -0.3064079,-0.02581 -0.054586,-0.03613 -0.057615,-0.02616 -0.018336,0.06035 0.025872,0.05699 0.047041,0.184981 0.047041,0.284416 0,0.151333 0.017974,0.186095 0.1104176,0.213444 0.060729,0.018 0.1774438,0.01989 0.2593676,0.0043 l 0.1489513,-0.02851 v 0.349342 c 0,0.383528 0.016909,0.409163 0.2593674,0.393252 l 0.1512968,-0.0099 z m -1.0293011,-0.739074 c -0.00152,-0.08795 -0.079786,-0.176055 -0.1262885,-0.14217 -0.038009,0.0277 -0.037896,0.05398 4.58e-4,0.108475 0.054229,0.07705 0.1269151,0.09652 0.1258305,0.0337 z m -0.042565,-0.242109 c 0,-0.01397 -0.00972,-0.02548 -0.021615,-0.02548 -0.011888,0 -0.021615,0.01136 -0.021615,0.02548 0,0.01397 0.00972,0.02548 0.021615,0.02548 0.011888,0 0.021615,-0.01135 0.021615,-0.02548 z"
           id="path478" /></g><g
         id="g479"
         transform="matrix(0.83821906,-3.9872333e-4,-2.8673772e-4,0.99752568,2.8210404,-13.812625)"
         style="fill:#9b897c;fill-opacity:1"><path
           style="fill:#9b897c;fill-opacity:1;stroke-width:0.331512"
           d="m -6.3056848,33.663814 v -0.38228 h -0.4570981 -0.4570985 l 0.00706,-0.24211 c 0.015664,-0.53814 0.021524,-0.522448 -0.1951622,-0.522448 H -7.6025174 V 32.28762 32.058241 l 0.2053328,8.8e-5 0.2053329,8.8e-5 v -0.369625 -0.369627 l 0.4430862,-0.01446 0.4430866,-0.01446 V 30.90972 30.529226 h 0.4755075 0.4755078 v 0.382278 0.38228 h 0.4538925 0.453894 v 0.38228 0.38228 h 0.194518 0.194525 v 0.229379 0.229356 h -0.194521 -0.194526 v 0.382279 0.382279 h -0.4538931 -0.4538933 v 0.382281 0.382277 H -5.8301756 -6.305683 Z m 0.6828158,-0.751817 0.012792,-0.344052 h 0.2527673 c 0.2824765,0 0.3052454,-0.02692 0.3052454,-0.360961 v -0.19971 h -0.2809819 -0.2809819 v -0.325638 -0.325634 l -0.1454955,-0.03218 c -0.080022,-0.01774 -0.1804761,-0.01632 -0.2232311,0.0031 -0.023912,0.01682 -0.018917,0.09375 -0.042868,0.212379 -0.00774,0.04721 -0.015544,0.169706 -0.017371,0.272246 l -0.00331,0.186426 -0.2410264,0.01753 c -0.1325643,0.0097 -0.270448,-0.002 -0.3064079,-0.02581 -0.054586,-0.03613 -0.057615,-0.02616 -0.018336,0.06035 0.025872,0.05699 0.047041,0.184981 0.047041,0.284416 0,0.151333 0.017974,0.186095 0.1104176,0.213444 0.060729,0.018 0.1774438,0.01989 0.2593676,0.0043 l 0.1489513,-0.02851 v 0.349342 c 0,0.383528 0.016909,0.409163 0.2593674,0.393252 l 0.1512968,-0.0099 z m -1.0293011,-0.739074 c -0.00152,-0.08795 -0.079786,-0.176055 -0.1262885,-0.14217 -0.038009,0.0277 -0.037896,0.05398 4.58e-4,0.108475 0.054229,0.07705 0.1269151,0.09652 0.1258305,0.0337 z m -0.042565,-0.242109 c 0,-0.01397 -0.00972,-0.02548 -0.021615,-0.02548 -0.011888,0 -0.021615,0.01136 -0.021615,0.02548 0,0.01397 0.00972,0.02548 0.021615,0.02548 0.011888,0 0.021615,-0.01135 0.021615,-0.02548 z"
           id="path479" /></g></g><g
       id="g487"
       transform="matrix(1.7412418,0,0,1.0770092,21.279185,3.6158452)"
       style="fill:#9b897c;fill-opacity:1"><g
         id="g481"
         transform="matrix(0.8293026,0,0,1,2.7192971,-13.663379)"
         style="fill:#9b897c;fill-opacity:1"><path
           style="fill:#9b897c;fill-opacity:1;stroke-width:0.282496"
           d="m -5.1667686,29.926985 c -4.75e-4,-0.03927 -0.256264,-0.05057 -1.145422,-0.05057 -0.72054,0 -1.153875,-0.01503 -1.169262,-0.04046 -0.01345,-0.02225 -0.05891,-0.04046 -0.101031,-0.04046 -0.07464,0 -0.07649,-0.04536 -0.07298,-1.786493 0.002,-0.982572 0.0127,-1.810725 0.02382,-1.840341 0.01643,-0.04376 0.36408,-0.05385 1.856143,-0.05385 h 1.8359343 l -0.02133,0.0203 v 1.87069 1.870693 l -0.427571,-1.5e-5 c -0.253206,-0.05421 -0.588364,-0.0019 -0.7783303,0.05055 z m -1.483989,-0.687668 v -0.212418 l 0.158227,-0.0047 c 0.08703,-0.0026 0.181492,-0.0015 0.209925,0.0024 0.02843,0.004 0.04858,-0.01672 0.04476,-0.04577 -0.0038,-0.02907 -0.0048,-0.144347 -0.0023,-0.256165 l 0.0047,-0.203303 0.153186,0.01503 0.153184,0.01485 0.02638,-0.179861 c 0.02425,-0.165316 0.03442,-0.178281 0.125887,-0.160412 0.07205,0.01409 0.0977,0.04314 0.09296,0.10532 -0.01525,0.199909 -2.53e-4,0.237521 0.08557,0.214575 0.135915,-0.03634 0.279353,0.04006 0.271093,0.144403 -0.004,0.05 -0.0052,0.150059 -0.0028,0.222363 0.0043,0.129992 0.0065,0.131456 0.200096,0.131456 h 0.1957173 l 0.01197,0.212347 0.01197,0.212348 0.286787,0.01183 0.286788,0.01183 v -0.264677 -0.264679 l -0.207674,5.6e-5 -0.207673,5.5e-5 0.01355,-0.222514 0.01355,-0.222515 h -0.181687 -0.1816663 v -0.179897 -0.179898 l -0.207674,-0.01222 c -0.20252,-0.01184 -0.207982,-0.01541 -0.220069,-0.14367 -0.01026,-0.10904 0.0012,-0.131455 0.06736,-0.131455 0.04387,0 0.124975,0.02107 0.180237,0.04681 0.09213,0.04293 0.118222,0.03033 0.3140493,-0.151675 0.213327,-0.198258 0.213575,-0.198774 0.217838,-0.451279 l 0.0043,-0.25279 h 0.197783 0.197784 V 26.782185 26.51928 h -0.296677 -0.296677 v 0.222457 c 0,0.219089 -0.0018,0.222537 -0.118672,0.227516 -0.06527,0.0028 -0.1364703,0.0096 -0.1582273,0.01522 -0.02176,0.0056 -0.06228,0.0124 -0.09005,0.01522 -0.0343,0.0034 -0.04577,0.05567 -0.03577,0.162968 0.01853,0.198756 -0.08836,0.328497 -0.245372,0.297806 -0.09807,-0.01917 -0.103498,-0.01147 -0.103498,0.146264 0,0.116763 -0.01676,0.1665 -0.0561,0.1665 -0.03085,0 -0.08426,0.01109 -0.118672,0.02456 -0.0514,0.02016 -0.06257,-0.0083 -0.06257,-0.159455 v -0.184012 l -0.165489,-0.0124 c -0.165301,-0.0124 -0.165497,-0.01259 -0.17165,-0.184332 -0.01018,-0.284048 -0.0077,-0.279982 -0.167211,-0.272983 -0.22592,0.01 -0.235526,-9.58e-4 -0.215784,-0.244388 l 0.0179,-0.220787 h -0.323824 -0.32382 l 0.01235,0.252795 -0.0083,0.222519 c -0.0072,0.193936 0.467023,0.0807 0.435432,0.131382 -0.0208,0.03337 -0.03808,0.128919 -0.03841,0.212347 l -6.15e-4,0.151675 h 0.175731 0.175731 l 0.01216,0.171893 0.01216,0.171893 0.207674,0.01222 0.207674,0.01222 v 0.139461 0.139443 h -0.221547 -0.221546 l 0.01414,0.182002 0.01414,0.182021 -0.138734,6.29e-4 c -0.2116,9.58e-4 -0.246994,0.0413 -0.22505,0.25663 l 0.01913,0.187658 h -0.189244 c -0.162814,0 -0.192575,0.01278 -0.213096,0.091 -0.0328,0.125161 -0.03097,0.374703 0.003,0.409444 0.01536,0.01578 0.153323,0.0233 0.306566,0.01691 l 0.278627,-0.01165 z m -0.929587,0.637113 c -0.05071,-0.0335 -0.04927,-0.03929 0.0099,-0.03983 0.03807,-3.44e-4 0.06922,0.01766 0.06922,0.03983 0,0.04932 -0.0045,0.04932 -0.07911,0 z"
           id="path480" /></g><g
         id="g482"
         transform="matrix(0.8293026,0,0,1,2.7192971,-21.663379)"
         style="fill:#9b897c;fill-opacity:1"><path
           style="fill:#9b897c;fill-opacity:1;stroke-width:0.331512"
           d="m -6.3082009,33.229434 v -0.38228 H -6.765299 -7.2223975 l 0.00706,-0.24211 c 0.015664,-0.53814 0.021524,-0.522448 -0.1951622,-0.522448 H -7.6050335 V 31.85324 31.623861 l 0.2053328,8.8e-5 0.2053329,8.8e-5 v -0.369625 -0.369627 l 0.4430862,-0.01446 0.4430866,-0.01446 V 30.47534 30.094846 h 0.4755075 0.4755078 v 0.382278 0.38228 h 0.4538925 0.453894 v 0.38228 0.38228 h 0.194518 0.194525 v 0.229379 0.229356 h -0.194521 -0.194526 v 0.382279 0.382279 h -0.4538931 -0.4538933 v 0.382281 0.382277 h -0.4755081 -0.4755074 z m 0.6828158,-0.751817 0.012792,-0.344052 h 0.2527673 c 0.2824765,0 0.3052454,-0.02692 0.3052454,-0.360961 v -0.19971 h -0.2809819 -0.2809819 v -0.325638 -0.325634 l -0.1454955,-0.03218 c -0.080022,-0.01774 -0.1804761,-0.01632 -0.2232311,0.0031 -0.023912,0.01682 -0.018917,0.09375 -0.042868,0.212379 -0.00774,0.04721 -0.015544,0.169706 -0.017371,0.272246 l -0.00331,0.186426 -0.2410264,0.01753 c -0.1325643,0.0097 -0.270448,-0.002 -0.3064079,-0.02581 -0.054586,-0.03613 -0.057615,-0.02616 -0.018336,0.06035 0.025872,0.05699 0.047041,0.184981 0.047041,0.284416 0,0.151333 0.017974,0.186095 0.1104176,0.213444 0.060729,0.018 0.1774438,0.01989 0.2593676,0.0043 l 0.1489513,-0.02851 v 0.349342 c 0,0.383528 0.016909,0.409163 0.2593674,0.393252 l 0.1512968,-0.0099 z m -1.0293011,-0.739074 c -0.00152,-0.08795 -0.079786,-0.176055 -0.1262885,-0.14217 -0.038009,0.0277 -0.037896,0.05398 4.58e-4,0.108475 0.054229,0.07705 0.1269151,0.09652 0.1258305,0.0337 z m -0.042565,-0.242109 c 0,-0.01397 -0.00972,-0.02548 -0.021615,-0.02548 -0.011888,0 -0.021615,0.01136 -0.021615,0.02548 0,0.01397 0.00972,0.02548 0.021615,0.02548 0.011888,0 0.021615,-0.01135 0.021615,-0.02548 z"
           id="path481" /><path
           style="fill:#9b897c;fill-opacity:1;stroke-width:0.288098"
           d="m -7.5538221,25.171134 c 0,-0.280264 0.01681,-0.442066 0.04942,-0.475398 0.03899,-0.03988 0.03828,-0.06878 -0.0034,-0.137015 -0.0399,-0.06533 -0.05232,-0.32997 -0.05076,-1.081762 0.0011,-0.547404 0.0027,-1.009199 0.0034,-1.026216 7.16e-4,-0.01705 0.382567,-0.03093 0.848511,-0.03093 h 0.8471692 v 1.361225 1.361227 h 0.136257 c 0.148759,0 0.272044,-0.09718 0.172724,-0.136153 -0.04071,-0.01591 -0.05807,-0.113712 -0.06311,-0.355435 l -0.0069,-0.333404 h 0.122595 c 0.12022,0 0.122596,-0.004 0.122596,-0.206247 0,-0.201662 0.0027,-0.206246 0.121025,-0.206246 h 0.121026 v -0.247493 -0.247496 h 0.141194 0.1411961 v -0.203507 c 0,-0.191342 0.0067,-0.204286 0.110939,-0.216558 0.108477,-0.01284 0.111202,-0.01974 0.122842,-0.314669 0.01188,-0.300964 0.01215,-0.301589 0.121026,-0.288744 l 0.109122,0.01283 0.01057,1.577782 0.01057,1.577784 H -5.2336419 -6.1014624 V 24.19349 22.832264 h -0.1210247 -0.121026 v 0.412494 0.412491 h -0.121026 c -0.116542,0 -0.121026,0.0069 -0.121026,0.185612 0,0.178751 -0.0045,0.185631 -0.121025,0.185631 h -0.121026 v 0.26812 0.268121 l -0.131111,-2.6e-5 -0.131108,-2.6e-5 0.01379,0.203377 0.01379,0.203375 -0.134813,0.01321 -0.134813,0.01321 -0.01184,0.299056 c -0.01135,0.286783 -0.01593,0.299057 -0.11094,0.299057 -0.09881,0 -0.09909,-0.0012 -0.09909,-0.424867 z m 2.9237783,-0.777967 0.01528,-0.728468 -0.128175,0.0067 c -0.126053,0.0065 -0.128176,0.01 -0.128176,0.212853 0,0.194332 -0.0064,0.206999 -0.1109391,0.219298 -0.06349,0.0075 -0.110939,0.03834 -0.110939,0.07219 0,0.109286 -0.0046,0.120727 -0.08349,0.206567 -0.113217,0.123217 -0.03637,0.104533 -0.0781,0.134485 -0.0453,0.03252 -0.163086,0.0069 -0.163086,0.03197 -0.01349,0.117928 -0.01437,0.262014 -0.01567,0.307541 0.112423,0.01514 0.195769,-0.03641 0.05795,0.186532 v 0.102618 l 0.365033,-0.01189 0.3650321,-0.01188 z m -2.4565953,-0.302763 c 0.0032,-0.200574 0.0068,-0.206601 0.131109,-0.219172 0.124175,-0.01246 0.127854,-0.01859 0.127854,-0.212045 0,-0.196725 0.0017,-0.199323 0.140707,-0.215916 0.06297,0.01457 0.129022,0.005 0.193535,0.0077 -0.06444,-0.07598 -0.09085,-0.168614 -0.09997,-0.35062 l -0.01239,-0.247351 -0.352987,-0.01188 -0.352988,-0.01189 v 0.746833 0.746832 l 0.110939,-0.01302 c 0.104015,-0.01226 0.111143,-0.02593 0.114194,-0.219299 z"
           id="path482" /></g><g
         id="g485"
         transform="matrix(0.8293026,0,0,1,2.6674658,-29.725879)"
         style="fill:#9b897c;fill-opacity:1"><path
           style="fill:#9b897c;fill-opacity:1;stroke-width:0.282496"
           d="m -5.1667686,29.926985 c -4.75e-4,-0.03927 -0.256264,-0.05057 -1.145422,-0.05057 -0.72054,0 -1.153875,-0.01503 -1.169262,-0.04046 -0.01345,-0.02225 -0.05891,-0.04046 -0.101031,-0.04046 -0.07464,0 -0.07649,-0.04536 -0.07298,-1.786493 0.002,-0.982572 0.0127,-1.810725 0.02382,-1.840341 0.01643,-0.04376 0.36408,-0.05385 1.856143,-0.05385 h 1.8359343 l -0.02133,0.0203 v 1.87069 1.870693 l -0.427571,-1.5e-5 c -0.253206,-0.05421 -0.588364,-0.0019 -0.7783303,0.05055 z m -1.483989,-0.687668 v -0.212418 l 0.158227,-0.0047 c 0.08703,-0.0026 0.181492,-0.0015 0.209925,0.0024 0.02843,0.004 0.04858,-0.01672 0.04476,-0.04577 -0.0038,-0.02907 -0.0048,-0.144347 -0.0023,-0.256165 l 0.0047,-0.203303 0.153186,0.01503 0.153184,0.01485 0.02638,-0.179861 c 0.02425,-0.165316 0.03442,-0.178281 0.125887,-0.160412 0.07205,0.01409 0.0977,0.04314 0.09296,0.10532 -0.01525,0.199909 -2.53e-4,0.237521 0.08557,0.214575 0.135915,-0.03634 0.279353,0.04006 0.271093,0.144403 -0.004,0.05 -0.0052,0.150059 -0.0028,0.222363 0.0043,0.129992 0.0065,0.131456 0.200096,0.131456 h 0.1957173 l 0.01197,0.212347 0.01197,0.212348 0.286787,0.01183 0.286788,0.01183 v -0.264677 -0.264679 l -0.207674,5.6e-5 -0.207673,5.5e-5 0.01355,-0.222514 0.01355,-0.222515 h -0.181687 -0.1816663 v -0.179897 -0.179898 l -0.207674,-0.01222 c -0.20252,-0.01184 -0.207982,-0.01541 -0.220069,-0.14367 -0.01026,-0.10904 0.0012,-0.131455 0.06736,-0.131455 0.04387,0 0.124975,0.02107 0.180237,0.04681 0.09213,0.04293 0.118222,0.03033 0.3140493,-0.151675 0.213327,-0.198258 0.213575,-0.198774 0.217838,-0.451279 l 0.0043,-0.25279 h 0.197783 0.197784 V 26.782185 26.51928 h -0.296677 -0.296677 v 0.222457 c 0,0.219089 -0.0018,0.222537 -0.118672,0.227516 -0.06527,0.0028 -0.1364703,0.0096 -0.1582273,0.01522 -0.02176,0.0056 -0.06228,0.0124 -0.09005,0.01522 -0.0343,0.0034 -0.04577,0.05567 -0.03577,0.162968 0.01853,0.198756 -0.08836,0.328497 -0.245372,0.297806 -0.09807,-0.01917 -0.103498,-0.01147 -0.103498,0.146264 0,0.116763 -0.01676,0.1665 -0.0561,0.1665 -0.03085,0 -0.08426,0.01109 -0.118672,0.02456 -0.0514,0.02016 -0.06257,-0.0083 -0.06257,-0.159455 v -0.184012 l -0.165489,-0.0124 c -0.165301,-0.0124 -0.165497,-0.01259 -0.17165,-0.184332 -0.01018,-0.284048 -0.0077,-0.279982 -0.167211,-0.272983 -0.22592,0.01 -0.235526,-9.58e-4 -0.215784,-0.244388 l 0.0179,-0.220787 h -0.323824 -0.32382 l 0.01235,0.252795 -0.0083,0.222519 c -0.0072,0.193936 0.467023,0.0807 0.435432,0.131382 -0.0208,0.03337 -0.03808,0.128919 -0.03841,0.212347 l -6.15e-4,0.151675 h 0.175731 0.175731 l 0.01216,0.171893 0.01216,0.171893 0.207674,0.01222 0.207674,0.01222 v 0.139461 0.139443 h -0.221547 -0.221546 l 0.01414,0.182002 0.01414,0.182021 -0.138734,6.29e-4 c -0.2116,9.58e-4 -0.246994,0.0413 -0.22505,0.25663 l 0.01913,0.187658 h -0.189244 c -0.162814,0 -0.192575,0.01278 -0.213096,0.091 -0.0328,0.125161 -0.03097,0.374703 0.003,0.409444 0.01536,0.01578 0.153323,0.0233 0.306566,0.01691 l 0.278627,-0.01165 z m -0.929587,0.637113 c -0.05071,-0.0335 -0.04927,-0.03929 0.0099,-0.03983 0.03807,-3.44e-4 0.06922,0.01766 0.06922,0.03983 0,0.04932 -0.0045,0.04932 -0.07911,0 z"
           id="path483" /><path
           style="fill:#9b897c;fill-opacity:1;stroke-width:0.288098"
           d="m -7.7267268,37.893152 1.885e-4,-1.907765 -0.01086,-1.907777 c 0,0 0.102028,-0.02695 0.598562,0.01246 0.496534,0.03936 1.283704,0.01036 1.985394,0.01782 1.009561,0.01054 1.010096,0.03106 1.060489,0.09352 0.244281,0.302795 0.126088,1.318168 0.125727,1.952236 -0.01162,1.433183 -0.0029,1.627135 -0.0024,1.738759 l -1.883873,0.01073 -1.2872607,0.01073 m 1.4809247,-0.783786 v -0.35062 h 0.20529 0.20529 l -0.01366,-0.244514 -0.01366,-0.244515 0.252966,-0.01321 c 0.139131,-0.0073 0.266206,-0.0086 0.28239,-0.0031 0.01618,0.0055 0.02395,0.279424 0.01726,0.608427 l -0.01217,0.598219 h 0.244121 0.244122 v -1.443735 -1.443725 h -0.252266 -0.252267 l 0.0068,0.48468 c 0.01008,0.718556 0.01997,0.693736 -0.269667,0.676949 l -0.241127,-0.01399 v -0.24383 -0.243831 h -0.202525 -0.202519 l 0.01473,-0.329995 0.01473,-0.329992 h -0.255966 -0.255967 v 0.572806 0.572808 l -0.128887,0.01934 c -0.219154,0.03288 -0.269014,-5.61e-4 -0.282494,-0.18954 l -0.0122,-0.17107 h -0.443763 -0.443756 l -0.0067,0.123753 c -0.0037,0.06807 0.0035,0.351134 0.01599,0.629051 l 0.02272,0.505304 h 0.358445 c 0.251575,0 0.363076,0.01533 0.373979,0.05156 0.0085,0.02836 0.02597,0.100566 0.03873,0.16045 0.01276,0.05988 0.421411,0.102004 0.459289,0.08125 0.06159,-0.03376 0.06792,-0.01302 0.05989,0.195429 -0.01263,0.32787 -0.0064,0.336304 0.249767,0.336304 h 0.223143 z"
           id="path484" /><path
           style="fill:#9b897c;fill-opacity:1;stroke-width:0.288098"
           d="m -7.7267268,21.791284 1.885e-4,-1.907765 -0.01086,-1.907777 c 0,0 0.102028,-0.02695 0.598562,0.01246 0.496534,0.03936 1.283704,0.01036 1.985394,0.01782 1.009561,0.01054 1.010096,0.03106 1.060489,0.09352 0.244281,0.302795 0.126088,1.318168 0.125727,1.952236 -0.01162,1.433183 -0.0029,1.627135 -0.0024,1.738759 l -1.883873,0.01073 -1.2872607,0.01073 m 1.4809247,-0.783786 v -0.35062 h 0.20529 0.20529 l -0.01366,-0.244514 -0.01366,-0.244515 0.252966,-0.01321 c 0.139131,-0.0073 0.266206,-0.0086 0.28239,-0.0031 0.01618,0.0055 0.02395,0.279424 0.01726,0.608427 l -0.01217,0.598219 h 0.244121 0.244122 v -1.443735 -1.443725 h -0.252266 -0.252267 l 0.0068,0.48468 c 0.01008,0.718556 0.01997,0.693736 -0.269667,0.676949 l -0.241127,-0.01399 v -0.24383 -0.243831 h -0.202525 -0.202519 l 0.01473,-0.329995 0.01473,-0.329992 h -0.255966 -0.255967 v 0.572806 0.572808 l -0.128887,0.01934 c -0.219154,0.03288 -0.269014,-5.61e-4 -0.282494,-0.18954 l -0.0122,-0.17107 h -0.443763 -0.443756 l -0.0067,0.123753 c -0.0037,0.06807 0.0035,0.351134 0.01599,0.629051 l 0.02272,0.505304 h 0.358445 c 0.251575,0 0.363076,0.01533 0.373979,0.05156 0.0085,0.02836 0.02597,0.100566 0.03873,0.16045 0.01276,0.05988 0.421411,0.102004 0.459289,0.08125 0.06159,-0.03376 0.06792,-0.01302 0.05989,0.195429 -0.01263,0.32787 -0.0064,0.336304 0.249767,0.336304 h 0.223143 z"
           id="path485" /></g><g
         id="g486"
         transform="matrix(0.80879097,0,0,1.0163426,2.6253237,-38.060443)"
         style="fill:#9b897c;fill-opacity:1"><path
           style="fill:#9b897c;fill-opacity:1;stroke-width:0.331512"
           d="m -6.3082009,33.229434 v -0.38228 H -6.765299 -7.2223975 l 0.00706,-0.24211 c 0.015664,-0.53814 0.021524,-0.522448 -0.1951622,-0.522448 H -7.6050335 V 31.85324 31.623861 l 0.2053328,8.8e-5 0.2053329,8.8e-5 v -0.369625 -0.369627 l 0.4430862,-0.01446 0.4430866,-0.01446 V 30.47534 30.094846 h 0.4755075 0.4755078 v 0.382278 0.38228 h 0.4538925 0.453894 v 0.38228 0.38228 h 0.194518 0.194525 v 0.229379 0.229356 h -0.194521 -0.194526 v 0.382279 0.382279 h -0.4538931 -0.4538933 v 0.382281 0.382277 h -0.4755081 -0.4755074 z m 0.6828158,-0.751817 0.012792,-0.344052 h 0.2527673 c 0.2824765,0 0.3052454,-0.02692 0.3052454,-0.360961 v -0.19971 h -0.2809819 -0.2809819 v -0.325638 -0.325634 l -0.1454955,-0.03218 c -0.080022,-0.01774 -0.1804761,-0.01632 -0.2232311,0.0031 -0.023912,0.01682 -0.018917,0.09375 -0.042868,0.212379 -0.00774,0.04721 -0.015544,0.169706 -0.017371,0.272246 l -0.00331,0.186426 -0.2410264,0.01753 c -0.1325643,0.0097 -0.270448,-0.002 -0.3064079,-0.02581 -0.054586,-0.03613 -0.057615,-0.02616 -0.018336,0.06035 0.025872,0.05699 0.047041,0.184981 0.047041,0.284416 0,0.151333 0.017974,0.186095 0.1104176,0.213444 0.060729,0.018 0.1774438,0.01989 0.2593676,0.0043 l 0.1489513,-0.02851 v 0.349342 c 0,0.383528 0.016909,0.409163 0.2593674,0.393252 l 0.1512968,-0.0099 z m -1.0293011,-0.739074 c -0.00152,-0.08795 -0.079786,-0.176055 -0.1262885,-0.14217 -0.038009,0.0277 -0.037896,0.05398 4.58e-4,0.108475 0.054229,0.07705 0.1269151,0.09652 0.1258305,0.0337 z m -0.042565,-0.242109 c 0,-0.01397 -0.00972,-0.02548 -0.021615,-0.02548 -0.011888,0 -0.021615,0.01136 -0.021615,0.02548 0,0.01397 0.00972,0.02548 0.021615,0.02548 0.011888,0 0.021615,-0.01135 0.021615,-0.02548 z"
           id="path486" /></g></g><g
       id="g494"
       transform="matrix(-1.6362044,0,0,1.0690975,19.887981,-0.9551088)"
       style="fill:#9b897c;fill-opacity:1"><g
         id="g488"
         transform="matrix(0.8293026,0,0,1,2.7192971,-13.663379)"
         style="fill:#9b897c;fill-opacity:1"><path
           style="fill:#9b897c;fill-opacity:1;stroke-width:0.282496"
           d="m -5.1667686,29.926985 c -4.75e-4,-0.03927 -0.256264,-0.05057 -1.145422,-0.05057 -0.72054,0 -1.153875,-0.01503 -1.169262,-0.04046 -0.01345,-0.02225 -0.05891,-0.04046 -0.101031,-0.04046 -0.07464,0 -0.07649,-0.04536 -0.07298,-1.786493 0.002,-0.982572 0.0127,-1.810725 0.02382,-1.840341 0.01643,-0.04376 0.36408,-0.05385 1.856143,-0.05385 h 1.8359343 l -0.02133,0.0203 v 1.87069 1.870693 l -0.427571,-1.5e-5 c -0.253206,-0.05421 -0.588364,-0.0019 -0.7783303,0.05055 z m -1.483989,-0.687668 v -0.212418 l 0.158227,-0.0047 c 0.08703,-0.0026 0.181492,-0.0015 0.209925,0.0024 0.02843,0.004 0.04858,-0.01672 0.04476,-0.04577 -0.0038,-0.02907 -0.0048,-0.144347 -0.0023,-0.256165 l 0.0047,-0.203303 0.153186,0.01503 0.153184,0.01485 0.02638,-0.179861 c 0.02425,-0.165316 0.03442,-0.178281 0.125887,-0.160412 0.07205,0.01409 0.0977,0.04314 0.09296,0.10532 -0.01525,0.199909 -2.53e-4,0.237521 0.08557,0.214575 0.135915,-0.03634 0.279353,0.04006 0.271093,0.144403 -0.004,0.05 -0.0052,0.150059 -0.0028,0.222363 0.0043,0.129992 0.0065,0.131456 0.200096,0.131456 h 0.1957173 l 0.01197,0.212347 0.01197,0.212348 0.286787,0.01183 0.286788,0.01183 v -0.264677 -0.264679 l -0.207674,5.6e-5 -0.207673,5.5e-5 0.01355,-0.222514 0.01355,-0.222515 h -0.181687 -0.1816663 v -0.179897 -0.179898 l -0.207674,-0.01222 c -0.20252,-0.01184 -0.207982,-0.01541 -0.220069,-0.14367 -0.01026,-0.10904 0.0012,-0.131455 0.06736,-0.131455 0.04387,0 0.124975,0.02107 0.180237,0.04681 0.09213,0.04293 0.118222,0.03033 0.3140493,-0.151675 0.213327,-0.198258 0.213575,-0.198774 0.217838,-0.451279 l 0.0043,-0.25279 h 0.197783 0.197784 V 26.782185 26.51928 h -0.296677 -0.296677 v 0.222457 c 0,0.219089 -0.0018,0.222537 -0.118672,0.227516 -0.06527,0.0028 -0.1364703,0.0096 -0.1582273,0.01522 -0.02176,0.0056 -0.06228,0.0124 -0.09005,0.01522 -0.0343,0.0034 -0.04577,0.05567 -0.03577,0.162968 0.01853,0.198756 -0.08836,0.328497 -0.245372,0.297806 -0.09807,-0.01917 -0.103498,-0.01147 -0.103498,0.146264 0,0.116763 -0.01676,0.1665 -0.0561,0.1665 -0.03085,0 -0.08426,0.01109 -0.118672,0.02456 -0.0514,0.02016 -0.06257,-0.0083 -0.06257,-0.159455 v -0.184012 l -0.165489,-0.0124 c -0.165301,-0.0124 -0.165497,-0.01259 -0.17165,-0.184332 -0.01018,-0.284048 -0.0077,-0.279982 -0.167211,-0.272983 -0.22592,0.01 -0.235526,-9.58e-4 -0.215784,-0.244388 l 0.0179,-0.220787 h -0.323824 -0.32382 l 0.01235,0.252795 -0.0083,0.222519 c -0.0072,0.193936 0.467023,0.0807 0.435432,0.131382 -0.0208,0.03337 -0.03808,0.128919 -0.03841,0.212347 l -6.15e-4,0.151675 h 0.175731 0.175731 l 0.01216,0.171893 0.01216,0.171893 0.207674,0.01222 0.207674,0.01222 v 0.139461 0.139443 h -0.221547 -0.221546 l 0.01414,0.182002 0.01414,0.182021 -0.138734,6.29e-4 c -0.2116,9.58e-4 -0.246994,0.0413 -0.22505,0.25663 l 0.01913,0.187658 h -0.189244 c -0.162814,0 -0.192575,0.01278 -0.213096,0.091 -0.0328,0.125161 -0.03097,0.374703 0.003,0.409444 0.01536,0.01578 0.153323,0.0233 0.306566,0.01691 l 0.278627,-0.01165 z m -0.929587,0.637113 c -0.05071,-0.0335 -0.04927,-0.03929 0.0099,-0.03983 0.03807,-3.44e-4 0.06922,0.01766 0.06922,0.03983 0,0.04932 -0.0045,0.04932 -0.07911,0 z"
           id="path487" /></g><g
         id="g489"
         transform="matrix(0.8293026,0,0,1,2.7192971,-21.663379)"
         style="fill:#9b897c;fill-opacity:1"><path
           style="fill:#9b897c;fill-opacity:1;stroke-width:0.331512"
           d="m -6.3082009,33.229434 v -0.38228 H -6.765299 -7.2223975 l 0.00706,-0.24211 c 0.015664,-0.53814 0.021524,-0.522448 -0.1951622,-0.522448 H -7.6050335 V 31.85324 31.623861 l 0.2053328,8.8e-5 0.2053329,8.8e-5 v -0.369625 -0.369627 l 0.4430862,-0.01446 0.4430866,-0.01446 V 30.47534 30.094846 h 0.4755075 0.4755078 v 0.382278 0.38228 h 0.4538925 0.453894 v 0.38228 0.38228 h 0.194518 0.194525 v 0.229379 0.229356 h -0.194521 -0.194526 v 0.382279 0.382279 h -0.4538931 -0.4538933 v 0.382281 0.382277 h -0.4755081 -0.4755074 z m 0.6828158,-0.751817 0.012792,-0.344052 h 0.2527673 c 0.2824765,0 0.3052454,-0.02692 0.3052454,-0.360961 v -0.19971 h -0.2809819 -0.2809819 v -0.325638 -0.325634 l -0.1454955,-0.03218 c -0.080022,-0.01774 -0.1804761,-0.01632 -0.2232311,0.0031 -0.023912,0.01682 -0.018917,0.09375 -0.042868,0.212379 -0.00774,0.04721 -0.015544,0.169706 -0.017371,0.272246 l -0.00331,0.186426 -0.2410264,0.01753 c -0.1325643,0.0097 -0.270448,-0.002 -0.3064079,-0.02581 -0.054586,-0.03613 -0.057615,-0.02616 -0.018336,0.06035 0.025872,0.05699 0.047041,0.184981 0.047041,0.284416 0,0.151333 0.017974,0.186095 0.1104176,0.213444 0.060729,0.018 0.1774438,0.01989 0.2593676,0.0043 l 0.1489513,-0.02851 v 0.349342 c 0,0.383528 0.016909,0.409163 0.2593674,0.393252 l 0.1512968,-0.0099 z m -1.0293011,-0.739074 c -0.00152,-0.08795 -0.079786,-0.176055 -0.1262885,-0.14217 -0.038009,0.0277 -0.037896,0.05398 4.58e-4,0.108475 0.054229,0.07705 0.1269151,0.09652 0.1258305,0.0337 z m -0.042565,-0.242109 c 0,-0.01397 -0.00972,-0.02548 -0.021615,-0.02548 -0.011888,0 -0.021615,0.01136 -0.021615,0.02548 0,0.01397 0.00972,0.02548 0.021615,0.02548 0.011888,0 0.021615,-0.01135 0.021615,-0.02548 z"
           id="path488" /><path
           style="fill:#9b897c;fill-opacity:1;stroke-width:0.288098"
           d="m -7.5538221,25.171134 c 0,-0.280264 0.01681,-0.442066 0.04942,-0.475398 0.03899,-0.03988 0.03828,-0.06878 -0.0034,-0.137015 -0.0399,-0.06533 -0.05232,-0.32997 -0.05076,-1.081762 0.0011,-0.547404 0.0027,-1.009199 0.0034,-1.026216 7.16e-4,-0.01705 0.382567,-0.03093 0.848511,-0.03093 h 0.8471692 v 1.361225 1.361227 h 0.136257 c 0.148759,0 0.272044,-0.09718 0.172724,-0.136153 -0.04071,-0.01591 -0.05807,-0.113712 -0.06311,-0.355435 l -0.0069,-0.333404 h 0.122595 c 0.12022,0 0.122596,-0.004 0.122596,-0.206247 0,-0.201662 0.0027,-0.206246 0.121025,-0.206246 h 0.121026 v -0.247493 -0.247496 h 0.141194 0.1411961 v -0.203507 c 0,-0.191342 0.0067,-0.204286 0.110939,-0.216558 0.108477,-0.01284 0.111202,-0.01974 0.122842,-0.314669 0.01188,-0.300964 0.01215,-0.301589 0.121026,-0.288744 l 0.109122,0.01283 0.01057,1.577782 0.01057,1.577784 H -5.2336419 -6.1014624 V 24.19349 22.832264 h -0.1210247 -0.121026 v 0.412494 0.412491 h -0.121026 c -0.116542,0 -0.121026,0.0069 -0.121026,0.185612 0,0.178751 -0.0045,0.185631 -0.121025,0.185631 h -0.121026 v 0.26812 0.268121 l -0.131111,-2.6e-5 -0.131108,-2.6e-5 0.01379,0.203377 0.01379,0.203375 -0.134813,0.01321 -0.134813,0.01321 -0.01184,0.299056 c -0.01135,0.286783 -0.01593,0.299057 -0.11094,0.299057 -0.09881,0 -0.09909,-0.0012 -0.09909,-0.424867 z m 2.9237783,-0.777967 0.01528,-0.728468 -0.128175,0.0067 c -0.126053,0.0065 -0.128176,0.01 -0.128176,0.212853 0,0.194332 -0.0064,0.206999 -0.1109391,0.219298 -0.06349,0.0075 -0.110939,0.03834 -0.110939,0.07219 0,0.109286 -0.0046,0.120727 -0.08349,0.206567 -0.113217,0.123217 -0.03637,0.104533 -0.0781,0.134485 -0.0453,0.03252 -0.163086,0.0069 -0.163086,0.03197 -0.01349,0.117928 -0.01437,0.262014 -0.01567,0.307541 0.112423,0.01514 0.195769,-0.03641 0.05795,0.186532 v 0.102618 l 0.365033,-0.01189 0.3650321,-0.01188 z m -2.4565953,-0.302763 c 0.0032,-0.200574 0.0068,-0.206601 0.131109,-0.219172 0.124175,-0.01246 0.127854,-0.01859 0.127854,-0.212045 0,-0.196725 0.0017,-0.199323 0.140707,-0.215916 0.06297,0.01457 0.129022,0.005 0.193535,0.0077 -0.06444,-0.07598 -0.09085,-0.168614 -0.09997,-0.35062 l -0.01239,-0.247351 -0.352987,-0.01188 -0.352988,-0.01189 v 0.746833 0.746832 l 0.110939,-0.01302 c 0.104015,-0.01226 0.111143,-0.02593 0.114194,-0.219299 z"
           id="path489" /></g><g
         id="g491"
         transform="matrix(0.8293026,0,0,1,2.6674658,-29.725879)"
         style="fill:#9b897c;fill-opacity:1"><path
           style="fill:#9b897c;fill-opacity:1;stroke-width:0.282496"
           d="m -5.1667686,29.926985 c -4.75e-4,-0.03927 -0.256264,-0.05057 -1.145422,-0.05057 -0.72054,0 -1.153875,-0.01503 -1.169262,-0.04046 -0.01345,-0.02225 -0.05891,-0.04046 -0.101031,-0.04046 -0.07464,0 -0.07649,-0.04536 -0.07298,-1.786493 0.002,-0.982572 0.0127,-1.810725 0.02382,-1.840341 0.01643,-0.04376 0.36408,-0.05385 1.856143,-0.05385 h 1.8359343 l -0.02133,0.0203 v 1.87069 1.870693 l -0.427571,-1.5e-5 c -0.253206,-0.05421 -0.588364,-0.0019 -0.7783303,0.05055 z m -1.483989,-0.687668 v -0.212418 l 0.158227,-0.0047 c 0.08703,-0.0026 0.181492,-0.0015 0.209925,0.0024 0.02843,0.004 0.04858,-0.01672 0.04476,-0.04577 -0.0038,-0.02907 -0.0048,-0.144347 -0.0023,-0.256165 l 0.0047,-0.203303 0.153186,0.01503 0.153184,0.01485 0.02638,-0.179861 c 0.02425,-0.165316 0.03442,-0.178281 0.125887,-0.160412 0.07205,0.01409 0.0977,0.04314 0.09296,0.10532 -0.01525,0.199909 -2.53e-4,0.237521 0.08557,0.214575 0.135915,-0.03634 0.279353,0.04006 0.271093,0.144403 -0.004,0.05 -0.0052,0.150059 -0.0028,0.222363 0.0043,0.129992 0.0065,0.131456 0.200096,0.131456 h 0.1957173 l 0.01197,0.212347 0.01197,0.212348 0.286787,0.01183 0.286788,0.01183 v -0.264677 -0.264679 l -0.207674,5.6e-5 -0.207673,5.5e-5 0.01355,-0.222514 0.01355,-0.222515 h -0.181687 -0.1816663 v -0.179897 -0.179898 l -0.207674,-0.01222 c -0.20252,-0.01184 -0.207982,-0.01541 -0.220069,-0.14367 -0.01026,-0.10904 0.0012,-0.131455 0.06736,-0.131455 0.04387,0 0.124975,0.02107 0.180237,0.04681 0.09213,0.04293 0.118222,0.03033 0.3140493,-0.151675 0.213327,-0.198258 0.213575,-0.198774 0.217838,-0.451279 l 0.0043,-0.25279 h 0.197783 0.197784 V 26.782185 26.51928 h -0.296677 -0.296677 v 0.222457 c 0,0.219089 -0.0018,0.222537 -0.118672,0.227516 -0.06527,0.0028 -0.1364703,0.0096 -0.1582273,0.01522 -0.02176,0.0056 -0.06228,0.0124 -0.09005,0.01522 -0.0343,0.0034 -0.04577,0.05567 -0.03577,0.162968 0.01853,0.198756 -0.08836,0.328497 -0.245372,0.297806 -0.09807,-0.01917 -0.103498,-0.01147 -0.103498,0.146264 0,0.116763 -0.01676,0.1665 -0.0561,0.1665 -0.03085,0 -0.08426,0.01109 -0.118672,0.02456 -0.0514,0.02016 -0.06257,-0.0083 -0.06257,-0.159455 v -0.184012 l -0.165489,-0.0124 c -0.165301,-0.0124 -0.165497,-0.01259 -0.17165,-0.184332 -0.01018,-0.284048 -0.0077,-0.279982 -0.167211,-0.272983 -0.22592,0.01 -0.235526,-9.58e-4 -0.215784,-0.244388 l 0.0179,-0.220787 h -0.323824 -0.32382 l 0.01235,0.252795 -0.0083,0.222519 c -0.0072,0.193936 0.467023,0.0807 0.435432,0.131382 -0.0208,0.03337 -0.03808,0.128919 -0.03841,0.212347 l -6.15e-4,0.151675 h 0.175731 0.175731 l 0.01216,0.171893 0.01216,0.171893 0.207674,0.01222 0.207674,0.01222 v 0.139461 0.139443 h -0.221547 -0.221546 l 0.01414,0.182002 0.01414,0.182021 -0.138734,6.29e-4 c -0.2116,9.58e-4 -0.246994,0.0413 -0.22505,0.25663 l 0.01913,0.187658 h -0.189244 c -0.162814,0 -0.192575,0.01278 -0.213096,0.091 -0.0328,0.125161 -0.03097,0.374703 0.003,0.409444 0.01536,0.01578 0.153323,0.0233 0.306566,0.01691 l 0.278627,-0.01165 z m -0.929587,0.637113 c -0.05071,-0.0335 -0.04927,-0.03929 0.0099,-0.03983 0.03807,-3.44e-4 0.06922,0.01766 0.06922,0.03983 0,0.04932 -0.0045,0.04932 -0.07911,0 z"
           id="path490" /><path
           style="fill:#9b897c;fill-opacity:1;stroke-width:0.288098"
           d="m -7.7267268,37.893152 1.885e-4,-1.907765 -0.01086,-1.907777 c 0,0 0.102028,-0.02695 0.598562,0.01246 0.496534,0.03936 1.283704,0.01036 1.985394,0.01782 1.009561,0.01054 1.010096,0.03106 1.060489,0.09352 0.244281,0.302795 0.126088,1.318168 0.125727,1.952236 -0.01162,1.433183 -0.0029,1.627135 -0.0024,1.738759 l -1.883873,0.01073 -1.2872607,0.01073 m 1.4809247,-0.783786 v -0.35062 h 0.20529 0.20529 l -0.01366,-0.244514 -0.01366,-0.244515 0.252966,-0.01321 c 0.139131,-0.0073 0.266206,-0.0086 0.28239,-0.0031 0.01618,0.0055 0.02395,0.279424 0.01726,0.608427 l -0.01217,0.598219 h 0.244121 0.244122 v -1.443735 -1.443725 h -0.252266 -0.252267 l 0.0068,0.48468 c 0.01008,0.718556 0.01997,0.693736 -0.269667,0.676949 l -0.241127,-0.01399 v -0.24383 -0.243831 h -0.202525 -0.202519 l 0.01473,-0.329995 0.01473,-0.329992 h -0.255966 -0.255967 v 0.572806 0.572808 l -0.128887,0.01934 c -0.219154,0.03288 -0.269014,-5.61e-4 -0.282494,-0.18954 l -0.0122,-0.17107 h -0.443763 -0.443756 l -0.0067,0.123753 c -0.0037,0.06807 0.0035,0.351134 0.01599,0.629051 l 0.02272,0.505304 h 0.358445 c 0.251575,0 0.363076,0.01533 0.373979,0.05156 0.0085,0.02836 0.02597,0.100566 0.03873,0.16045 0.01276,0.05988 0.421411,0.102004 0.459289,0.08125 0.06159,-0.03376 0.06792,-0.01302 0.05989,0.195429 -0.01263,0.32787 -0.0064,0.336304 0.249767,0.336304 h 0.223143 z"
           id="path491" /></g><g
         id="g492"
         transform="matrix(0.65458173,0,0,0.86373137,1.8123132,-32.871266)"
         style="fill:#9b897c;fill-opacity:1"><path
           style="fill:#9b897c;fill-opacity:1;stroke-width:0.331512"
           d="m -6.3082009,33.229434 v -0.38228 H -6.765299 -7.2223975 l 0.00706,-0.24211 c 0.015664,-0.53814 0.021524,-0.522448 -0.1951622,-0.522448 H -7.6050335 V 31.85324 31.623861 l 0.2053328,8.8e-5 0.2053329,8.8e-5 v -0.369625 -0.369627 l 0.4430862,-0.01446 0.4430866,-0.01446 V 30.47534 30.094846 h 0.4755075 0.4755078 v 0.382278 0.38228 h 0.4538925 0.453894 v 0.38228 0.38228 h 0.194518 0.194525 v 0.229379 0.229356 h -0.194521 -0.194526 v 0.382279 0.382279 h -0.4538931 -0.4538933 v 0.382281 0.382277 h -0.4755081 -0.4755074 z m 0.6828158,-0.751817 0.012792,-0.344052 h 0.2527673 c 0.2824765,0 0.3052454,-0.02692 0.3052454,-0.360961 v -0.19971 h -0.2809819 -0.2809819 v -0.325638 -0.325634 l -0.1454955,-0.03218 c -0.080022,-0.01774 -0.1804761,-0.01632 -0.2232311,0.0031 -0.023912,0.01682 -0.018917,0.09375 -0.042868,0.212379 -0.00774,0.04721 -0.015544,0.169706 -0.017371,0.272246 l -0.00331,0.186426 -0.2410264,0.01753 c -0.1325643,0.0097 -0.270448,-0.002 -0.3064079,-0.02581 -0.054586,-0.03613 -0.057615,-0.02616 -0.018336,0.06035 0.025872,0.05699 0.047041,0.184981 0.047041,0.284416 0,0.151333 0.017974,0.186095 0.1104176,0.213444 0.060729,0.018 0.1774438,0.01989 0.2593676,0.0043 l 0.1489513,-0.02851 v 0.349342 c 0,0.383528 0.016909,0.409163 0.2593674,0.393252 l 0.1512968,-0.0099 z m -1.0293011,-0.739074 c -0.00152,-0.08795 -0.079786,-0.176055 -0.1262885,-0.14217 -0.038009,0.0277 -0.037896,0.05398 4.58e-4,0.108475 0.054229,0.07705 0.1269151,0.09652 0.1258305,0.0337 z m -0.042565,-0.242109 c 0,-0.01397 -0.00972,-0.02548 -0.021615,-0.02548 -0.011888,0 -0.021615,0.01136 -0.021615,0.02548 0,0.01397 0.00972,0.02548 0.021615,0.02548 0.011888,0 0.021615,-0.01135 0.021615,-0.02548 z"
           id="path492" /></g><g
         id="g493"
         transform="matrix(0.73680333,0,0,0.93186568,2.4011799,-11.51826)"
         style="fill:#9b897c;fill-opacity:1"><path
           style="fill:#9b897c;fill-opacity:1;stroke-width:0.331512"
           d="m -6.3082009,33.229434 v -0.38228 H -6.765299 -7.2223975 l 0.00706,-0.24211 c 0.015664,-0.53814 0.021524,-0.522448 -0.1951622,-0.522448 H -7.6050335 V 31.85324 31.623861 l 0.2053328,8.8e-5 0.2053329,8.8e-5 v -0.369625 -0.369627 l 0.4430862,-0.01446 0.4430866,-0.01446 V 30.47534 30.094846 h 0.4755075 0.4755078 v 0.382278 0.38228 h 0.4538925 0.453894 v 0.38228 0.38228 h 0.194518 0.194525 v 0.229379 0.229356 h -0.194521 -0.194526 v 0.382279 0.382279 h -0.4538931 -0.4538933 v 0.382281 0.382277 h -0.4755081 -0.4755074 z m 0.6828158,-0.751817 0.012792,-0.344052 h 0.2527673 c 0.2824765,0 0.3052454,-0.02692 0.3052454,-0.360961 v -0.19971 h -0.2809819 -0.2809819 v -0.325638 -0.325634 l -0.1454955,-0.03218 c -0.080022,-0.01774 -0.1804761,-0.01632 -0.2232311,0.0031 -0.023912,0.01682 -0.018917,0.09375 -0.042868,0.212379 -0.00774,0.04721 -0.015544,0.169706 -0.017371,0.272246 l -0.00331,0.186426 -0.2410264,0.01753 c -0.1325643,0.0097 -0.270448,-0.002 -0.3064079,-0.02581 -0.054586,-0.03613 -0.057615,-0.02616 -0.018336,0.06035 0.025872,0.05699 0.047041,0.184981 0.047041,0.284416 0,0.151333 0.017974,0.186095 0.1104176,0.213444 0.060729,0.018 0.1774438,0.01989 0.2593676,0.0043 l 0.1489513,-0.02851 v 0.349342 c 0,0.383528 0.016909,0.409163 0.2593674,0.393252 l 0.1512968,-0.0099 z m -1.0293011,-0.739074 c -0.00152,-0.08795 -0.079786,-0.176055 -0.1262885,-0.14217 -0.038009,0.0277 -0.037896,0.05398 4.58e-4,0.108475 0.054229,0.07705 0.1269151,0.09652 0.1258305,0.0337 z m -0.042565,-0.242109 c 0,-0.01397 -0.00972,-0.02548 -0.021615,-0.02548 -0.011888,0 -0.021615,0.01136 -0.021615,0.02548 0,0.01397 0.00972,0.02548 0.021615,0.02548 0.011888,0 0.021615,-0.01135 0.021615,-0.02548 z"
           id="path493" /></g></g><g
       id="g501"
       transform="matrix(1.7021962,0,0,1.0770092,8.6952966,3.3033452)"
       style="fill:#9b897c;fill-opacity:1"><g
         id="g495"
         transform="matrix(0.8293026,0,0,1,2.7192971,-13.663379)"
         style="fill:#9b897c;fill-opacity:1"><path
           style="fill:#9b897c;fill-opacity:1;stroke-width:0.282496"
           d="m -5.1667686,29.926985 c -4.75e-4,-0.03927 -0.256264,-0.05057 -1.145422,-0.05057 -0.72054,0 -1.153875,-0.01503 -1.169262,-0.04046 -0.01345,-0.02225 -0.05891,-0.04046 -0.101031,-0.04046 -0.07464,0 -0.07649,-0.04536 -0.07298,-1.786493 0.002,-0.982572 0.0127,-1.810725 0.02382,-1.840341 0.01643,-0.04376 0.36408,-0.05385 1.856143,-0.05385 h 1.8359343 l -0.02133,0.0203 v 1.87069 1.870693 l -0.427571,-1.5e-5 c -0.253206,-0.05421 -0.588364,-0.0019 -0.7783303,0.05055 z m -1.483989,-0.687668 v -0.212418 l 0.158227,-0.0047 c 0.08703,-0.0026 0.181492,-0.0015 0.209925,0.0024 0.02843,0.004 0.04858,-0.01672 0.04476,-0.04577 -0.0038,-0.02907 -0.0048,-0.144347 -0.0023,-0.256165 l 0.0047,-0.203303 0.153186,0.01503 0.153184,0.01485 0.02638,-0.179861 c 0.02425,-0.165316 0.03442,-0.178281 0.125887,-0.160412 0.07205,0.01409 0.0977,0.04314 0.09296,0.10532 -0.01525,0.199909 -2.53e-4,0.237521 0.08557,0.214575 0.135915,-0.03634 0.279353,0.04006 0.271093,0.144403 -0.004,0.05 -0.0052,0.150059 -0.0028,0.222363 0.0043,0.129992 0.0065,0.131456 0.200096,0.131456 h 0.1957173 l 0.01197,0.212347 0.01197,0.212348 0.286787,0.01183 0.286788,0.01183 v -0.264677 -0.264679 l -0.207674,5.6e-5 -0.207673,5.5e-5 0.01355,-0.222514 0.01355,-0.222515 h -0.181687 -0.1816663 v -0.179897 -0.179898 l -0.207674,-0.01222 c -0.20252,-0.01184 -0.207982,-0.01541 -0.220069,-0.14367 -0.01026,-0.10904 0.0012,-0.131455 0.06736,-0.131455 0.04387,0 0.124975,0.02107 0.180237,0.04681 0.09213,0.04293 0.118222,0.03033 0.3140493,-0.151675 0.213327,-0.198258 0.213575,-0.198774 0.217838,-0.451279 l 0.0043,-0.25279 h 0.197783 0.197784 V 26.782185 26.51928 h -0.296677 -0.296677 v 0.222457 c 0,0.219089 -0.0018,0.222537 -0.118672,0.227516 -0.06527,0.0028 -0.1364703,0.0096 -0.1582273,0.01522 -0.02176,0.0056 -0.06228,0.0124 -0.09005,0.01522 -0.0343,0.0034 -0.04577,0.05567 -0.03577,0.162968 0.01853,0.198756 -0.08836,0.328497 -0.245372,0.297806 -0.09807,-0.01917 -0.103498,-0.01147 -0.103498,0.146264 0,0.116763 -0.01676,0.1665 -0.0561,0.1665 -0.03085,0 -0.08426,0.01109 -0.118672,0.02456 -0.0514,0.02016 -0.06257,-0.0083 -0.06257,-0.159455 v -0.184012 l -0.165489,-0.0124 c -0.165301,-0.0124 -0.165497,-0.01259 -0.17165,-0.184332 -0.01018,-0.284048 -0.0077,-0.279982 -0.167211,-0.272983 -0.22592,0.01 -0.235526,-9.58e-4 -0.215784,-0.244388 l 0.0179,-0.220787 h -0.323824 -0.32382 l 0.01235,0.252795 -0.0083,0.222519 c -0.0072,0.193936 0.467023,0.0807 0.435432,0.131382 -0.0208,0.03337 -0.03808,0.128919 -0.03841,0.212347 l -6.15e-4,0.151675 h 0.175731 0.175731 l 0.01216,0.171893 0.01216,0.171893 0.207674,0.01222 0.207674,0.01222 v 0.139461 0.139443 h -0.221547 -0.221546 l 0.01414,0.182002 0.01414,0.182021 -0.138734,6.29e-4 c -0.2116,9.58e-4 -0.246994,0.0413 -0.22505,0.25663 l 0.01913,0.187658 h -0.189244 c -0.162814,0 -0.192575,0.01278 -0.213096,0.091 -0.0328,0.125161 -0.03097,0.374703 0.003,0.409444 0.01536,0.01578 0.153323,0.0233 0.306566,0.01691 l 0.278627,-0.01165 z m -0.929587,0.637113 c -0.05071,-0.0335 -0.04927,-0.03929 0.0099,-0.03983 0.03807,-3.44e-4 0.06922,0.01766 0.06922,0.03983 0,0.04932 -0.0045,0.04932 -0.07911,0 z"
           id="path494" /></g><g
         id="g496"
         transform="matrix(0.8293026,0,0,1,2.7192971,-21.663379)"
         style="fill:#9b897c;fill-opacity:1"><path
           style="fill:#9b897c;fill-opacity:1;stroke-width:0.331512"
           d="m -6.3082009,33.229434 v -0.38228 H -6.765299 -7.2223975 l 0.00706,-0.24211 c 0.015664,-0.53814 0.021524,-0.522448 -0.1951622,-0.522448 H -7.6050335 V 31.85324 31.623861 l 0.2053328,8.8e-5 0.2053329,8.8e-5 v -0.369625 -0.369627 l 0.4430862,-0.01446 0.4430866,-0.01446 V 30.47534 30.094846 h 0.4755075 0.4755078 v 0.382278 0.38228 h 0.4538925 0.453894 v 0.38228 0.38228 h 0.194518 0.194525 v 0.229379 0.229356 h -0.194521 -0.194526 v 0.382279 0.382279 h -0.4538931 -0.4538933 v 0.382281 0.382277 h -0.4755081 -0.4755074 z m 0.6828158,-0.751817 0.012792,-0.344052 h 0.2527673 c 0.2824765,0 0.3052454,-0.02692 0.3052454,-0.360961 v -0.19971 h -0.2809819 -0.2809819 v -0.325638 -0.325634 l -0.1454955,-0.03218 c -0.080022,-0.01774 -0.1804761,-0.01632 -0.2232311,0.0031 -0.023912,0.01682 -0.018917,0.09375 -0.042868,0.212379 -0.00774,0.04721 -0.015544,0.169706 -0.017371,0.272246 l -0.00331,0.186426 -0.2410264,0.01753 c -0.1325643,0.0097 -0.270448,-0.002 -0.3064079,-0.02581 -0.054586,-0.03613 -0.057615,-0.02616 -0.018336,0.06035 0.025872,0.05699 0.047041,0.184981 0.047041,0.284416 0,0.151333 0.017974,0.186095 0.1104176,0.213444 0.060729,0.018 0.1774438,0.01989 0.2593676,0.0043 l 0.1489513,-0.02851 v 0.349342 c 0,0.383528 0.016909,0.409163 0.2593674,0.393252 l 0.1512968,-0.0099 z m -1.0293011,-0.739074 c -0.00152,-0.08795 -0.079786,-0.176055 -0.1262885,-0.14217 -0.038009,0.0277 -0.037896,0.05398 4.58e-4,0.108475 0.054229,0.07705 0.1269151,0.09652 0.1258305,0.0337 z m -0.042565,-0.242109 c 0,-0.01397 -0.00972,-0.02548 -0.021615,-0.02548 -0.011888,0 -0.021615,0.01136 -0.021615,0.02548 0,0.01397 0.00972,0.02548 0.021615,0.02548 0.011888,0 0.021615,-0.01135 0.021615,-0.02548 z"
           id="path495" /><path
           style="fill:#9b897c;fill-opacity:1;stroke-width:0.288098"
           d="m -7.5538221,25.171134 c 0,-0.280264 0.01681,-0.442066 0.04942,-0.475398 0.03899,-0.03988 0.03828,-0.06878 -0.0034,-0.137015 -0.0399,-0.06533 -0.05232,-0.32997 -0.05076,-1.081762 0.0011,-0.547404 0.0027,-1.009199 0.0034,-1.026216 7.16e-4,-0.01705 0.382567,-0.03093 0.848511,-0.03093 h 0.8471692 v 1.361225 1.361227 h 0.136257 c 0.148759,0 0.272044,-0.09718 0.172724,-0.136153 -0.04071,-0.01591 -0.05807,-0.113712 -0.06311,-0.355435 l -0.0069,-0.333404 h 0.122595 c 0.12022,0 0.122596,-0.004 0.122596,-0.206247 0,-0.201662 0.0027,-0.206246 0.121025,-0.206246 h 0.121026 v -0.247493 -0.247496 h 0.141194 0.1411961 v -0.203507 c 0,-0.191342 0.0067,-0.204286 0.110939,-0.216558 0.108477,-0.01284 0.111202,-0.01974 0.122842,-0.314669 0.01188,-0.300964 0.01215,-0.301589 0.121026,-0.288744 l 0.109122,0.01283 0.01057,1.577782 0.01057,1.577784 H -5.2336419 -6.1014624 V 24.19349 22.832264 h -0.1210247 -0.121026 v 0.412494 0.412491 h -0.121026 c -0.116542,0 -0.121026,0.0069 -0.121026,0.185612 0,0.178751 -0.0045,0.185631 -0.121025,0.185631 h -0.121026 v 0.26812 0.268121 l -0.131111,-2.6e-5 -0.131108,-2.6e-5 0.01379,0.203377 0.01379,0.203375 -0.134813,0.01321 -0.134813,0.01321 -0.01184,0.299056 c -0.01135,0.286783 -0.01593,0.299057 -0.11094,0.299057 -0.09881,0 -0.09909,-0.0012 -0.09909,-0.424867 z m 2.9237783,-0.777967 0.01528,-0.728468 -0.128175,0.0067 c -0.126053,0.0065 -0.128176,0.01 -0.128176,0.212853 0,0.194332 -0.0064,0.206999 -0.1109391,0.219298 -0.06349,0.0075 -0.110939,0.03834 -0.110939,0.07219 0,0.109286 -0.0046,0.120727 -0.08349,0.206567 -0.113217,0.123217 -0.03637,0.104533 -0.0781,0.134485 -0.0453,0.03252 -0.163086,0.0069 -0.163086,0.03197 -0.01349,0.117928 -0.01437,0.262014 -0.01567,0.307541 0.112423,0.01514 0.195769,-0.03641 0.05795,0.186532 v 0.102618 l 0.365033,-0.01189 0.3650321,-0.01188 z m -2.4565953,-0.302763 c 0.0032,-0.200574 0.0068,-0.206601 0.131109,-0.219172 0.124175,-0.01246 0.127854,-0.01859 0.127854,-0.212045 0,-0.196725 0.0017,-0.199323 0.140707,-0.215916 0.06297,0.01457 0.129022,0.005 0.193535,0.0077 -0.06444,-0.07598 -0.09085,-0.168614 -0.09997,-0.35062 l -0.01239,-0.247351 -0.352987,-0.01188 -0.352988,-0.01189 v 0.746833 0.746832 l 0.110939,-0.01302 c 0.104015,-0.01226 0.111143,-0.02593 0.114194,-0.219299 z"
           id="path496" /></g><g
         id="g499"
         transform="matrix(0.8293026,0,0,1,2.6674658,-29.725879)"
         style="fill:#9b897c;fill-opacity:1"><path
           style="fill:#9b897c;fill-opacity:1;stroke-width:0.282496"
           d="m -5.1667686,29.926985 c -4.75e-4,-0.03927 -0.256264,-0.05057 -1.145422,-0.05057 -0.72054,0 -1.153875,-0.01503 -1.169262,-0.04046 -0.01345,-0.02225 -0.05891,-0.04046 -0.101031,-0.04046 -0.07464,0 -0.07649,-0.04536 -0.07298,-1.786493 0.002,-0.982572 0.0127,-1.810725 0.02382,-1.840341 0.01643,-0.04376 0.36408,-0.05385 1.856143,-0.05385 h 1.8359343 l -0.02133,0.0203 v 1.87069 1.870693 l -0.427571,-1.5e-5 c -0.253206,-0.05421 -0.588364,-0.0019 -0.7783303,0.05055 z m -1.483989,-0.687668 v -0.212418 l 0.158227,-0.0047 c 0.08703,-0.0026 0.181492,-0.0015 0.209925,0.0024 0.02843,0.004 0.04858,-0.01672 0.04476,-0.04577 -0.0038,-0.02907 -0.0048,-0.144347 -0.0023,-0.256165 l 0.0047,-0.203303 0.153186,0.01503 0.153184,0.01485 0.02638,-0.179861 c 0.02425,-0.165316 0.03442,-0.178281 0.125887,-0.160412 0.07205,0.01409 0.0977,0.04314 0.09296,0.10532 -0.01525,0.199909 -2.53e-4,0.237521 0.08557,0.214575 0.135915,-0.03634 0.279353,0.04006 0.271093,0.144403 -0.004,0.05 -0.0052,0.150059 -0.0028,0.222363 0.0043,0.129992 0.0065,0.131456 0.200096,0.131456 h 0.1957173 l 0.01197,0.212347 0.01197,0.212348 0.286787,0.01183 0.286788,0.01183 v -0.264677 -0.264679 l -0.207674,5.6e-5 -0.207673,5.5e-5 0.01355,-0.222514 0.01355,-0.222515 h -0.181687 -0.1816663 v -0.179897 -0.179898 l -0.207674,-0.01222 c -0.20252,-0.01184 -0.207982,-0.01541 -0.220069,-0.14367 -0.01026,-0.10904 0.0012,-0.131455 0.06736,-0.131455 0.04387,0 0.124975,0.02107 0.180237,0.04681 0.09213,0.04293 0.118222,0.03033 0.3140493,-0.151675 0.213327,-0.198258 0.213575,-0.198774 0.217838,-0.451279 l 0.0043,-0.25279 h 0.197783 0.197784 V 26.782185 26.51928 h -0.296677 -0.296677 v 0.222457 c 0,0.219089 -0.0018,0.222537 -0.118672,0.227516 -0.06527,0.0028 -0.1364703,0.0096 -0.1582273,0.01522 -0.02176,0.0056 -0.06228,0.0124 -0.09005,0.01522 -0.0343,0.0034 -0.04577,0.05567 -0.03577,0.162968 0.01853,0.198756 -0.08836,0.328497 -0.245372,0.297806 -0.09807,-0.01917 -0.103498,-0.01147 -0.103498,0.146264 0,0.116763 -0.01676,0.1665 -0.0561,0.1665 -0.03085,0 -0.08426,0.01109 -0.118672,0.02456 -0.0514,0.02016 -0.06257,-0.0083 -0.06257,-0.159455 v -0.184012 l -0.165489,-0.0124 c -0.165301,-0.0124 -0.165497,-0.01259 -0.17165,-0.184332 -0.01018,-0.284048 -0.0077,-0.279982 -0.167211,-0.272983 -0.22592,0.01 -0.235526,-9.58e-4 -0.215784,-0.244388 l 0.0179,-0.220787 h -0.323824 -0.32382 l 0.01235,0.252795 -0.0083,0.222519 c -0.0072,0.193936 0.467023,0.0807 0.435432,0.131382 -0.0208,0.03337 -0.03808,0.128919 -0.03841,0.212347 l -6.15e-4,0.151675 h 0.175731 0.175731 l 0.01216,0.171893 0.01216,0.171893 0.207674,0.01222 0.207674,0.01222 v 0.139461 0.139443 h -0.221547 -0.221546 l 0.01414,0.182002 0.01414,0.182021 -0.138734,6.29e-4 c -0.2116,9.58e-4 -0.246994,0.0413 -0.22505,0.25663 l 0.01913,0.187658 h -0.189244 c -0.162814,0 -0.192575,0.01278 -0.213096,0.091 -0.0328,0.125161 -0.03097,0.374703 0.003,0.409444 0.01536,0.01578 0.153323,0.0233 0.306566,0.01691 l 0.278627,-0.01165 z m -0.929587,0.637113 c -0.05071,-0.0335 -0.04927,-0.03929 0.0099,-0.03983 0.03807,-3.44e-4 0.06922,0.01766 0.06922,0.03983 0,0.04932 -0.0045,0.04932 -0.07911,0 z"
           id="path497" /><path
           style="fill:#9b897c;fill-opacity:1;stroke-width:0.288098"
           d="m -7.7267268,37.893152 1.885e-4,-1.907765 -0.01086,-1.907777 c 0,0 0.102028,-0.02695 0.598562,0.01246 0.496534,0.03936 1.283704,0.01036 1.985394,0.01782 1.009561,0.01054 1.010096,0.03106 1.060489,0.09352 0.244281,0.302795 0.126088,1.318168 0.125727,1.952236 -0.01162,1.433183 -0.0029,1.627135 -0.0024,1.738759 l -1.883873,0.01073 -1.2872607,0.01073 m 1.4809247,-0.783786 v -0.35062 h 0.20529 0.20529 l -0.01366,-0.244514 -0.01366,-0.244515 0.252966,-0.01321 c 0.139131,-0.0073 0.266206,-0.0086 0.28239,-0.0031 0.01618,0.0055 0.02395,0.279424 0.01726,0.608427 l -0.01217,0.598219 h 0.244121 0.244122 v -1.443735 -1.443725 h -0.252266 -0.252267 l 0.0068,0.48468 c 0.01008,0.718556 0.01997,0.693736 -0.269667,0.676949 l -0.241127,-0.01399 v -0.24383 -0.243831 h -0.202525 -0.202519 l 0.01473,-0.329995 0.01473,-0.329992 h -0.255966 -0.255967 v 0.572806 0.572808 l -0.128887,0.01934 c -0.219154,0.03288 -0.269014,-5.61e-4 -0.282494,-0.18954 l -0.0122,-0.17107 h -0.443763 -0.443756 l -0.0067,0.123753 c -0.0037,0.06807 0.0035,0.351134 0.01599,0.629051 l 0.02272,0.505304 h 0.358445 c 0.251575,0 0.363076,0.01533 0.373979,0.05156 0.0085,0.02836 0.02597,0.100566 0.03873,0.16045 0.01276,0.05988 0.421411,0.102004 0.459289,0.08125 0.06159,-0.03376 0.06792,-0.01302 0.05989,0.195429 -0.01263,0.32787 -0.0064,0.336304 0.249767,0.336304 h 0.223143 z"
           id="path498" /><path
           style="fill:#9b897c;fill-opacity:1;stroke-width:0.288098"
           d="m -7.7267268,21.791284 1.885e-4,-1.907765 -0.01086,-1.907777 c 0,0 0.102028,-0.02695 0.598562,0.01246 0.496534,0.03936 1.283704,0.01036 1.985394,0.01782 1.009561,0.01054 1.010096,0.03106 1.060489,0.09352 0.244281,0.302795 0.126088,1.318168 0.125727,1.952236 -0.01162,1.433183 -0.0029,1.627135 -0.0024,1.738759 l -1.883873,0.01073 -1.2872607,0.01073 m 1.4809247,-0.783786 v -0.35062 h 0.20529 0.20529 l -0.01366,-0.244514 -0.01366,-0.244515 0.252966,-0.01321 c 0.139131,-0.0073 0.266206,-0.0086 0.28239,-0.0031 0.01618,0.0055 0.02395,0.279424 0.01726,0.608427 l -0.01217,0.598219 h 0.244121 0.244122 v -1.443735 -1.443725 h -0.252266 -0.252267 l 0.0068,0.48468 c 0.01008,0.718556 0.01997,0.693736 -0.269667,0.676949 l -0.241127,-0.01399 v -0.24383 -0.243831 h -0.202525 -0.202519 l 0.01473,-0.329995 0.01473,-0.329992 h -0.255966 -0.255967 v 0.572806 0.572808 l -0.128887,0.01934 c -0.219154,0.03288 -0.269014,-5.61e-4 -0.282494,-0.18954 l -0.0122,-0.17107 h -0.443763 -0.443756 l -0.0067,0.123753 c -0.0037,0.06807 0.0035,0.351134 0.01599,0.629051 l 0.02272,0.505304 h 0.358445 c 0.251575,0 0.363076,0.01533 0.373979,0.05156 0.0085,0.02836 0.02597,0.100566 0.03873,0.16045 0.01276,0.05988 0.421411,0.102004 0.459289,0.08125 0.06159,-0.03376 0.06792,-0.01302 0.05989,0.195429 -0.01263,0.32787 -0.0064,0.336304 0.249767,0.336304 h 0.223143 z"
           id="path499" /></g><g
         id="g500"
         transform="matrix(0.80879097,0,0,1.0163426,2.6253237,-38.060443)"
         style="fill:#9b897c;fill-opacity:1"><path
           style="fill:#9b897c;fill-opacity:1;stroke-width:0.331512"
           d="m -6.3082009,33.229434 v -0.38228 H -6.765299 -7.2223975 l 0.00706,-0.24211 c 0.015664,-0.53814 0.021524,-0.522448 -0.1951622,-0.522448 H -7.6050335 V 31.85324 31.623861 l 0.2053328,8.8e-5 0.2053329,8.8e-5 v -0.369625 -0.369627 l 0.4430862,-0.01446 0.4430866,-0.01446 V 30.47534 30.094846 h 0.4755075 0.4755078 v 0.382278 0.38228 h 0.4538925 0.453894 v 0.38228 0.38228 h 0.194518 0.194525 v 0.229379 0.229356 h -0.194521 -0.194526 v 0.382279 0.382279 h -0.4538931 -0.4538933 v 0.382281 0.382277 h -0.4755081 -0.4755074 z m 0.6828158,-0.751817 0.012792,-0.344052 h 0.2527673 c 0.2824765,0 0.3052454,-0.02692 0.3052454,-0.360961 v -0.19971 h -0.2809819 -0.2809819 v -0.325638 -0.325634 l -0.1454955,-0.03218 c -0.080022,-0.01774 -0.1804761,-0.01632 -0.2232311,0.0031 -0.023912,0.01682 -0.018917,0.09375 -0.042868,0.212379 -0.00774,0.04721 -0.015544,0.169706 -0.017371,0.272246 l -0.00331,0.186426 -0.2410264,0.01753 c -0.1325643,0.0097 -0.270448,-0.002 -0.3064079,-0.02581 -0.054586,-0.03613 -0.057615,-0.02616 -0.018336,0.06035 0.025872,0.05699 0.047041,0.184981 0.047041,0.284416 0,0.151333 0.017974,0.186095 0.1104176,0.213444 0.060729,0.018 0.1774438,0.01989 0.2593676,0.0043 l 0.1489513,-0.02851 v 0.349342 c 0,0.383528 0.016909,0.409163 0.2593674,0.393252 l 0.1512968,-0.0099 z m -1.0293011,-0.739074 c -0.00152,-0.08795 -0.079786,-0.176055 -0.1262885,-0.14217 -0.038009,0.0277 -0.037896,0.05398 4.58e-4,0.108475 0.054229,0.07705 0.1269151,0.09652 0.1258305,0.0337 z m -0.042565,-0.242109 c 0,-0.01397 -0.00972,-0.02548 -0.021615,-0.02548 -0.011888,0 -0.021615,0.01136 -0.021615,0.02548 0,0.01397 0.00972,0.02548 0.021615,0.02548 0.011888,0 0.021615,-0.01135 0.021615,-0.02548 z"
           id="path500" /></g></g><g
       id="g503"
       transform="matrix(4.1331262,0,0,4.1331262,-285.0243,17.304778)"><path
         style="fill:#ffffff;fill-opacity:1;stroke:#ffffff;stroke-width:0.0220971;stroke-linejoin:round;stroke-miterlimit:3.5;stroke-dashoffset:0.06;stroke-opacity:1;paint-order:stroke fill markers"
         d="M 70.859296,-1.9811806 V -3.685079 l 0.403271,0.00889 c 0.455772,0.010052 0.537548,0.03204 0.561326,0.1509285 0.02374,0.1186756 0.08969,0.1082735 0.471962,-0.074435 0.262864,-0.1256371 0.426915,-0.1689302 0.640129,-0.1689302 0.406532,0 0.898819,0.233437 1.071796,0.508233 0.07515,0.119384 0.140533,0.3135649 0.180775,0.536875 0.03,0.1664702 0.03833,0.4068842 0.04588,1.3248045 l 0.0092,1.1214271 h -0.472422 -0.472454 l -0.02726,-0.8156 c -0.04603,-1.3775675 -0.07101,-1.4816253 -0.393791,-1.6405302 -0.278111,-0.1369134 -0.606388,-0.082841 -0.825143,0.1359135 -0.199286,0.1992856 -0.220998,0.3438113 -0.220998,1.4710817 v 0.8491389 h -0.486135 -0.486136 z"
         id="path501" /><path
         style="fill:#ffffff;fill-opacity:1;stroke:#ffffff;stroke-width:0.0220971;stroke-linejoin:round;stroke-miterlimit:3.5;stroke-dashoffset:0.06;stroke-opacity:1;paint-order:stroke fill markers"
         d="m 69.202014,-1.9787578 v -1.7014757 h 0.541379 0.541378 v 1.7014757 1.7014756 h -0.541378 -0.541379 z"
         id="path502" /><path
         style="fill:#ffffff;fill-opacity:1;stroke:#ffffff;stroke-width:0.0220971;stroke-linejoin:round;stroke-miterlimit:3.5;stroke-dashoffset:0.06;stroke-opacity:1;paint-order:stroke fill markers"
         d="m 69.547336,-4.2872 c -0.281701,-0.1004146 -0.451529,-0.4515931 -0.366042,-0.7569219 0.0405,-0.1446613 0.192557,-0.295607 0.341202,-0.3387138 0.413589,-0.1199398 0.801696,0.1368931 0.8055,0.5330446 0.0039,0.4048532 -0.402192,0.6974987 -0.78066,0.5625911 z"
         id="path503" /></g></g></svg>
