<?xml version="1.0" encoding="UTF-8" standalone="no"?>
<svg
   version="1.1"
   viewBox="-5 -10 32 32"
   id="svg2"
   width="32"
   height="32"
   xml:space="preserve"
   xmlns="http://www.w3.org/2000/svg"
   xmlns:svg="http://www.w3.org/2000/svg"><defs
     id="defs2" /><path
     style="fill:#ffffff;fill-opacity:1;stroke:#000000;stroke-width:1;stroke-dasharray:none;stroke-opacity:1"
     d="M 0.07084682,21.268365 C -1.8065835,20.604524 -3.6946619,18.595421 -4.2204011,16.702058 -4.7410903,14.826887 -4.7518134,-2.6834632 -4.2333495,-4.5500271 c 0.5190742,-1.8690209 2.0599854,-3.6299042 3.91299816,-4.4716122 1.34940844,-0.6129516 2.62899194,-0.6906474 11.49521734,-0.69798 9.88199,-0.00817 9.994442,6.133e-4 11.835233,0.9246409 1.077527,0.5408884 2.253148,1.5156385 2.797753,2.3197252 0.933821,1.3787392 0.93999,1.4440217 1.056627,11.1841363 0.139423,11.6435889 0.03942,12.5722839 -1.548457,14.3807929 -2.271966,2.587628 -2.991467,2.727599 -13.973455,2.718334 C 3.8981761,21.801768 1.2162059,21.673317 0.07091494,21.268365 Z"
     id="path388" /><g
     id="g389"
     transform="matrix(1.3630647,0,0,1.0690975,6.9666711,-15.437593)"
     style="fill:#a2a2a2;fill-opacity:1"><path
       style="fill:#a2a2a2;fill-opacity:1;stroke-width:0.282496"
       d="m -5.1667686,29.926985 c -4.75e-4,-0.03927 -0.256264,-0.05057 -1.145422,-0.05057 -0.72054,0 -1.153875,-0.01503 -1.169262,-0.04046 -0.01345,-0.02225 -0.05891,-0.04046 -0.101031,-0.04046 -0.07464,0 -0.07649,-0.04536 -0.07298,-1.786493 0.002,-0.982572 0.0127,-1.810725 0.02382,-1.840341 0.01643,-0.04376 0.36408,-0.05385 1.856143,-0.05385 h 1.8359343 l -0.02133,0.0203 v 1.87069 1.870693 l -0.427571,-1.5e-5 c -0.253206,-0.05421 -0.588364,-0.0019 -0.7783303,0.05055 z m -1.483989,-0.687668 v -0.212418 l 0.158227,-0.0047 c 0.08703,-0.0026 0.181492,-0.0015 0.209925,0.0024 0.02843,0.004 0.04858,-0.01672 0.04476,-0.04577 -0.0038,-0.02907 -0.0048,-0.144347 -0.0023,-0.256165 l 0.0047,-0.203303 0.153186,0.01503 0.153184,0.01485 0.02638,-0.179861 c 0.02425,-0.165316 0.03442,-0.178281 0.125887,-0.160412 0.07205,0.01409 0.0977,0.04314 0.09296,0.10532 -0.01525,0.199909 -2.53e-4,0.237521 0.08557,0.214575 0.135915,-0.03634 0.279353,0.04006 0.271093,0.144403 -0.004,0.05 -0.0052,0.150059 -0.0028,0.222363 0.0043,0.129992 0.0065,0.131456 0.200096,0.131456 h 0.1957173 l 0.01197,0.212347 0.01197,0.212348 0.286787,0.01183 0.286788,0.01183 v -0.264677 -0.264679 l -0.207674,5.6e-5 -0.207673,5.5e-5 0.01355,-0.222514 0.01355,-0.222515 h -0.181687 -0.1816663 v -0.179897 -0.179898 l -0.207674,-0.01222 c -0.20252,-0.01184 -0.207982,-0.01541 -0.220069,-0.14367 -0.01026,-0.10904 0.0012,-0.131455 0.06736,-0.131455 0.04387,0 0.124975,0.02107 0.180237,0.04681 0.09213,0.04293 0.118222,0.03033 0.3140493,-0.151675 0.213327,-0.198258 0.213575,-0.198774 0.217838,-0.451279 l 0.0043,-0.25279 h 0.197783 0.197784 V 26.782185 26.51928 h -0.296677 -0.296677 v 0.222457 c 0,0.219089 -0.0018,0.222537 -0.118672,0.227516 -0.06527,0.0028 -0.1364703,0.0096 -0.1582273,0.01522 -0.02176,0.0056 -0.06228,0.0124 -0.09005,0.01522 -0.0343,0.0034 -0.04577,0.05567 -0.03577,0.162968 0.01853,0.198756 -0.08836,0.328497 -0.245372,0.297806 -0.09807,-0.01917 -0.103498,-0.01147 -0.103498,0.146264 0,0.116763 -0.01676,0.1665 -0.0561,0.1665 -0.03085,0 -0.08426,0.01109 -0.118672,0.02456 -0.0514,0.02016 -0.06257,-0.0083 -0.06257,-0.159455 v -0.184012 l -0.165489,-0.0124 c -0.165301,-0.0124 -0.165497,-0.01259 -0.17165,-0.184332 -0.01018,-0.284048 -0.0077,-0.279982 -0.167211,-0.272983 -0.22592,0.01 -0.235526,-9.58e-4 -0.215784,-0.244388 l 0.0179,-0.220787 h -0.323824 -0.32382 l 0.01235,0.252795 -0.0083,0.222519 c -0.0072,0.193936 0.467023,0.0807 0.435432,0.131382 -0.0208,0.03337 -0.03808,0.128919 -0.03841,0.212347 l -6.15e-4,0.151675 h 0.175731 0.175731 l 0.01216,0.171893 0.01216,0.171893 0.207674,0.01222 0.207674,0.01222 v 0.139461 0.139443 h -0.221547 -0.221546 l 0.01414,0.182002 0.01414,0.182021 -0.138734,6.29e-4 c -0.2116,9.58e-4 -0.246994,0.0413 -0.22505,0.25663 l 0.01913,0.187658 h -0.189244 c -0.162814,0 -0.192575,0.01278 -0.213096,0.091 -0.0328,0.125161 -0.03097,0.374703 0.003,0.409444 0.01536,0.01578 0.153323,0.0233 0.306566,0.01691 l 0.278627,-0.01165 z m -0.929587,0.637113 c -0.05071,-0.0335 -0.04927,-0.03929 0.0099,-0.03983 0.03807,-3.44e-4 0.06922,0.01766 0.06922,0.03983 0,0.04932 -0.0045,0.04932 -0.07911,0 z"
       id="path389" /></g><g
     id="g391"
     transform="matrix(1.3630647,0,0,1.0690975,6.9666711,-23.990373)"
     style="fill:#a2a2a2;fill-opacity:1"><path
       style="fill:#a2a2a2;fill-opacity:1;stroke-width:0.331512"
       d="m -6.3082009,33.229434 v -0.38228 H -6.765299 -7.2223975 l 0.00706,-0.24211 c 0.015664,-0.53814 0.021524,-0.522448 -0.1951622,-0.522448 H -7.6050335 V 31.85324 31.623861 l 0.2053328,8.8e-5 0.2053329,8.8e-5 v -0.369625 -0.369627 l 0.4430862,-0.01446 0.4430866,-0.01446 V 30.47534 30.094846 h 0.4755075 0.4755078 v 0.382278 0.38228 h 0.4538925 0.453894 v 0.38228 0.38228 h 0.194518 0.194525 v 0.229379 0.229356 h -0.194521 -0.194526 v 0.382279 0.382279 h -0.4538931 -0.4538933 v 0.382281 0.382277 h -0.4755081 -0.4755074 z m 0.6828158,-0.751817 0.012792,-0.344052 h 0.2527673 c 0.2824765,0 0.3052454,-0.02692 0.3052454,-0.360961 v -0.19971 h -0.2809819 -0.2809819 v -0.325638 -0.325634 l -0.1454955,-0.03218 c -0.080022,-0.01774 -0.1804761,-0.01632 -0.2232311,0.0031 -0.023912,0.01682 -0.018917,0.09375 -0.042868,0.212379 -0.00774,0.04721 -0.015544,0.169706 -0.017371,0.272246 l -0.00331,0.186426 -0.2410264,0.01753 c -0.1325643,0.0097 -0.270448,-0.002 -0.3064079,-0.02581 -0.054586,-0.03613 -0.057615,-0.02616 -0.018336,0.06035 0.025872,0.05699 0.047041,0.184981 0.047041,0.284416 0,0.151333 0.017974,0.186095 0.1104176,0.213444 0.060729,0.018 0.1774438,0.01989 0.2593676,0.0043 l 0.1489513,-0.02851 v 0.349342 c 0,0.383528 0.016909,0.409163 0.2593674,0.393252 l 0.1512968,-0.0099 z m -1.0293011,-0.739074 c -0.00152,-0.08795 -0.079786,-0.176055 -0.1262885,-0.14217 -0.038009,0.0277 -0.037896,0.05398 4.58e-4,0.108475 0.054229,0.07705 0.1269151,0.09652 0.1258305,0.0337 z m -0.042565,-0.242109 c 0,-0.01397 -0.00972,-0.02548 -0.021615,-0.02548 -0.011888,0 -0.021615,0.01136 -0.021615,0.02548 0,0.01397 0.00972,0.02548 0.021615,0.02548 0.011888,0 0.021615,-0.01135 0.021615,-0.02548 z"
       id="path390" /><path
       style="fill:#a2a2a2;fill-opacity:1;stroke-width:0.288098"
       d="m -7.5538221,25.171134 c 0,-0.280264 0.01681,-0.442066 0.04942,-0.475398 0.03899,-0.03988 0.03828,-0.06878 -0.0034,-0.137015 -0.0399,-0.06533 -0.05232,-0.32997 -0.05076,-1.081762 0.0011,-0.547404 0.0027,-1.009199 0.0034,-1.026216 7.16e-4,-0.01705 0.382567,-0.03093 0.848511,-0.03093 h 0.8471692 v 1.361225 1.361227 h 0.136257 c 0.148759,0 0.272044,-0.09718 0.172724,-0.136153 -0.04071,-0.01591 -0.05807,-0.113712 -0.06311,-0.355435 l -0.0069,-0.333404 h 0.122595 c 0.12022,0 0.122596,-0.004 0.122596,-0.206247 0,-0.201662 0.0027,-0.206246 0.121025,-0.206246 h 0.121026 v -0.247493 -0.247496 h 0.141194 0.1411961 v -0.203507 c 0,-0.191342 0.0067,-0.204286 0.110939,-0.216558 0.108477,-0.01284 0.111202,-0.01974 0.122842,-0.314669 0.01188,-0.300964 0.01215,-0.301589 0.121026,-0.288744 l 0.109122,0.01283 0.01057,1.577782 0.01057,1.577784 H -5.2336419 -6.1014624 V 24.19349 22.832264 h -0.1210247 -0.121026 v 0.412494 0.412491 h -0.121026 c -0.116542,0 -0.121026,0.0069 -0.121026,0.185612 0,0.178751 -0.0045,0.185631 -0.121025,0.185631 h -0.121026 v 0.26812 0.268121 l -0.131111,-2.6e-5 -0.131108,-2.6e-5 0.01379,0.203377 0.01379,0.203375 -0.134813,0.01321 -0.134813,0.01321 -0.01184,0.299056 c -0.01135,0.286783 -0.01593,0.299057 -0.11094,0.299057 -0.09881,0 -0.09909,-0.0012 -0.09909,-0.424867 z m 2.9237783,-0.777967 0.01528,-0.728468 -0.128175,0.0067 c -0.126053,0.0065 -0.128176,0.01 -0.128176,0.212853 0,0.194332 -0.0064,0.206999 -0.1109391,0.219298 -0.06349,0.0075 -0.110939,0.03834 -0.110939,0.07219 0,0.109286 -0.0046,0.120727 -0.08349,0.206567 -0.113217,0.123217 -0.03637,0.104533 -0.0781,0.134485 -0.0453,0.03252 -0.163086,0.0069 -0.163086,0.03197 -0.01349,0.117928 -0.01437,0.262014 -0.01567,0.307541 0.112423,0.01514 0.195769,-0.03641 0.05795,0.186532 v 0.102618 l 0.365033,-0.01189 0.3650321,-0.01188 z m -2.4565953,-0.302763 c 0.0032,-0.200574 0.0068,-0.206601 0.131109,-0.219172 0.124175,-0.01246 0.127854,-0.01859 0.127854,-0.212045 0,-0.196725 0.0017,-0.199323 0.140707,-0.215916 0.06297,0.01457 0.129022,0.005 0.193535,0.0077 -0.06444,-0.07598 -0.09085,-0.168614 -0.09997,-0.35062 l -0.01239,-0.247351 -0.352987,-0.01188 -0.352988,-0.01189 v 0.746833 0.746832 l 0.110939,-0.01302 c 0.104015,-0.01226 0.111143,-0.02593 0.114194,-0.219299 z"
       id="path391" /></g><g
     id="g393"
     transform="matrix(1.3630647,0,0,1.0690975,6.8814798,-32.609972)"
     style="fill:#a2a2a2;fill-opacity:1"><path
       style="fill:#a2a2a2;fill-opacity:1;stroke-width:0.282496"
       d="m -5.1667686,29.926985 c -4.75e-4,-0.03927 -0.256264,-0.05057 -1.145422,-0.05057 -0.72054,0 -1.153875,-0.01503 -1.169262,-0.04046 -0.01345,-0.02225 -0.05891,-0.04046 -0.101031,-0.04046 -0.07464,0 -0.07649,-0.04536 -0.07298,-1.786493 0.002,-0.982572 0.0127,-1.810725 0.02382,-1.840341 0.01643,-0.04376 0.36408,-0.05385 1.856143,-0.05385 h 1.8359343 l -0.02133,0.0203 v 1.87069 1.870693 l -0.427571,-1.5e-5 c -0.253206,-0.05421 -0.588364,-0.0019 -0.7783303,0.05055 z m -1.483989,-0.687668 v -0.212418 l 0.158227,-0.0047 c 0.08703,-0.0026 0.181492,-0.0015 0.209925,0.0024 0.02843,0.004 0.04858,-0.01672 0.04476,-0.04577 -0.0038,-0.02907 -0.0048,-0.144347 -0.0023,-0.256165 l 0.0047,-0.203303 0.153186,0.01503 0.153184,0.01485 0.02638,-0.179861 c 0.02425,-0.165316 0.03442,-0.178281 0.125887,-0.160412 0.07205,0.01409 0.0977,0.04314 0.09296,0.10532 -0.01525,0.199909 -2.53e-4,0.237521 0.08557,0.214575 0.135915,-0.03634 0.279353,0.04006 0.271093,0.144403 -0.004,0.05 -0.0052,0.150059 -0.0028,0.222363 0.0043,0.129992 0.0065,0.131456 0.200096,0.131456 h 0.1957173 l 0.01197,0.212347 0.01197,0.212348 0.286787,0.01183 0.286788,0.01183 v -0.264677 -0.264679 l -0.207674,5.6e-5 -0.207673,5.5e-5 0.01355,-0.222514 0.01355,-0.222515 h -0.181687 -0.1816663 v -0.179897 -0.179898 l -0.207674,-0.01222 c -0.20252,-0.01184 -0.207982,-0.01541 -0.220069,-0.14367 -0.01026,-0.10904 0.0012,-0.131455 0.06736,-0.131455 0.04387,0 0.124975,0.02107 0.180237,0.04681 0.09213,0.04293 0.118222,0.03033 0.3140493,-0.151675 0.213327,-0.198258 0.213575,-0.198774 0.217838,-0.451279 l 0.0043,-0.25279 h 0.197783 0.197784 V 26.782185 26.51928 h -0.296677 -0.296677 v 0.222457 c 0,0.219089 -0.0018,0.222537 -0.118672,0.227516 -0.06527,0.0028 -0.1364703,0.0096 -0.1582273,0.01522 -0.02176,0.0056 -0.06228,0.0124 -0.09005,0.01522 -0.0343,0.0034 -0.04577,0.05567 -0.03577,0.162968 0.01853,0.198756 -0.08836,0.328497 -0.245372,0.297806 -0.09807,-0.01917 -0.103498,-0.01147 -0.103498,0.146264 0,0.116763 -0.01676,0.1665 -0.0561,0.1665 -0.03085,0 -0.08426,0.01109 -0.118672,0.02456 -0.0514,0.02016 -0.06257,-0.0083 -0.06257,-0.159455 v -0.184012 l -0.165489,-0.0124 c -0.165301,-0.0124 -0.165497,-0.01259 -0.17165,-0.184332 -0.01018,-0.284048 -0.0077,-0.279982 -0.167211,-0.272983 -0.22592,0.01 -0.235526,-9.58e-4 -0.215784,-0.244388 l 0.0179,-0.220787 h -0.323824 -0.32382 l 0.01235,0.252795 -0.0083,0.222519 c -0.0072,0.193936 0.467023,0.0807 0.435432,0.131382 -0.0208,0.03337 -0.03808,0.128919 -0.03841,0.212347 l -6.15e-4,0.151675 h 0.175731 0.175731 l 0.01216,0.171893 0.01216,0.171893 0.207674,0.01222 0.207674,0.01222 v 0.139461 0.139443 h -0.221547 -0.221546 l 0.01414,0.182002 0.01414,0.182021 -0.138734,6.29e-4 c -0.2116,9.58e-4 -0.246994,0.0413 -0.22505,0.25663 l 0.01913,0.187658 h -0.189244 c -0.162814,0 -0.192575,0.01278 -0.213096,0.091 -0.0328,0.125161 -0.03097,0.374703 0.003,0.409444 0.01536,0.01578 0.153323,0.0233 0.306566,0.01691 l 0.278627,-0.01165 z m -0.929587,0.637113 c -0.05071,-0.0335 -0.04927,-0.03929 0.0099,-0.03983 0.03807,-3.44e-4 0.06922,0.01766 0.06922,0.03983 0,0.04932 -0.0045,0.04932 -0.07911,0 z"
       id="path392" /><path
       style="fill:#a2a2a2;fill-opacity:1;stroke-width:0.288098"
       d="m -7.7267268,37.893152 1.885e-4,-1.907765 -0.01086,-1.907777 c 0,0 0.102028,-0.02695 0.598562,0.01246 0.496534,0.03936 1.283704,0.01036 1.985394,0.01782 1.009561,0.01054 1.010096,0.03106 1.060489,0.09352 0.244281,0.302795 0.126088,1.318168 0.125727,1.952236 -0.01162,1.433183 -0.0029,1.627135 -0.0024,1.738759 l -1.883873,0.01073 -1.2872607,0.01073 m 1.4809247,-0.783786 v -0.35062 h 0.20529 0.20529 l -0.01366,-0.244514 -0.01366,-0.244515 0.252966,-0.01321 c 0.139131,-0.0073 0.266206,-0.0086 0.28239,-0.0031 0.01618,0.0055 0.02395,0.279424 0.01726,0.608427 l -0.01217,0.598219 h 0.244121 0.244122 v -1.443735 -1.443725 h -0.252266 -0.252267 l 0.0068,0.48468 c 0.01008,0.718556 0.01997,0.693736 -0.269667,0.676949 l -0.241127,-0.01399 v -0.24383 -0.243831 h -0.202525 -0.202519 l 0.01473,-0.329995 0.01473,-0.329992 h -0.255966 -0.255967 v 0.572806 0.572808 l -0.128887,0.01934 c -0.219154,0.03288 -0.269014,-5.61e-4 -0.282494,-0.18954 l -0.0122,-0.17107 h -0.443763 -0.443756 l -0.0067,0.123753 c -0.0037,0.06807 0.0035,0.351134 0.01599,0.629051 l 0.02272,0.505304 h 0.358445 c 0.251575,0 0.363076,0.01533 0.373979,0.05156 0.0085,0.02836 0.02597,0.100566 0.03873,0.16045 0.01276,0.05988 0.421411,0.102004 0.459289,0.08125 0.06159,-0.03376 0.06792,-0.01302 0.05989,0.195429 -0.01263,0.32787 -0.0064,0.336304 0.249767,0.336304 h 0.223143 z"
       id="path393" /></g><g
     id="g394"
     transform="matrix(1.0758887,0,0,0.92341305,5.4759273,-35.972697)"
     style="fill:#a2a2a2;fill-opacity:1"><path
       style="fill:#a2a2a2;fill-opacity:1;stroke-width:0.305169"
       d="m -6.1240081,33.25887 v -0.352853 h -0.4196427 -0.419643 l 0.00648,-0.223472 c 0.01438,-0.496714 0.01976,-0.48223 -0.1791703,-0.48223 H -7.314576 v -0.211701 -0.211721 l 0.1885075,8.1e-5 0.1885076,8.1e-5 v -0.341171 -0.341173 l 0.4067789,-0.01335 0.4067793,-0.01335 v -0.351233 -0.351203 h 0.4365436 0.4365439 v 0.35285 0.352852 h 0.4166997 0.4167012 v 0.352853 0.352852 h 0.1785788 0.1785853 v 0.211721 0.211701 H -4.2389318 -4.417518 v 0.352851 0.352851 h -0.4167003 -0.4167005 v 0.352854 0.352849 h -0.4365441 -0.4365435 z m 0.6268647,-0.693943 0.011744,-0.317567 h 0.2320551 c 0.2593299,0 0.2802331,-0.02485 0.2802331,-0.333174 V 31.729849 H -5.231069 -5.4890267 v -0.30057 -0.300567 l -0.1335734,-0.0297 c -0.073465,-0.01637 -0.1656876,-0.01506 -0.2049391,0.0029 -0.021953,0.01553 -0.017367,0.08653 -0.039355,0.196031 -0.00711,0.04358 -0.01427,0.156642 -0.015948,0.251288 l -0.00304,0.172075 -0.2212763,0.01618 c -0.1217018,0.009 -0.248287,-0.0018 -0.2813003,-0.02382 -0.050113,-0.03335 -0.052894,-0.02415 -0.016833,0.0557 0.023752,0.0526 0.043186,0.170741 0.043186,0.262522 0,0.139683 0.016501,0.171769 0.1013697,0.197013 0.055753,0.01661 0.1629038,0.01836 0.2381146,0.004 l 0.136746,-0.02631 v 0.322449 c 0,0.354005 0.015523,0.377666 0.2381144,0.36298 l 0.1388992,-0.0091 z m -0.9449584,-0.68218 c -0.0014,-0.08118 -0.073248,-0.162503 -0.1159402,-0.131226 -0.034895,0.02557 -0.034791,0.04982 4.205e-4,0.100124 0.049785,0.07112 0.1165154,0.08909 0.1155197,0.03111 z m -0.039077,-0.223472 c 0,-0.01289 -0.00892,-0.02352 -0.019844,-0.02352 -0.010914,0 -0.019844,0.01048 -0.019844,0.02352 0,0.0129 0.00892,0.02352 0.019844,0.02352 0.010914,0 0.019844,-0.01048 0.019844,-0.02352 z"
       id="path394" /></g><g
     id="g395"
     transform="matrix(1.2110304,0,0,0.99625527,6.4438049,-13.144252)"
     style="fill:#a2a2a2;fill-opacity:1"><path
       style="fill:#a2a2a2;fill-opacity:1;stroke-width:0.300465"
       d="m -6.1281988,32.893949 v -0.341365 h -0.4204948 -0.4204952 l 0.00649,-0.216198 c 0.01441,-0.480545 0.0198,-0.466532 -0.1795341,-0.466532 h -0.178956 v -0.204809 -0.204829 l 0.1888903,7.8e-5 0.1888903,7.9e-5 V 31.130307 30.80024 l 0.407605,-0.01291 0.4076054,-0.01291 V 30.434621 30.09485 h 0.43743 0.4374304 v 0.341364 0.341366 h 0.4175459 0.4175474 v 0.341366 0.341366 h 0.1789415 0.1789479 v 0.204829 0.204809 h -0.1789443 -0.1789488 v 0.341365 0.341365 h -0.4175465 -0.4175467 v 0.341366 0.341363 h -0.4374306 -0.43743 z m 0.6281377,-0.671352 0.011768,-0.307229 h 0.2325264 c 0.2598565,0 0.2808021,-0.02404 0.2808021,-0.322329 v -0.178336 h -0.2584816 -0.2584816 v -0.290786 -0.290782 l -0.1338446,-0.02874 c -0.073614,-0.01584 -0.166024,-0.01457 -0.2053553,0.0028 -0.021997,0.01502 -0.017402,0.08372 -0.039435,0.189649 -0.00712,0.04216 -0.014299,0.151543 -0.01598,0.243108 l -0.00304,0.166474 -0.2217257,0.01565 c -0.1219488,0.0087 -0.2487912,-0.0018 -0.2818715,-0.02305 -0.050215,-0.03226 -0.053001,-0.02336 -0.016868,0.05389 0.0238,0.05089 0.043274,0.165183 0.043274,0.253976 0,0.135136 0.016535,0.166178 0.1015756,0.1906 0.055866,0.01607 0.1632346,0.01776 0.2385981,0.0038 l 0.1370237,-0.02546 v 0.311953 c 0,0.34248 0.015555,0.365372 0.2385979,0.351163 l 0.1391813,-0.0088 z m -0.9468773,-0.659973 c -0.0014,-0.07854 -0.073397,-0.157213 -0.1161756,-0.126954 -0.034965,0.02474 -0.034861,0.0482 4.213e-4,0.09687 0.049887,0.0688 0.116752,0.08619 0.1157543,0.03009 z m -0.039157,-0.216197 c 0,-0.01247 -0.00894,-0.02275 -0.019884,-0.02275 -0.010936,0 -0.019884,0.01014 -0.019884,0.02275 0,0.01248 0.00894,0.02275 0.019884,0.02275 0.010936,0 0.019884,-0.01014 0.019884,-0.02275 z"
       id="path395" /></g><g
     id="g411"
     transform="matrix(-1.3569086,0,0,1.0690975,15.438655,-15.562593)"
     style="fill:#a2a2a2;fill-opacity:1"><path
       style="fill:#a2a2a2;fill-opacity:1;stroke-width:0.282496"
       d="m -5.1667686,29.926985 c -4.75e-4,-0.03927 -0.256264,-0.05057 -1.145422,-0.05057 -0.72054,0 -1.153875,-0.01503 -1.169262,-0.04046 -0.01345,-0.02225 -0.05891,-0.04046 -0.101031,-0.04046 -0.07464,0 -0.07649,-0.04536 -0.07298,-1.786493 0.002,-0.982572 0.0127,-1.810725 0.02382,-1.840341 0.01643,-0.04376 0.36408,-0.05385 1.856143,-0.05385 h 1.8359343 l -0.02133,0.0203 v 1.87069 1.870693 l -0.427571,-1.5e-5 c -0.253206,-0.05421 -0.588364,-0.0019 -0.7783303,0.05055 z m -1.483989,-0.687668 v -0.212418 l 0.158227,-0.0047 c 0.08703,-0.0026 0.181492,-0.0015 0.209925,0.0024 0.02843,0.004 0.04858,-0.01672 0.04476,-0.04577 -0.0038,-0.02907 -0.0048,-0.144347 -0.0023,-0.256165 l 0.0047,-0.203303 0.153186,0.01503 0.153184,0.01485 0.02638,-0.179861 c 0.02425,-0.165316 0.03442,-0.178281 0.125887,-0.160412 0.07205,0.01409 0.0977,0.04314 0.09296,0.10532 -0.01525,0.199909 -2.53e-4,0.237521 0.08557,0.214575 0.135915,-0.03634 0.279353,0.04006 0.271093,0.144403 -0.004,0.05 -0.0052,0.150059 -0.0028,0.222363 0.0043,0.129992 0.0065,0.131456 0.200096,0.131456 h 0.1957173 l 0.01197,0.212347 0.01197,0.212348 0.286787,0.01183 0.286788,0.01183 v -0.264677 -0.264679 l -0.207674,5.6e-5 -0.207673,5.5e-5 0.01355,-0.222514 0.01355,-0.222515 h -0.181687 -0.1816663 v -0.179897 -0.179898 l -0.207674,-0.01222 c -0.20252,-0.01184 -0.207982,-0.01541 -0.220069,-0.14367 -0.01026,-0.10904 0.0012,-0.131455 0.06736,-0.131455 0.04387,0 0.124975,0.02107 0.180237,0.04681 0.09213,0.04293 0.118222,0.03033 0.3140493,-0.151675 0.213327,-0.198258 0.213575,-0.198774 0.217838,-0.451279 l 0.0043,-0.25279 h 0.197783 0.197784 V 26.782185 26.51928 h -0.296677 -0.296677 v 0.222457 c 0,0.219089 -0.0018,0.222537 -0.118672,0.227516 -0.06527,0.0028 -0.1364703,0.0096 -0.1582273,0.01522 -0.02176,0.0056 -0.06228,0.0124 -0.09005,0.01522 -0.0343,0.0034 -0.04577,0.05567 -0.03577,0.162968 0.01853,0.198756 -0.08836,0.328497 -0.245372,0.297806 -0.09807,-0.01917 -0.103498,-0.01147 -0.103498,0.146264 0,0.116763 -0.01676,0.1665 -0.0561,0.1665 -0.03085,0 -0.08426,0.01109 -0.118672,0.02456 -0.0514,0.02016 -0.06257,-0.0083 -0.06257,-0.159455 v -0.184012 l -0.165489,-0.0124 c -0.165301,-0.0124 -0.165497,-0.01259 -0.17165,-0.184332 -0.01018,-0.284048 -0.0077,-0.279982 -0.167211,-0.272983 -0.22592,0.01 -0.235526,-9.58e-4 -0.215784,-0.244388 l 0.0179,-0.220787 h -0.323824 -0.32382 l 0.01235,0.252795 -0.0083,0.222519 c -0.0072,0.193936 0.467023,0.0807 0.435432,0.131382 -0.0208,0.03337 -0.03808,0.128919 -0.03841,0.212347 l -6.15e-4,0.151675 h 0.175731 0.175731 l 0.01216,0.171893 0.01216,0.171893 0.207674,0.01222 0.207674,0.01222 v 0.139461 0.139443 h -0.221547 -0.221546 l 0.01414,0.182002 0.01414,0.182021 -0.138734,6.29e-4 c -0.2116,9.58e-4 -0.246994,0.0413 -0.22505,0.25663 l 0.01913,0.187658 h -0.189244 c -0.162814,0 -0.192575,0.01278 -0.213096,0.091 -0.0328,0.125161 -0.03097,0.374703 0.003,0.409444 0.01536,0.01578 0.153323,0.0233 0.306566,0.01691 l 0.278627,-0.01165 z m -0.929587,0.637113 c -0.05071,-0.0335 -0.04927,-0.03929 0.0099,-0.03983 0.03807,-3.44e-4 0.06922,0.01766 0.06922,0.03983 0,0.04932 -0.0045,0.04932 -0.07911,0 z"
       id="path410" /></g><g
     id="g412"
     transform="matrix(-1.3569086,0,0,1.0690975,15.438655,-24.115373)"
     style="fill:#a2a2a2;fill-opacity:1"><path
       style="fill:#a2a2a2;fill-opacity:1;stroke-width:0.331512"
       d="m -6.3082009,33.229434 v -0.38228 H -6.765299 -7.2223975 l 0.00706,-0.24211 c 0.015664,-0.53814 0.021524,-0.522448 -0.1951622,-0.522448 H -7.6050335 V 31.85324 31.623861 l 0.2053328,8.8e-5 0.2053329,8.8e-5 v -0.369625 -0.369627 l 0.4430862,-0.01446 0.4430866,-0.01446 V 30.47534 30.094846 h 0.4755075 0.4755078 v 0.382278 0.38228 h 0.4538925 0.453894 v 0.38228 0.38228 h 0.194518 0.194525 v 0.229379 0.229356 h -0.194521 -0.194526 v 0.382279 0.382279 h -0.4538931 -0.4538933 v 0.382281 0.382277 h -0.4755081 -0.4755074 z m 0.6828158,-0.751817 0.012792,-0.344052 h 0.2527673 c 0.2824765,0 0.3052454,-0.02692 0.3052454,-0.360961 v -0.19971 h -0.2809819 -0.2809819 v -0.325638 -0.325634 l -0.1454955,-0.03218 c -0.080022,-0.01774 -0.1804761,-0.01632 -0.2232311,0.0031 -0.023912,0.01682 -0.018917,0.09375 -0.042868,0.212379 -0.00774,0.04721 -0.015544,0.169706 -0.017371,0.272246 l -0.00331,0.186426 -0.2410264,0.01753 c -0.1325643,0.0097 -0.270448,-0.002 -0.3064079,-0.02581 -0.054586,-0.03613 -0.057615,-0.02616 -0.018336,0.06035 0.025872,0.05699 0.047041,0.184981 0.047041,0.284416 0,0.151333 0.017974,0.186095 0.1104176,0.213444 0.060729,0.018 0.1774438,0.01989 0.2593676,0.0043 l 0.1489513,-0.02851 v 0.349342 c 0,0.383528 0.016909,0.409163 0.2593674,0.393252 l 0.1512968,-0.0099 z m -1.0293011,-0.739074 c -0.00152,-0.08795 -0.079786,-0.176055 -0.1262885,-0.14217 -0.038009,0.0277 -0.037896,0.05398 4.58e-4,0.108475 0.054229,0.07705 0.1269151,0.09652 0.1258305,0.0337 z m -0.042565,-0.242109 c 0,-0.01397 -0.00972,-0.02548 -0.021615,-0.02548 -0.011888,0 -0.021615,0.01136 -0.021615,0.02548 0,0.01397 0.00972,0.02548 0.021615,0.02548 0.011888,0 0.021615,-0.01135 0.021615,-0.02548 z"
       id="path411" /><path
       style="fill:#a2a2a2;fill-opacity:1;stroke-width:0.288098"
       d="m -7.5538221,25.171134 c 0,-0.280264 0.01681,-0.442066 0.04942,-0.475398 0.03899,-0.03988 0.03828,-0.06878 -0.0034,-0.137015 -0.0399,-0.06533 -0.05232,-0.32997 -0.05076,-1.081762 0.0011,-0.547404 0.0027,-1.009199 0.0034,-1.026216 7.16e-4,-0.01705 0.382567,-0.03093 0.848511,-0.03093 h 0.8471692 v 1.361225 1.361227 h 0.136257 c 0.148759,0 0.272044,-0.09718 0.172724,-0.136153 -0.04071,-0.01591 -0.05807,-0.113712 -0.06311,-0.355435 l -0.0069,-0.333404 h 0.122595 c 0.12022,0 0.122596,-0.004 0.122596,-0.206247 0,-0.201662 0.0027,-0.206246 0.121025,-0.206246 h 0.121026 v -0.247493 -0.247496 h 0.141194 0.1411961 v -0.203507 c 0,-0.191342 0.0067,-0.204286 0.110939,-0.216558 0.108477,-0.01284 0.111202,-0.01974 0.122842,-0.314669 0.01188,-0.300964 0.01215,-0.301589 0.121026,-0.288744 l 0.109122,0.01283 0.01057,1.577782 0.01057,1.577784 H -5.2336419 -6.1014624 V 24.19349 22.832264 h -0.1210247 -0.121026 v 0.412494 0.412491 h -0.121026 c -0.116542,0 -0.121026,0.0069 -0.121026,0.185612 0,0.178751 -0.0045,0.185631 -0.121025,0.185631 h -0.121026 v 0.26812 0.268121 l -0.131111,-2.6e-5 -0.131108,-2.6e-5 0.01379,0.203377 0.01379,0.203375 -0.134813,0.01321 -0.134813,0.01321 -0.01184,0.299056 c -0.01135,0.286783 -0.01593,0.299057 -0.11094,0.299057 -0.09881,0 -0.09909,-0.0012 -0.09909,-0.424867 z m 2.9237783,-0.777967 0.01528,-0.728468 -0.128175,0.0067 c -0.126053,0.0065 -0.128176,0.01 -0.128176,0.212853 0,0.194332 -0.0064,0.206999 -0.1109391,0.219298 -0.06349,0.0075 -0.110939,0.03834 -0.110939,0.07219 0,0.109286 -0.0046,0.120727 -0.08349,0.206567 -0.113217,0.123217 -0.03637,0.104533 -0.0781,0.134485 -0.0453,0.03252 -0.163086,0.0069 -0.163086,0.03197 -0.01349,0.117928 -0.01437,0.262014 -0.01567,0.307541 0.112423,0.01514 0.195769,-0.03641 0.05795,0.186532 v 0.102618 l 0.365033,-0.01189 0.3650321,-0.01188 z m -2.4565953,-0.302763 c 0.0032,-0.200574 0.0068,-0.206601 0.131109,-0.219172 0.124175,-0.01246 0.127854,-0.01859 0.127854,-0.212045 0,-0.196725 0.0017,-0.199323 0.140707,-0.215916 0.06297,0.01457 0.129022,0.005 0.193535,0.0077 -0.06444,-0.07598 -0.09085,-0.168614 -0.09997,-0.35062 l -0.01239,-0.247351 -0.352987,-0.01188 -0.352988,-0.01189 v 0.746833 0.746832 l 0.110939,-0.01302 c 0.104015,-0.01226 0.111143,-0.02593 0.114194,-0.219299 z"
       id="path412" /></g><g
     id="g414"
     transform="matrix(-1.3569086,0,0,1.0690975,15.523462,-32.734972)"
     style="fill:#a2a2a2;fill-opacity:1"><path
       style="fill:#a2a2a2;fill-opacity:1;stroke-width:0.282496"
       d="m -5.1667686,29.926985 c -4.75e-4,-0.03927 -0.256264,-0.05057 -1.145422,-0.05057 -0.72054,0 -1.153875,-0.01503 -1.169262,-0.04046 -0.01345,-0.02225 -0.05891,-0.04046 -0.101031,-0.04046 -0.07464,0 -0.07649,-0.04536 -0.07298,-1.786493 0.002,-0.982572 0.0127,-1.810725 0.02382,-1.840341 0.01643,-0.04376 0.36408,-0.05385 1.856143,-0.05385 h 1.8359343 l -0.02133,0.0203 v 1.87069 1.870693 l -0.427571,-1.5e-5 c -0.253206,-0.05421 -0.588364,-0.0019 -0.7783303,0.05055 z m -1.483989,-0.687668 v -0.212418 l 0.158227,-0.0047 c 0.08703,-0.0026 0.181492,-0.0015 0.209925,0.0024 0.02843,0.004 0.04858,-0.01672 0.04476,-0.04577 -0.0038,-0.02907 -0.0048,-0.144347 -0.0023,-0.256165 l 0.0047,-0.203303 0.153186,0.01503 0.153184,0.01485 0.02638,-0.179861 c 0.02425,-0.165316 0.03442,-0.178281 0.125887,-0.160412 0.07205,0.01409 0.0977,0.04314 0.09296,0.10532 -0.01525,0.199909 -2.53e-4,0.237521 0.08557,0.214575 0.135915,-0.03634 0.279353,0.04006 0.271093,0.144403 -0.004,0.05 -0.0052,0.150059 -0.0028,0.222363 0.0043,0.129992 0.0065,0.131456 0.200096,0.131456 h 0.1957173 l 0.01197,0.212347 0.01197,0.212348 0.286787,0.01183 0.286788,0.01183 v -0.264677 -0.264679 l -0.207674,5.6e-5 -0.207673,5.5e-5 0.01355,-0.222514 0.01355,-0.222515 h -0.181687 -0.1816663 v -0.179897 -0.179898 l -0.207674,-0.01222 c -0.20252,-0.01184 -0.207982,-0.01541 -0.220069,-0.14367 -0.01026,-0.10904 0.0012,-0.131455 0.06736,-0.131455 0.04387,0 0.124975,0.02107 0.180237,0.04681 0.09213,0.04293 0.118222,0.03033 0.3140493,-0.151675 0.213327,-0.198258 0.213575,-0.198774 0.217838,-0.451279 l 0.0043,-0.25279 h 0.197783 0.197784 V 26.782185 26.51928 h -0.296677 -0.296677 v 0.222457 c 0,0.219089 -0.0018,0.222537 -0.118672,0.227516 -0.06527,0.0028 -0.1364703,0.0096 -0.1582273,0.01522 -0.02176,0.0056 -0.06228,0.0124 -0.09005,0.01522 -0.0343,0.0034 -0.04577,0.05567 -0.03577,0.162968 0.01853,0.198756 -0.08836,0.328497 -0.245372,0.297806 -0.09807,-0.01917 -0.103498,-0.01147 -0.103498,0.146264 0,0.116763 -0.01676,0.1665 -0.0561,0.1665 -0.03085,0 -0.08426,0.01109 -0.118672,0.02456 -0.0514,0.02016 -0.06257,-0.0083 -0.06257,-0.159455 v -0.184012 l -0.165489,-0.0124 c -0.165301,-0.0124 -0.165497,-0.01259 -0.17165,-0.184332 -0.01018,-0.284048 -0.0077,-0.279982 -0.167211,-0.272983 -0.22592,0.01 -0.235526,-9.58e-4 -0.215784,-0.244388 l 0.0179,-0.220787 h -0.323824 -0.32382 l 0.01235,0.252795 -0.0083,0.222519 c -0.0072,0.193936 0.467023,0.0807 0.435432,0.131382 -0.0208,0.03337 -0.03808,0.128919 -0.03841,0.212347 l -6.15e-4,0.151675 h 0.175731 0.175731 l 0.01216,0.171893 0.01216,0.171893 0.207674,0.01222 0.207674,0.01222 v 0.139461 0.139443 h -0.221547 -0.221546 l 0.01414,0.182002 0.01414,0.182021 -0.138734,6.29e-4 c -0.2116,9.58e-4 -0.246994,0.0413 -0.22505,0.25663 l 0.01913,0.187658 h -0.189244 c -0.162814,0 -0.192575,0.01278 -0.213096,0.091 -0.0328,0.125161 -0.03097,0.374703 0.003,0.409444 0.01536,0.01578 0.153323,0.0233 0.306566,0.01691 l 0.278627,-0.01165 z m -0.929587,0.637113 c -0.05071,-0.0335 -0.04927,-0.03929 0.0099,-0.03983 0.03807,-3.44e-4 0.06922,0.01766 0.06922,0.03983 0,0.04932 -0.0045,0.04932 -0.07911,0 z"
       id="path413" /><path
       style="fill:#a2a2a2;fill-opacity:1;stroke-width:0.288098"
       d="m -7.7267268,37.893152 1.885e-4,-1.907765 -0.01086,-1.907777 c 0,0 0.102028,-0.02695 0.598562,0.01246 0.496534,0.03936 1.283704,0.01036 1.985394,0.01782 1.009561,0.01054 1.010096,0.03106 1.060489,0.09352 0.244281,0.302795 0.126088,1.318168 0.125727,1.952236 -0.01162,1.433183 -0.0029,1.627135 -0.0024,1.738759 l -1.883873,0.01073 -1.2872607,0.01073 m 1.4809247,-0.783786 v -0.35062 h 0.20529 0.20529 l -0.01366,-0.244514 -0.01366,-0.244515 0.252966,-0.01321 c 0.139131,-0.0073 0.266206,-0.0086 0.28239,-0.0031 0.01618,0.0055 0.02395,0.279424 0.01726,0.608427 l -0.01217,0.598219 h 0.244121 0.244122 v -1.443735 -1.443725 h -0.252266 -0.252267 l 0.0068,0.48468 c 0.01008,0.718556 0.01997,0.693736 -0.269667,0.676949 l -0.241127,-0.01399 v -0.24383 -0.243831 h -0.202525 -0.202519 l 0.01473,-0.329995 0.01473,-0.329992 h -0.255966 -0.255967 v 0.572806 0.572808 l -0.128887,0.01934 c -0.219154,0.03288 -0.269014,-5.61e-4 -0.282494,-0.18954 l -0.0122,-0.17107 h -0.443763 -0.443756 l -0.0067,0.123753 c -0.0037,0.06807 0.0035,0.351134 0.01599,0.629051 l 0.02272,0.505304 h 0.358445 c 0.251575,0 0.363076,0.01533 0.373979,0.05156 0.0085,0.02836 0.02597,0.100566 0.03873,0.16045 0.01276,0.05988 0.421411,0.102004 0.459289,0.08125 0.06159,-0.03376 0.06792,-0.01302 0.05989,0.195429 -0.01263,0.32787 -0.0064,0.336304 0.249767,0.336304 h 0.223143 z"
       id="path414" /></g><g
     id="g415"
     transform="matrix(-1.0181334,0,0,0.8701001,16.824943,-34.274502)"
     style="fill:#a2a2a2;fill-opacity:1"><path
       style="fill:#a2a2a2;fill-opacity:1;stroke-width:0.331512"
       d="m -6.3082009,33.229434 v -0.38228 H -6.765299 -7.2223975 l 0.00706,-0.24211 c 0.015664,-0.53814 0.021524,-0.522448 -0.1951622,-0.522448 H -7.6050335 V 31.85324 31.623861 l 0.2053328,8.8e-5 0.2053329,8.8e-5 v -0.369625 -0.369627 l 0.4430862,-0.01446 0.4430866,-0.01446 V 30.47534 30.094846 h 0.4755075 0.4755078 v 0.382278 0.38228 h 0.4538925 0.453894 v 0.38228 0.38228 h 0.194518 0.194525 v 0.229379 0.229356 h -0.194521 -0.194526 v 0.382279 0.382279 h -0.4538931 -0.4538933 v 0.382281 0.382277 h -0.4755081 -0.4755074 z m 0.6828158,-0.751817 0.012792,-0.344052 h 0.2527673 c 0.2824765,0 0.3052454,-0.02692 0.3052454,-0.360961 v -0.19971 h -0.2809819 -0.2809819 v -0.325638 -0.325634 l -0.1454955,-0.03218 c -0.080022,-0.01774 -0.1804761,-0.01632 -0.2232311,0.0031 -0.023912,0.01682 -0.018917,0.09375 -0.042868,0.212379 -0.00774,0.04721 -0.015544,0.169706 -0.017371,0.272246 l -0.00331,0.186426 -0.2410264,0.01753 c -0.1325643,0.0097 -0.270448,-0.002 -0.3064079,-0.02581 -0.054586,-0.03613 -0.057615,-0.02616 -0.018336,0.06035 0.025872,0.05699 0.047041,0.184981 0.047041,0.284416 0,0.151333 0.017974,0.186095 0.1104176,0.213444 0.060729,0.018 0.1774438,0.01989 0.2593676,0.0043 l 0.1489513,-0.02851 v 0.349342 c 0,0.383528 0.016909,0.409163 0.2593674,0.393252 l 0.1512968,-0.0099 z m -1.0293011,-0.739074 c -0.00152,-0.08795 -0.079786,-0.176055 -0.1262885,-0.14217 -0.038009,0.0277 -0.037896,0.05398 4.58e-4,0.108475 0.054229,0.07705 0.1269151,0.09652 0.1258305,0.0337 z m -0.042565,-0.242109 c 0,-0.01397 -0.00972,-0.02548 -0.021615,-0.02548 -0.011888,0 -0.021615,0.01136 -0.021615,0.02548 0,0.01397 0.00972,0.02548 0.021615,0.02548 0.011888,0 0.021615,-0.01135 0.021615,-0.02548 z"
       id="path415" /></g><g
     id="g416"
     transform="matrix(-1.1262167,0,0,0.88962937,16.281325,-10.060362)"
     style="fill:#a2a2a2;fill-opacity:1"><path
       style="fill:#a2a2a2;fill-opacity:1;stroke-width:0.331512"
       d="m -6.3082009,33.229434 v -0.38228 H -6.765299 -7.2223975 l 0.00706,-0.24211 c 0.015664,-0.53814 0.021524,-0.522448 -0.1951622,-0.522448 H -7.6050335 V 31.85324 31.623861 l 0.2053328,8.8e-5 0.2053329,8.8e-5 v -0.369625 -0.369627 l 0.4430862,-0.01446 0.4430866,-0.01446 V 30.47534 30.094846 h 0.4755075 0.4755078 v 0.382278 0.38228 h 0.4538925 0.453894 v 0.38228 0.38228 h 0.194518 0.194525 v 0.229379 0.229356 h -0.194521 -0.194526 v 0.382279 0.382279 h -0.4538931 -0.4538933 v 0.382281 0.382277 h -0.4755081 -0.4755074 z m 0.6828158,-0.751817 0.012792,-0.344052 h 0.2527673 c 0.2824765,0 0.3052454,-0.02692 0.3052454,-0.360961 v -0.19971 h -0.2809819 -0.2809819 v -0.325638 -0.325634 l -0.1454955,-0.03218 c -0.080022,-0.01774 -0.1804761,-0.01632 -0.2232311,0.0031 -0.023912,0.01682 -0.018917,0.09375 -0.042868,0.212379 -0.00774,0.04721 -0.015544,0.169706 -0.017371,0.272246 l -0.00331,0.186426 -0.2410264,0.01753 c -0.1325643,0.0097 -0.270448,-0.002 -0.3064079,-0.02581 -0.054586,-0.03613 -0.057615,-0.02616 -0.018336,0.06035 0.025872,0.05699 0.047041,0.184981 0.047041,0.284416 0,0.151333 0.017974,0.186095 0.1104176,0.213444 0.060729,0.018 0.1774438,0.01989 0.2593676,0.0043 l 0.1489513,-0.02851 v 0.349342 c 0,0.383528 0.016909,0.409163 0.2593674,0.393252 l 0.1512968,-0.0099 z m -1.0293011,-0.739074 c -0.00152,-0.08795 -0.079786,-0.176055 -0.1262885,-0.14217 -0.038009,0.0277 -0.037896,0.05398 4.58e-4,0.108475 0.054229,0.07705 0.1269151,0.09652 0.1258305,0.0337 z m -0.042565,-0.242109 c 0,-0.01397 -0.00972,-0.02548 -0.021615,-0.02548 -0.011888,0 -0.021615,0.01136 -0.021615,0.02548 0,0.01397 0.00972,0.02548 0.021615,0.02548 0.011888,0 0.021615,-0.01135 0.021615,-0.02548 z"
       id="path416" /></g><g
     id="g403"
     transform="matrix(-1.6832653,-0.00881526,0.00770929,-1.0944212,7.5791939,12.800075)"
     style="fill:#a2a2a2;fill-opacity:1"><g
       id="g397"
       transform="matrix(0.8293026,0,0,1,2.7192971,-13.663379)"
       style="fill:#a2a2a2;fill-opacity:1"><path
         style="fill:#a2a2a2;fill-opacity:1;stroke-width:0.282496"
         d="m -5.1667686,29.926985 c -4.75e-4,-0.03927 -0.256264,-0.05057 -1.145422,-0.05057 -0.72054,0 -1.153875,-0.01503 -1.169262,-0.04046 -0.01345,-0.02225 -0.05891,-0.04046 -0.101031,-0.04046 -0.07464,0 -0.07649,-0.04536 -0.07298,-1.786493 0.002,-0.982572 0.0127,-1.810725 0.02382,-1.840341 0.01643,-0.04376 0.36408,-0.05385 1.856143,-0.05385 h 1.8359343 l -0.02133,0.0203 v 1.87069 1.870693 l -0.427571,-1.5e-5 c -0.253206,-0.05421 -0.588364,-0.0019 -0.7783303,0.05055 z m -1.483989,-0.687668 v -0.212418 l 0.158227,-0.0047 c 0.08703,-0.0026 0.181492,-0.0015 0.209925,0.0024 0.02843,0.004 0.04858,-0.01672 0.04476,-0.04577 -0.0038,-0.02907 -0.0048,-0.144347 -0.0023,-0.256165 l 0.0047,-0.203303 0.153186,0.01503 0.153184,0.01485 0.02638,-0.179861 c 0.02425,-0.165316 0.03442,-0.178281 0.125887,-0.160412 0.07205,0.01409 0.0977,0.04314 0.09296,0.10532 -0.01525,0.199909 -2.53e-4,0.237521 0.08557,0.214575 0.135915,-0.03634 0.279353,0.04006 0.271093,0.144403 -0.004,0.05 -0.0052,0.150059 -0.0028,0.222363 0.0043,0.129992 0.0065,0.131456 0.200096,0.131456 h 0.1957173 l 0.01197,0.212347 0.01197,0.212348 0.286787,0.01183 0.286788,0.01183 v -0.264677 -0.264679 l -0.207674,5.6e-5 -0.207673,5.5e-5 0.01355,-0.222514 0.01355,-0.222515 h -0.181687 -0.1816663 v -0.179897 -0.179898 l -0.207674,-0.01222 c -0.20252,-0.01184 -0.207982,-0.01541 -0.220069,-0.14367 -0.01026,-0.10904 0.0012,-0.131455 0.06736,-0.131455 0.04387,0 0.124975,0.02107 0.180237,0.04681 0.09213,0.04293 0.118222,0.03033 0.3140493,-0.151675 0.213327,-0.198258 0.213575,-0.198774 0.217838,-0.451279 l 0.0043,-0.25279 h 0.197783 0.197784 V 26.782185 26.51928 h -0.296677 -0.296677 v 0.222457 c 0,0.219089 -0.0018,0.222537 -0.118672,0.227516 -0.06527,0.0028 -0.1364703,0.0096 -0.1582273,0.01522 -0.02176,0.0056 -0.06228,0.0124 -0.09005,0.01522 -0.0343,0.0034 -0.04577,0.05567 -0.03577,0.162968 0.01853,0.198756 -0.08836,0.328497 -0.245372,0.297806 -0.09807,-0.01917 -0.103498,-0.01147 -0.103498,0.146264 0,0.116763 -0.01676,0.1665 -0.0561,0.1665 -0.03085,0 -0.08426,0.01109 -0.118672,0.02456 -0.0514,0.02016 -0.06257,-0.0083 -0.06257,-0.159455 v -0.184012 l -0.165489,-0.0124 c -0.165301,-0.0124 -0.165497,-0.01259 -0.17165,-0.184332 -0.01018,-0.284048 -0.0077,-0.279982 -0.167211,-0.272983 -0.22592,0.01 -0.235526,-9.58e-4 -0.215784,-0.244388 l 0.0179,-0.220787 h -0.323824 -0.32382 l 0.01235,0.252795 -0.0083,0.222519 c -0.0072,0.193936 0.467023,0.0807 0.435432,0.131382 -0.0208,0.03337 -0.03808,0.128919 -0.03841,0.212347 l -6.15e-4,0.151675 h 0.175731 0.175731 l 0.01216,0.171893 0.01216,0.171893 0.207674,0.01222 0.207674,0.01222 v 0.139461 0.139443 h -0.221547 -0.221546 l 0.01414,0.182002 0.01414,0.182021 -0.138734,6.29e-4 c -0.2116,9.58e-4 -0.246994,0.0413 -0.22505,0.25663 l 0.01913,0.187658 h -0.189244 c -0.162814,0 -0.192575,0.01278 -0.213096,0.091 -0.0328,0.125161 -0.03097,0.374703 0.003,0.409444 0.01536,0.01578 0.153323,0.0233 0.306566,0.01691 l 0.278627,-0.01165 z m -0.929587,0.637113 c -0.05071,-0.0335 -0.04927,-0.03929 0.0099,-0.03983 0.03807,-3.44e-4 0.06922,0.01766 0.06922,0.03983 0,0.04932 -0.0045,0.04932 -0.07911,0 z"
         id="path396" /></g><g
       id="g398"
       transform="matrix(0.8293026,0,0,1,2.7192971,-21.663379)"
       style="fill:#a2a2a2;fill-opacity:1"><path
         style="fill:#a2a2a2;fill-opacity:1;stroke-width:0.331512"
         d="m -6.3082009,33.229434 v -0.38228 H -6.765299 -7.2223975 l 0.00706,-0.24211 c 0.015664,-0.53814 0.021524,-0.522448 -0.1951622,-0.522448 H -7.6050335 V 31.85324 31.623861 l 0.2053328,8.8e-5 0.2053329,8.8e-5 v -0.369625 -0.369627 l 0.4430862,-0.01446 0.4430866,-0.01446 V 30.47534 30.094846 h 0.4755075 0.4755078 v 0.382278 0.38228 h 0.4538925 0.453894 v 0.38228 0.38228 h 0.194518 0.194525 v 0.229379 0.229356 h -0.194521 -0.194526 v 0.382279 0.382279 h -0.4538931 -0.4538933 v 0.382281 0.382277 h -0.4755081 -0.4755074 z m 0.6828158,-0.751817 0.012792,-0.344052 h 0.2527673 c 0.2824765,0 0.3052454,-0.02692 0.3052454,-0.360961 v -0.19971 h -0.2809819 -0.2809819 v -0.325638 -0.325634 l -0.1454955,-0.03218 c -0.080022,-0.01774 -0.1804761,-0.01632 -0.2232311,0.0031 -0.023912,0.01682 -0.018917,0.09375 -0.042868,0.212379 -0.00774,0.04721 -0.015544,0.169706 -0.017371,0.272246 l -0.00331,0.186426 -0.2410264,0.01753 c -0.1325643,0.0097 -0.270448,-0.002 -0.3064079,-0.02581 -0.054586,-0.03613 -0.057615,-0.02616 -0.018336,0.06035 0.025872,0.05699 0.047041,0.184981 0.047041,0.284416 0,0.151333 0.017974,0.186095 0.1104176,0.213444 0.060729,0.018 0.1774438,0.01989 0.2593676,0.0043 l 0.1489513,-0.02851 v 0.349342 c 0,0.383528 0.016909,0.409163 0.2593674,0.393252 l 0.1512968,-0.0099 z m -1.0293011,-0.739074 c -0.00152,-0.08795 -0.079786,-0.176055 -0.1262885,-0.14217 -0.038009,0.0277 -0.037896,0.05398 4.58e-4,0.108475 0.054229,0.07705 0.1269151,0.09652 0.1258305,0.0337 z m -0.042565,-0.242109 c 0,-0.01397 -0.00972,-0.02548 -0.021615,-0.02548 -0.011888,0 -0.021615,0.01136 -0.021615,0.02548 0,0.01397 0.00972,0.02548 0.021615,0.02548 0.011888,0 0.021615,-0.01135 0.021615,-0.02548 z"
         id="path397" /><path
         style="fill:#a2a2a2;fill-opacity:1;stroke-width:0.288098"
         d="m -7.5538221,25.171134 c 0,-0.280264 0.01681,-0.442066 0.04942,-0.475398 0.03899,-0.03988 0.03828,-0.06878 -0.0034,-0.137015 -0.0399,-0.06533 -0.05232,-0.32997 -0.05076,-1.081762 0.0011,-0.547404 0.0027,-1.009199 0.0034,-1.026216 7.16e-4,-0.01705 0.382567,-0.03093 0.848511,-0.03093 h 0.8471692 v 1.361225 1.361227 h 0.136257 c 0.148759,0 0.272044,-0.09718 0.172724,-0.136153 -0.04071,-0.01591 -0.05807,-0.113712 -0.06311,-0.355435 l -0.0069,-0.333404 h 0.122595 c 0.12022,0 0.122596,-0.004 0.122596,-0.206247 0,-0.201662 0.0027,-0.206246 0.121025,-0.206246 h 0.121026 v -0.247493 -0.247496 h 0.141194 0.1411961 v -0.203507 c 0,-0.191342 0.0067,-0.204286 0.110939,-0.216558 0.108477,-0.01284 0.111202,-0.01974 0.122842,-0.314669 0.01188,-0.300964 0.01215,-0.301589 0.121026,-0.288744 l 0.109122,0.01283 0.01057,1.577782 0.01057,1.577784 H -5.2336419 -6.1014624 V 24.19349 22.832264 h -0.1210247 -0.121026 v 0.412494 0.412491 h -0.121026 c -0.116542,0 -0.121026,0.0069 -0.121026,0.185612 0,0.178751 -0.0045,0.185631 -0.121025,0.185631 h -0.121026 v 0.26812 0.268121 l -0.131111,-2.6e-5 -0.131108,-2.6e-5 0.01379,0.203377 0.01379,0.203375 -0.134813,0.01321 -0.134813,0.01321 -0.01184,0.299056 c -0.01135,0.286783 -0.01593,0.299057 -0.11094,0.299057 -0.09881,0 -0.09909,-0.0012 -0.09909,-0.424867 z m 2.9237783,-0.777967 0.01528,-0.728468 -0.128175,0.0067 c -0.126053,0.0065 -0.128176,0.01 -0.128176,0.212853 0,0.194332 -0.0064,0.206999 -0.1109391,0.219298 -0.06349,0.0075 -0.110939,0.03834 -0.110939,0.07219 0,0.109286 -0.0046,0.120727 -0.08349,0.206567 -0.113217,0.123217 -0.03637,0.104533 -0.0781,0.134485 -0.0453,0.03252 -0.163086,0.0069 -0.163086,0.03197 -0.01349,0.117928 -0.01437,0.262014 -0.01567,0.307541 0.112423,0.01514 0.195769,-0.03641 0.05795,0.186532 v 0.102618 l 0.365033,-0.01189 0.3650321,-0.01188 z m -2.4565953,-0.302763 c 0.0032,-0.200574 0.0068,-0.206601 0.131109,-0.219172 0.124175,-0.01246 0.127854,-0.01859 0.127854,-0.212045 0,-0.196725 0.0017,-0.199323 0.140707,-0.215916 0.06297,0.01457 0.129022,0.005 0.193535,0.0077 -0.06444,-0.07598 -0.09085,-0.168614 -0.09997,-0.35062 l -0.01239,-0.247351 -0.352987,-0.01188 -0.352988,-0.01189 v 0.746833 0.746832 l 0.110939,-0.01302 c 0.104015,-0.01226 0.111143,-0.02593 0.114194,-0.219299 z"
         id="path398" /></g><g
       id="g400"
       transform="matrix(0.8293026,0,0,1,2.6674658,-29.725879)"
       style="fill:#a2a2a2;fill-opacity:1"><path
         style="fill:#a2a2a2;fill-opacity:1;stroke-width:0.282496"
         d="m -5.1667686,29.926985 c -4.75e-4,-0.03927 -0.256264,-0.05057 -1.145422,-0.05057 -0.72054,0 -1.153875,-0.01503 -1.169262,-0.04046 -0.01345,-0.02225 -0.05891,-0.04046 -0.101031,-0.04046 -0.07464,0 -0.07649,-0.04536 -0.07298,-1.786493 0.002,-0.982572 0.0127,-1.810725 0.02382,-1.840341 0.01643,-0.04376 0.36408,-0.05385 1.856143,-0.05385 h 1.8359343 l -0.02133,0.0203 v 1.87069 1.870693 l -0.427571,-1.5e-5 c -0.253206,-0.05421 -0.588364,-0.0019 -0.7783303,0.05055 z m -1.483989,-0.687668 v -0.212418 l 0.158227,-0.0047 c 0.08703,-0.0026 0.181492,-0.0015 0.209925,0.0024 0.02843,0.004 0.04858,-0.01672 0.04476,-0.04577 -0.0038,-0.02907 -0.0048,-0.144347 -0.0023,-0.256165 l 0.0047,-0.203303 0.153186,0.01503 0.153184,0.01485 0.02638,-0.179861 c 0.02425,-0.165316 0.03442,-0.178281 0.125887,-0.160412 0.07205,0.01409 0.0977,0.04314 0.09296,0.10532 -0.01525,0.199909 -2.53e-4,0.237521 0.08557,0.214575 0.135915,-0.03634 0.279353,0.04006 0.271093,0.144403 -0.004,0.05 -0.0052,0.150059 -0.0028,0.222363 0.0043,0.129992 0.0065,0.131456 0.200096,0.131456 h 0.1957173 l 0.01197,0.212347 0.01197,0.212348 0.286787,0.01183 0.286788,0.01183 v -0.264677 -0.264679 l -0.207674,5.6e-5 -0.207673,5.5e-5 0.01355,-0.222514 0.01355,-0.222515 h -0.181687 -0.1816663 v -0.179897 -0.179898 l -0.207674,-0.01222 c -0.20252,-0.01184 -0.207982,-0.01541 -0.220069,-0.14367 -0.01026,-0.10904 0.0012,-0.131455 0.06736,-0.131455 0.04387,0 0.124975,0.02107 0.180237,0.04681 0.09213,0.04293 0.118222,0.03033 0.3140493,-0.151675 0.213327,-0.198258 0.213575,-0.198774 0.217838,-0.451279 l 0.0043,-0.25279 h 0.197783 0.197784 V 26.782185 26.51928 h -0.296677 -0.296677 v 0.222457 c 0,0.219089 -0.0018,0.222537 -0.118672,0.227516 -0.06527,0.0028 -0.1364703,0.0096 -0.1582273,0.01522 -0.02176,0.0056 -0.06228,0.0124 -0.09005,0.01522 -0.0343,0.0034 -0.04577,0.05567 -0.03577,0.162968 0.01853,0.198756 -0.08836,0.328497 -0.245372,0.297806 -0.09807,-0.01917 -0.103498,-0.01147 -0.103498,0.146264 0,0.116763 -0.01676,0.1665 -0.0561,0.1665 -0.03085,0 -0.08426,0.01109 -0.118672,0.02456 -0.0514,0.02016 -0.06257,-0.0083 -0.06257,-0.159455 v -0.184012 l -0.165489,-0.0124 c -0.165301,-0.0124 -0.165497,-0.01259 -0.17165,-0.184332 -0.01018,-0.284048 -0.0077,-0.279982 -0.167211,-0.272983 -0.22592,0.01 -0.235526,-9.58e-4 -0.215784,-0.244388 l 0.0179,-0.220787 h -0.323824 -0.32382 l 0.01235,0.252795 -0.0083,0.222519 c -0.0072,0.193936 0.467023,0.0807 0.435432,0.131382 -0.0208,0.03337 -0.03808,0.128919 -0.03841,0.212347 l -6.15e-4,0.151675 h 0.175731 0.175731 l 0.01216,0.171893 0.01216,0.171893 0.207674,0.01222 0.207674,0.01222 v 0.139461 0.139443 h -0.221547 -0.221546 l 0.01414,0.182002 0.01414,0.182021 -0.138734,6.29e-4 c -0.2116,9.58e-4 -0.246994,0.0413 -0.22505,0.25663 l 0.01913,0.187658 h -0.189244 c -0.162814,0 -0.192575,0.01278 -0.213096,0.091 -0.0328,0.125161 -0.03097,0.374703 0.003,0.409444 0.01536,0.01578 0.153323,0.0233 0.306566,0.01691 l 0.278627,-0.01165 z m -0.929587,0.637113 c -0.05071,-0.0335 -0.04927,-0.03929 0.0099,-0.03983 0.03807,-3.44e-4 0.06922,0.01766 0.06922,0.03983 0,0.04932 -0.0045,0.04932 -0.07911,0 z"
         id="path399" /><path
         style="fill:#a2a2a2;fill-opacity:1;stroke-width:0.288098"
         d="m -7.7267268,37.893152 1.885e-4,-1.907765 -0.01086,-1.907777 c 0,0 0.102028,-0.02695 0.598562,0.01246 0.496534,0.03936 1.283704,0.01036 1.985394,0.01782 1.009561,0.01054 1.010096,0.03106 1.060489,0.09352 0.244281,0.302795 0.126088,1.318168 0.125727,1.952236 -0.01162,1.433183 -0.0029,1.627135 -0.0024,1.738759 l -1.883873,0.01073 -1.2872607,0.01073 m 1.4809247,-0.783786 v -0.35062 h 0.20529 0.20529 l -0.01366,-0.244514 -0.01366,-0.244515 0.252966,-0.01321 c 0.139131,-0.0073 0.266206,-0.0086 0.28239,-0.0031 0.01618,0.0055 0.02395,0.279424 0.01726,0.608427 l -0.01217,0.598219 h 0.244121 0.244122 v -1.443735 -1.443725 h -0.252266 -0.252267 l 0.0068,0.48468 c 0.01008,0.718556 0.01997,0.693736 -0.269667,0.676949 l -0.241127,-0.01399 v -0.24383 -0.243831 h -0.202525 -0.202519 l 0.01473,-0.329995 0.01473,-0.329992 h -0.255966 -0.255967 v 0.572806 0.572808 l -0.128887,0.01934 c -0.219154,0.03288 -0.269014,-5.61e-4 -0.282494,-0.18954 l -0.0122,-0.17107 h -0.443763 -0.443756 l -0.0067,0.123753 c -0.0037,0.06807 0.0035,0.351134 0.01599,0.629051 l 0.02272,0.505304 h 0.358445 c 0.251575,0 0.363076,0.01533 0.373979,0.05156 0.0085,0.02836 0.02597,0.100566 0.03873,0.16045 0.01276,0.05988 0.421411,0.102004 0.459289,0.08125 0.06159,-0.03376 0.06792,-0.01302 0.05989,0.195429 -0.01263,0.32787 -0.0064,0.336304 0.249767,0.336304 h 0.223143 z"
         id="path400" /></g><g
       id="g401"
       transform="matrix(0.75599592,-1.521769e-5,-1.1417605e-5,0.99505621,2.2232606,-37.284345)"
       style="fill:#a2a2a2;fill-opacity:1"><path
         style="fill:#a2a2a2;fill-opacity:1;stroke-width:0.331512"
         d="m -6.3082009,33.229434 v -0.38228 H -6.765299 -7.2223975 l 0.00706,-0.24211 c 0.015664,-0.53814 0.021524,-0.522448 -0.1951622,-0.522448 H -7.6050335 V 31.85324 31.623861 l 0.2053328,8.8e-5 0.2053329,8.8e-5 v -0.369625 -0.369627 l 0.4430862,-0.01446 0.4430866,-0.01446 V 30.47534 30.094846 h 0.4755075 0.4755078 v 0.382278 0.38228 h 0.4538925 0.453894 v 0.38228 0.38228 h 0.194518 0.194525 v 0.229379 0.229356 h -0.194521 -0.194526 v 0.382279 0.382279 h -0.4538931 -0.4538933 v 0.382281 0.382277 h -0.4755081 -0.4755074 z m 0.6828158,-0.751817 0.012792,-0.344052 h 0.2527673 c 0.2824765,0 0.3052454,-0.02692 0.3052454,-0.360961 v -0.19971 h -0.2809819 -0.2809819 v -0.325638 -0.325634 l -0.1454955,-0.03218 c -0.080022,-0.01774 -0.1804761,-0.01632 -0.2232311,0.0031 -0.023912,0.01682 -0.018917,0.09375 -0.042868,0.212379 -0.00774,0.04721 -0.015544,0.169706 -0.017371,0.272246 l -0.00331,0.186426 -0.2410264,0.01753 c -0.1325643,0.0097 -0.270448,-0.002 -0.3064079,-0.02581 -0.054586,-0.03613 -0.057615,-0.02616 -0.018336,0.06035 0.025872,0.05699 0.047041,0.184981 0.047041,0.284416 0,0.151333 0.017974,0.186095 0.1104176,0.213444 0.060729,0.018 0.1774438,0.01989 0.2593676,0.0043 l 0.1489513,-0.02851 v 0.349342 c 0,0.383528 0.016909,0.409163 0.2593674,0.393252 l 0.1512968,-0.0099 z m -1.0293011,-0.739074 c -0.00152,-0.08795 -0.079786,-0.176055 -0.1262885,-0.14217 -0.038009,0.0277 -0.037896,0.05398 4.58e-4,0.108475 0.054229,0.07705 0.1269151,0.09652 0.1258305,0.0337 z m -0.042565,-0.242109 c 0,-0.01397 -0.00972,-0.02548 -0.021615,-0.02548 -0.011888,0 -0.021615,0.01136 -0.021615,0.02548 0,0.01397 0.00972,0.02548 0.021615,0.02548 0.011888,0 0.021615,-0.01135 0.021615,-0.02548 z"
         id="path401" /></g><g
       id="g402"
       transform="matrix(0.83821693,-8.6326543e-4,-6.2080812e-4,0.92458393,2.8312259,-11.588699)"
       style="fill:#a2a2a2;fill-opacity:1"><path
         style="fill:#a2a2a2;fill-opacity:1;stroke-width:0.331512"
         d="m -6.3056848,33.663814 v -0.38228 h -0.4570981 -0.4570985 l 0.00706,-0.24211 c 0.015664,-0.53814 0.021524,-0.522448 -0.1951622,-0.522448 H -7.6025174 V 32.28762 32.058241 l 0.2053328,8.8e-5 0.2053329,8.8e-5 v -0.369625 -0.369627 l 0.4430862,-0.01446 0.4430866,-0.01446 V 30.90972 30.529226 h 0.4755075 0.4755078 v 0.382278 0.38228 h 0.4538925 0.453894 v 0.38228 0.38228 h 0.194518 0.194525 v 0.229379 0.229356 h -0.194521 -0.194526 v 0.382279 0.382279 h -0.4538931 -0.4538933 v 0.382281 0.382277 H -5.8301756 -6.305683 Z m 0.6828158,-0.751817 0.012792,-0.344052 h 0.2527673 c 0.2824765,0 0.3052454,-0.02692 0.3052454,-0.360961 v -0.19971 h -0.2809819 -0.2809819 v -0.325638 -0.325634 l -0.1454955,-0.03218 c -0.080022,-0.01774 -0.1804761,-0.01632 -0.2232311,0.0031 -0.023912,0.01682 -0.018917,0.09375 -0.042868,0.212379 -0.00774,0.04721 -0.015544,0.169706 -0.017371,0.272246 l -0.00331,0.186426 -0.2410264,0.01753 c -0.1325643,0.0097 -0.270448,-0.002 -0.3064079,-0.02581 -0.054586,-0.03613 -0.057615,-0.02616 -0.018336,0.06035 0.025872,0.05699 0.047041,0.184981 0.047041,0.284416 0,0.151333 0.017974,0.186095 0.1104176,0.213444 0.060729,0.018 0.1774438,0.01989 0.2593676,0.0043 l 0.1489513,-0.02851 v 0.349342 c 0,0.383528 0.016909,0.409163 0.2593674,0.393252 l 0.1512968,-0.0099 z m -1.0293011,-0.739074 c -0.00152,-0.08795 -0.079786,-0.176055 -0.1262885,-0.14217 -0.038009,0.0277 -0.037896,0.05398 4.58e-4,0.108475 0.054229,0.07705 0.1269151,0.09652 0.1258305,0.0337 z m -0.042565,-0.242109 c 0,-0.01397 -0.00972,-0.02548 -0.021615,-0.02548 -0.011888,0 -0.021615,0.01136 -0.021615,0.02548 0,0.01397 0.00972,0.02548 0.021615,0.02548 0.011888,0 0.021615,-0.01135 0.021615,-0.02548 z"
         id="path402" /></g></g><g
     id="g410"
     transform="matrix(1.7412418,0,0,1.0770092,21.279185,3.6158452)"
     style="fill:#a2a2a2;fill-opacity:1"><g
       id="g404"
       transform="matrix(0.8293026,0,0,1,2.7192971,-13.663379)"
       style="fill:#a2a2a2;fill-opacity:1"><path
         style="fill:#a2a2a2;fill-opacity:1;stroke-width:0.282496"
         d="m -5.1667686,29.926985 c -4.75e-4,-0.03927 -0.256264,-0.05057 -1.145422,-0.05057 -0.72054,0 -1.153875,-0.01503 -1.169262,-0.04046 -0.01345,-0.02225 -0.05891,-0.04046 -0.101031,-0.04046 -0.07464,0 -0.07649,-0.04536 -0.07298,-1.786493 0.002,-0.982572 0.0127,-1.810725 0.02382,-1.840341 0.01643,-0.04376 0.36408,-0.05385 1.856143,-0.05385 h 1.8359343 l -0.02133,0.0203 v 1.87069 1.870693 l -0.427571,-1.5e-5 c -0.253206,-0.05421 -0.588364,-0.0019 -0.7783303,0.05055 z m -1.483989,-0.687668 v -0.212418 l 0.158227,-0.0047 c 0.08703,-0.0026 0.181492,-0.0015 0.209925,0.0024 0.02843,0.004 0.04858,-0.01672 0.04476,-0.04577 -0.0038,-0.02907 -0.0048,-0.144347 -0.0023,-0.256165 l 0.0047,-0.203303 0.153186,0.01503 0.153184,0.01485 0.02638,-0.179861 c 0.02425,-0.165316 0.03442,-0.178281 0.125887,-0.160412 0.07205,0.01409 0.0977,0.04314 0.09296,0.10532 -0.01525,0.199909 -2.53e-4,0.237521 0.08557,0.214575 0.135915,-0.03634 0.279353,0.04006 0.271093,0.144403 -0.004,0.05 -0.0052,0.150059 -0.0028,0.222363 0.0043,0.129992 0.0065,0.131456 0.200096,0.131456 h 0.1957173 l 0.01197,0.212347 0.01197,0.212348 0.286787,0.01183 0.286788,0.01183 v -0.264677 -0.264679 l -0.207674,5.6e-5 -0.207673,5.5e-5 0.01355,-0.222514 0.01355,-0.222515 h -0.181687 -0.1816663 v -0.179897 -0.179898 l -0.207674,-0.01222 c -0.20252,-0.01184 -0.207982,-0.01541 -0.220069,-0.14367 -0.01026,-0.10904 0.0012,-0.131455 0.06736,-0.131455 0.04387,0 0.124975,0.02107 0.180237,0.04681 0.09213,0.04293 0.118222,0.03033 0.3140493,-0.151675 0.213327,-0.198258 0.213575,-0.198774 0.217838,-0.451279 l 0.0043,-0.25279 h 0.197783 0.197784 V 26.782185 26.51928 h -0.296677 -0.296677 v 0.222457 c 0,0.219089 -0.0018,0.222537 -0.118672,0.227516 -0.06527,0.0028 -0.1364703,0.0096 -0.1582273,0.01522 -0.02176,0.0056 -0.06228,0.0124 -0.09005,0.01522 -0.0343,0.0034 -0.04577,0.05567 -0.03577,0.162968 0.01853,0.198756 -0.08836,0.328497 -0.245372,0.297806 -0.09807,-0.01917 -0.103498,-0.01147 -0.103498,0.146264 0,0.116763 -0.01676,0.1665 -0.0561,0.1665 -0.03085,0 -0.08426,0.01109 -0.118672,0.02456 -0.0514,0.02016 -0.06257,-0.0083 -0.06257,-0.159455 v -0.184012 l -0.165489,-0.0124 c -0.165301,-0.0124 -0.165497,-0.01259 -0.17165,-0.184332 -0.01018,-0.284048 -0.0077,-0.279982 -0.167211,-0.272983 -0.22592,0.01 -0.235526,-9.58e-4 -0.215784,-0.244388 l 0.0179,-0.220787 h -0.323824 -0.32382 l 0.01235,0.252795 -0.0083,0.222519 c -0.0072,0.193936 0.467023,0.0807 0.435432,0.131382 -0.0208,0.03337 -0.03808,0.128919 -0.03841,0.212347 l -6.15e-4,0.151675 h 0.175731 0.175731 l 0.01216,0.171893 0.01216,0.171893 0.207674,0.01222 0.207674,0.01222 v 0.139461 0.139443 h -0.221547 -0.221546 l 0.01414,0.182002 0.01414,0.182021 -0.138734,6.29e-4 c -0.2116,9.58e-4 -0.246994,0.0413 -0.22505,0.25663 l 0.01913,0.187658 h -0.189244 c -0.162814,0 -0.192575,0.01278 -0.213096,0.091 -0.0328,0.125161 -0.03097,0.374703 0.003,0.409444 0.01536,0.01578 0.153323,0.0233 0.306566,0.01691 l 0.278627,-0.01165 z m -0.929587,0.637113 c -0.05071,-0.0335 -0.04927,-0.03929 0.0099,-0.03983 0.03807,-3.44e-4 0.06922,0.01766 0.06922,0.03983 0,0.04932 -0.0045,0.04932 -0.07911,0 z"
         id="path403" /></g><g
       id="g405"
       transform="matrix(0.8293026,0,0,1,2.7192971,-21.663379)"
       style="fill:#a2a2a2;fill-opacity:1"><path
         style="fill:#a2a2a2;fill-opacity:1;stroke-width:0.331512"
         d="m -6.3082009,33.229434 v -0.38228 H -6.765299 -7.2223975 l 0.00706,-0.24211 c 0.015664,-0.53814 0.021524,-0.522448 -0.1951622,-0.522448 H -7.6050335 V 31.85324 31.623861 l 0.2053328,8.8e-5 0.2053329,8.8e-5 v -0.369625 -0.369627 l 0.4430862,-0.01446 0.4430866,-0.01446 V 30.47534 30.094846 h 0.4755075 0.4755078 v 0.382278 0.38228 h 0.4538925 0.453894 v 0.38228 0.38228 h 0.194518 0.194525 v 0.229379 0.229356 h -0.194521 -0.194526 v 0.382279 0.382279 h -0.4538931 -0.4538933 v 0.382281 0.382277 h -0.4755081 -0.4755074 z m 0.6828158,-0.751817 0.012792,-0.344052 h 0.2527673 c 0.2824765,0 0.3052454,-0.02692 0.3052454,-0.360961 v -0.19971 h -0.2809819 -0.2809819 v -0.325638 -0.325634 l -0.1454955,-0.03218 c -0.080022,-0.01774 -0.1804761,-0.01632 -0.2232311,0.0031 -0.023912,0.01682 -0.018917,0.09375 -0.042868,0.212379 -0.00774,0.04721 -0.015544,0.169706 -0.017371,0.272246 l -0.00331,0.186426 -0.2410264,0.01753 c -0.1325643,0.0097 -0.270448,-0.002 -0.3064079,-0.02581 -0.054586,-0.03613 -0.057615,-0.02616 -0.018336,0.06035 0.025872,0.05699 0.047041,0.184981 0.047041,0.284416 0,0.151333 0.017974,0.186095 0.1104176,0.213444 0.060729,0.018 0.1774438,0.01989 0.2593676,0.0043 l 0.1489513,-0.02851 v 0.349342 c 0,0.383528 0.016909,0.409163 0.2593674,0.393252 l 0.1512968,-0.0099 z m -1.0293011,-0.739074 c -0.00152,-0.08795 -0.079786,-0.176055 -0.1262885,-0.14217 -0.038009,0.0277 -0.037896,0.05398 4.58e-4,0.108475 0.054229,0.07705 0.1269151,0.09652 0.1258305,0.0337 z m -0.042565,-0.242109 c 0,-0.01397 -0.00972,-0.02548 -0.021615,-0.02548 -0.011888,0 -0.021615,0.01136 -0.021615,0.02548 0,0.01397 0.00972,0.02548 0.021615,0.02548 0.011888,0 0.021615,-0.01135 0.021615,-0.02548 z"
         id="path404" /><path
         style="fill:#a2a2a2;fill-opacity:1;stroke-width:0.288098"
         d="m -7.5538221,25.171134 c 0,-0.280264 0.01681,-0.442066 0.04942,-0.475398 0.03899,-0.03988 0.03828,-0.06878 -0.0034,-0.137015 -0.0399,-0.06533 -0.05232,-0.32997 -0.05076,-1.081762 0.0011,-0.547404 0.0027,-1.009199 0.0034,-1.026216 7.16e-4,-0.01705 0.382567,-0.03093 0.848511,-0.03093 h 0.8471692 v 1.361225 1.361227 h 0.136257 c 0.148759,0 0.272044,-0.09718 0.172724,-0.136153 -0.04071,-0.01591 -0.05807,-0.113712 -0.06311,-0.355435 l -0.0069,-0.333404 h 0.122595 c 0.12022,0 0.122596,-0.004 0.122596,-0.206247 0,-0.201662 0.0027,-0.206246 0.121025,-0.206246 h 0.121026 v -0.247493 -0.247496 h 0.141194 0.1411961 v -0.203507 c 0,-0.191342 0.0067,-0.204286 0.110939,-0.216558 0.108477,-0.01284 0.111202,-0.01974 0.122842,-0.314669 0.01188,-0.300964 0.01215,-0.301589 0.121026,-0.288744 l 0.109122,0.01283 0.01057,1.577782 0.01057,1.577784 H -5.2336419 -6.1014624 V 24.19349 22.832264 h -0.1210247 -0.121026 v 0.412494 0.412491 h -0.121026 c -0.116542,0 -0.121026,0.0069 -0.121026,0.185612 0,0.178751 -0.0045,0.185631 -0.121025,0.185631 h -0.121026 v 0.26812 0.268121 l -0.131111,-2.6e-5 -0.131108,-2.6e-5 0.01379,0.203377 0.01379,0.203375 -0.134813,0.01321 -0.134813,0.01321 -0.01184,0.299056 c -0.01135,0.286783 -0.01593,0.299057 -0.11094,0.299057 -0.09881,0 -0.09909,-0.0012 -0.09909,-0.424867 z m 2.9237783,-0.777967 0.01528,-0.728468 -0.128175,0.0067 c -0.126053,0.0065 -0.128176,0.01 -0.128176,0.212853 0,0.194332 -0.0064,0.206999 -0.1109391,0.219298 -0.06349,0.0075 -0.110939,0.03834 -0.110939,0.07219 0,0.109286 -0.0046,0.120727 -0.08349,0.206567 -0.113217,0.123217 -0.03637,0.104533 -0.0781,0.134485 -0.0453,0.03252 -0.163086,0.0069 -0.163086,0.03197 -0.01349,0.117928 -0.01437,0.262014 -0.01567,0.307541 0.112423,0.01514 0.195769,-0.03641 0.05795,0.186532 v 0.102618 l 0.365033,-0.01189 0.3650321,-0.01188 z m -2.4565953,-0.302763 c 0.0032,-0.200574 0.0068,-0.206601 0.131109,-0.219172 0.124175,-0.01246 0.127854,-0.01859 0.127854,-0.212045 0,-0.196725 0.0017,-0.199323 0.140707,-0.215916 0.06297,0.01457 0.129022,0.005 0.193535,0.0077 -0.06444,-0.07598 -0.09085,-0.168614 -0.09997,-0.35062 l -0.01239,-0.247351 -0.352987,-0.01188 -0.352988,-0.01189 v 0.746833 0.746832 l 0.110939,-0.01302 c 0.104015,-0.01226 0.111143,-0.02593 0.114194,-0.219299 z"
         id="path405" /></g><g
       id="g408"
       transform="matrix(0.8293026,0,0,1,2.6674658,-29.725879)"
       style="fill:#a2a2a2;fill-opacity:1"><path
         style="fill:#a2a2a2;fill-opacity:1;stroke-width:0.282496"
         d="m -5.1667686,29.926985 c -4.75e-4,-0.03927 -0.256264,-0.05057 -1.145422,-0.05057 -0.72054,0 -1.153875,-0.01503 -1.169262,-0.04046 -0.01345,-0.02225 -0.05891,-0.04046 -0.101031,-0.04046 -0.07464,0 -0.07649,-0.04536 -0.07298,-1.786493 0.002,-0.982572 0.0127,-1.810725 0.02382,-1.840341 0.01643,-0.04376 0.36408,-0.05385 1.856143,-0.05385 h 1.8359343 l -0.02133,0.0203 v 1.87069 1.870693 l -0.427571,-1.5e-5 c -0.253206,-0.05421 -0.588364,-0.0019 -0.7783303,0.05055 z m -1.483989,-0.687668 v -0.212418 l 0.158227,-0.0047 c 0.08703,-0.0026 0.181492,-0.0015 0.209925,0.0024 0.02843,0.004 0.04858,-0.01672 0.04476,-0.04577 -0.0038,-0.02907 -0.0048,-0.144347 -0.0023,-0.256165 l 0.0047,-0.203303 0.153186,0.01503 0.153184,0.01485 0.02638,-0.179861 c 0.02425,-0.165316 0.03442,-0.178281 0.125887,-0.160412 0.07205,0.01409 0.0977,0.04314 0.09296,0.10532 -0.01525,0.199909 -2.53e-4,0.237521 0.08557,0.214575 0.135915,-0.03634 0.279353,0.04006 0.271093,0.144403 -0.004,0.05 -0.0052,0.150059 -0.0028,0.222363 0.0043,0.129992 0.0065,0.131456 0.200096,0.131456 h 0.1957173 l 0.01197,0.212347 0.01197,0.212348 0.286787,0.01183 0.286788,0.01183 v -0.264677 -0.264679 l -0.207674,5.6e-5 -0.207673,5.5e-5 0.01355,-0.222514 0.01355,-0.222515 h -0.181687 -0.1816663 v -0.179897 -0.179898 l -0.207674,-0.01222 c -0.20252,-0.01184 -0.207982,-0.01541 -0.220069,-0.14367 -0.01026,-0.10904 0.0012,-0.131455 0.06736,-0.131455 0.04387,0 0.124975,0.02107 0.180237,0.04681 0.09213,0.04293 0.118222,0.03033 0.3140493,-0.151675 0.213327,-0.198258 0.213575,-0.198774 0.217838,-0.451279 l 0.0043,-0.25279 h 0.197783 0.197784 V 26.782185 26.51928 h -0.296677 -0.296677 v 0.222457 c 0,0.219089 -0.0018,0.222537 -0.118672,0.227516 -0.06527,0.0028 -0.1364703,0.0096 -0.1582273,0.01522 -0.02176,0.0056 -0.06228,0.0124 -0.09005,0.01522 -0.0343,0.0034 -0.04577,0.05567 -0.03577,0.162968 0.01853,0.198756 -0.08836,0.328497 -0.245372,0.297806 -0.09807,-0.01917 -0.103498,-0.01147 -0.103498,0.146264 0,0.116763 -0.01676,0.1665 -0.0561,0.1665 -0.03085,0 -0.08426,0.01109 -0.118672,0.02456 -0.0514,0.02016 -0.06257,-0.0083 -0.06257,-0.159455 v -0.184012 l -0.165489,-0.0124 c -0.165301,-0.0124 -0.165497,-0.01259 -0.17165,-0.184332 -0.01018,-0.284048 -0.0077,-0.279982 -0.167211,-0.272983 -0.22592,0.01 -0.235526,-9.58e-4 -0.215784,-0.244388 l 0.0179,-0.220787 h -0.323824 -0.32382 l 0.01235,0.252795 -0.0083,0.222519 c -0.0072,0.193936 0.467023,0.0807 0.435432,0.131382 -0.0208,0.03337 -0.03808,0.128919 -0.03841,0.212347 l -6.15e-4,0.151675 h 0.175731 0.175731 l 0.01216,0.171893 0.01216,0.171893 0.207674,0.01222 0.207674,0.01222 v 0.139461 0.139443 h -0.221547 -0.221546 l 0.01414,0.182002 0.01414,0.182021 -0.138734,6.29e-4 c -0.2116,9.58e-4 -0.246994,0.0413 -0.22505,0.25663 l 0.01913,0.187658 h -0.189244 c -0.162814,0 -0.192575,0.01278 -0.213096,0.091 -0.0328,0.125161 -0.03097,0.374703 0.003,0.409444 0.01536,0.01578 0.153323,0.0233 0.306566,0.01691 l 0.278627,-0.01165 z m -0.929587,0.637113 c -0.05071,-0.0335 -0.04927,-0.03929 0.0099,-0.03983 0.03807,-3.44e-4 0.06922,0.01766 0.06922,0.03983 0,0.04932 -0.0045,0.04932 -0.07911,0 z"
         id="path406" /><path
         style="fill:#a2a2a2;fill-opacity:1;stroke-width:0.288098"
         d="m -7.7267268,37.893152 1.885e-4,-1.907765 -0.01086,-1.907777 c 0,0 0.102028,-0.02695 0.598562,0.01246 0.496534,0.03936 1.283704,0.01036 1.985394,0.01782 1.009561,0.01054 1.010096,0.03106 1.060489,0.09352 0.244281,0.302795 0.126088,1.318168 0.125727,1.952236 -0.01162,1.433183 -0.0029,1.627135 -0.0024,1.738759 l -1.883873,0.01073 -1.2872607,0.01073 m 1.4809247,-0.783786 v -0.35062 h 0.20529 0.20529 l -0.01366,-0.244514 -0.01366,-0.244515 0.252966,-0.01321 c 0.139131,-0.0073 0.266206,-0.0086 0.28239,-0.0031 0.01618,0.0055 0.02395,0.279424 0.01726,0.608427 l -0.01217,0.598219 h 0.244121 0.244122 v -1.443735 -1.443725 h -0.252266 -0.252267 l 0.0068,0.48468 c 0.01008,0.718556 0.01997,0.693736 -0.269667,0.676949 l -0.241127,-0.01399 v -0.24383 -0.243831 h -0.202525 -0.202519 l 0.01473,-0.329995 0.01473,-0.329992 h -0.255966 -0.255967 v 0.572806 0.572808 l -0.128887,0.01934 c -0.219154,0.03288 -0.269014,-5.61e-4 -0.282494,-0.18954 l -0.0122,-0.17107 h -0.443763 -0.443756 l -0.0067,0.123753 c -0.0037,0.06807 0.0035,0.351134 0.01599,0.629051 l 0.02272,0.505304 h 0.358445 c 0.251575,0 0.363076,0.01533 0.373979,0.05156 0.0085,0.02836 0.02597,0.100566 0.03873,0.16045 0.01276,0.05988 0.421411,0.102004 0.459289,0.08125 0.06159,-0.03376 0.06792,-0.01302 0.05989,0.195429 -0.01263,0.32787 -0.0064,0.336304 0.249767,0.336304 h 0.223143 z"
         id="path407" /><path
         style="fill:#a2a2a2;fill-opacity:1;stroke-width:0.288098"
         d="m -7.7267268,21.791284 1.885e-4,-1.907765 -0.01086,-1.907777 c 0,0 0.102028,-0.02695 0.598562,0.01246 0.496534,0.03936 1.283704,0.01036 1.985394,0.01782 1.009561,0.01054 1.010096,0.03106 1.060489,0.09352 0.244281,0.302795 0.126088,1.318168 0.125727,1.952236 -0.01162,1.433183 -0.0029,1.627135 -0.0024,1.738759 l -1.883873,0.01073 -1.2872607,0.01073 m 1.4809247,-0.783786 v -0.35062 h 0.20529 0.20529 l -0.01366,-0.244514 -0.01366,-0.244515 0.252966,-0.01321 c 0.139131,-0.0073 0.266206,-0.0086 0.28239,-0.0031 0.01618,0.0055 0.02395,0.279424 0.01726,0.608427 l -0.01217,0.598219 h 0.244121 0.244122 v -1.443735 -1.443725 h -0.252266 -0.252267 l 0.0068,0.48468 c 0.01008,0.718556 0.01997,0.693736 -0.269667,0.676949 l -0.241127,-0.01399 v -0.24383 -0.243831 h -0.202525 -0.202519 l 0.01473,-0.329995 0.01473,-0.329992 h -0.255966 -0.255967 v 0.572806 0.572808 l -0.128887,0.01934 c -0.219154,0.03288 -0.269014,-5.61e-4 -0.282494,-0.18954 l -0.0122,-0.17107 h -0.443763 -0.443756 l -0.0067,0.123753 c -0.0037,0.06807 0.0035,0.351134 0.01599,0.629051 l 0.02272,0.505304 h 0.358445 c 0.251575,0 0.363076,0.01533 0.373979,0.05156 0.0085,0.02836 0.02597,0.100566 0.03873,0.16045 0.01276,0.05988 0.421411,0.102004 0.459289,0.08125 0.06159,-0.03376 0.06792,-0.01302 0.05989,0.195429 -0.01263,0.32787 -0.0064,0.336304 0.249767,0.336304 h 0.223143 z"
         id="path408" /></g><g
       id="g409"
       transform="matrix(0.80879097,0,0,1.0163426,2.6253237,-38.060443)"
       style="fill:#a2a2a2;fill-opacity:1"><path
         style="fill:#a2a2a2;fill-opacity:1;stroke-width:0.331512"
         d="m -6.3082009,33.229434 v -0.38228 H -6.765299 -7.2223975 l 0.00706,-0.24211 c 0.015664,-0.53814 0.021524,-0.522448 -0.1951622,-0.522448 H -7.6050335 V 31.85324 31.623861 l 0.2053328,8.8e-5 0.2053329,8.8e-5 v -0.369625 -0.369627 l 0.4430862,-0.01446 0.4430866,-0.01446 V 30.47534 30.094846 h 0.4755075 0.4755078 v 0.382278 0.38228 h 0.4538925 0.453894 v 0.38228 0.38228 h 0.194518 0.194525 v 0.229379 0.229356 h -0.194521 -0.194526 v 0.382279 0.382279 h -0.4538931 -0.4538933 v 0.382281 0.382277 h -0.4755081 -0.4755074 z m 0.6828158,-0.751817 0.012792,-0.344052 h 0.2527673 c 0.2824765,0 0.3052454,-0.02692 0.3052454,-0.360961 v -0.19971 h -0.2809819 -0.2809819 v -0.325638 -0.325634 l -0.1454955,-0.03218 c -0.080022,-0.01774 -0.1804761,-0.01632 -0.2232311,0.0031 -0.023912,0.01682 -0.018917,0.09375 -0.042868,0.212379 -0.00774,0.04721 -0.015544,0.169706 -0.017371,0.272246 l -0.00331,0.186426 -0.2410264,0.01753 c -0.1325643,0.0097 -0.270448,-0.002 -0.3064079,-0.02581 -0.054586,-0.03613 -0.057615,-0.02616 -0.018336,0.06035 0.025872,0.05699 0.047041,0.184981 0.047041,0.284416 0,0.151333 0.017974,0.186095 0.1104176,0.213444 0.060729,0.018 0.1774438,0.01989 0.2593676,0.0043 l 0.1489513,-0.02851 v 0.349342 c 0,0.383528 0.016909,0.409163 0.2593674,0.393252 l 0.1512968,-0.0099 z m -1.0293011,-0.739074 c -0.00152,-0.08795 -0.079786,-0.176055 -0.1262885,-0.14217 -0.038009,0.0277 -0.037896,0.05398 4.58e-4,0.108475 0.054229,0.07705 0.1269151,0.09652 0.1258305,0.0337 z m -0.042565,-0.242109 c 0,-0.01397 -0.00972,-0.02548 -0.021615,-0.02548 -0.011888,0 -0.021615,0.01136 -0.021615,0.02548 0,0.01397 0.00972,0.02548 0.021615,0.02548 0.011888,0 0.021615,-0.01135 0.021615,-0.02548 z"
         id="path409" /></g></g><g
     id="g418"
     transform="matrix(1.4116357,0,0,1.0770092,13.324074,-11.41224)"
     style="fill:#a2a2a2;fill-opacity:1"><path
       style="fill:#a2a2a2;fill-opacity:1;stroke-width:0.282496"
       d="m -5.1667686,29.926985 c -4.75e-4,-0.03927 -0.256264,-0.05057 -1.145422,-0.05057 -0.72054,0 -1.153875,-0.01503 -1.169262,-0.04046 -0.01345,-0.02225 -0.05891,-0.04046 -0.101031,-0.04046 -0.07464,0 -0.07649,-0.04536 -0.07298,-1.786493 0.002,-0.982572 0.0127,-1.810725 0.02382,-1.840341 0.01643,-0.04376 0.36408,-0.05385 1.856143,-0.05385 h 1.8359343 l -0.02133,0.0203 v 1.87069 1.870693 l -0.427571,-1.5e-5 c -0.253206,-0.05421 -0.588364,-0.0019 -0.7783303,0.05055 z m -1.483989,-0.687668 v -0.212418 l 0.158227,-0.0047 c 0.08703,-0.0026 0.181492,-0.0015 0.209925,0.0024 0.02843,0.004 0.04858,-0.01672 0.04476,-0.04577 -0.0038,-0.02907 -0.0048,-0.144347 -0.0023,-0.256165 l 0.0047,-0.203303 0.153186,0.01503 0.153184,0.01485 0.02638,-0.179861 c 0.02425,-0.165316 0.03442,-0.178281 0.125887,-0.160412 0.07205,0.01409 0.0977,0.04314 0.09296,0.10532 -0.01525,0.199909 -2.53e-4,0.237521 0.08557,0.214575 0.135915,-0.03634 0.279353,0.04006 0.271093,0.144403 -0.004,0.05 -0.0052,0.150059 -0.0028,0.222363 0.0043,0.129992 0.0065,0.131456 0.200096,0.131456 h 0.1957173 l 0.01197,0.212347 0.01197,0.212348 0.286787,0.01183 0.286788,0.01183 v -0.264677 -0.264679 l -0.207674,5.6e-5 -0.207673,5.5e-5 0.01355,-0.222514 0.01355,-0.222515 h -0.181687 -0.1816663 v -0.179897 -0.179898 l -0.207674,-0.01222 c -0.20252,-0.01184 -0.207982,-0.01541 -0.220069,-0.14367 -0.01026,-0.10904 0.0012,-0.131455 0.06736,-0.131455 0.04387,0 0.124975,0.02107 0.180237,0.04681 0.09213,0.04293 0.118222,0.03033 0.3140493,-0.151675 0.213327,-0.198258 0.213575,-0.198774 0.217838,-0.451279 l 0.0043,-0.25279 h 0.197783 0.197784 V 26.782185 26.51928 h -0.296677 -0.296677 v 0.222457 c 0,0.219089 -0.0018,0.222537 -0.118672,0.227516 -0.06527,0.0028 -0.1364703,0.0096 -0.1582273,0.01522 -0.02176,0.0056 -0.06228,0.0124 -0.09005,0.01522 -0.0343,0.0034 -0.04577,0.05567 -0.03577,0.162968 0.01853,0.198756 -0.08836,0.328497 -0.245372,0.297806 -0.09807,-0.01917 -0.103498,-0.01147 -0.103498,0.146264 0,0.116763 -0.01676,0.1665 -0.0561,0.1665 -0.03085,0 -0.08426,0.01109 -0.118672,0.02456 -0.0514,0.02016 -0.06257,-0.0083 -0.06257,-0.159455 v -0.184012 l -0.165489,-0.0124 c -0.165301,-0.0124 -0.165497,-0.01259 -0.17165,-0.184332 -0.01018,-0.284048 -0.0077,-0.279982 -0.167211,-0.272983 -0.22592,0.01 -0.235526,-9.58e-4 -0.215784,-0.244388 l 0.0179,-0.220787 h -0.323824 -0.32382 l 0.01235,0.252795 -0.0083,0.222519 c -0.0072,0.193936 0.467023,0.0807 0.435432,0.131382 -0.0208,0.03337 -0.03808,0.128919 -0.03841,0.212347 l -6.15e-4,0.151675 h 0.175731 0.175731 l 0.01216,0.171893 0.01216,0.171893 0.207674,0.01222 0.207674,0.01222 v 0.139461 0.139443 h -0.221547 -0.221546 l 0.01414,0.182002 0.01414,0.182021 -0.138734,6.29e-4 c -0.2116,9.58e-4 -0.246994,0.0413 -0.22505,0.25663 l 0.01913,0.187658 h -0.189244 c -0.162814,0 -0.192575,0.01278 -0.213096,0.091 -0.0328,0.125161 -0.03097,0.374703 0.003,0.409444 0.01536,0.01578 0.153323,0.0233 0.306566,0.01691 l 0.278627,-0.01165 z m -0.929587,0.637113 c -0.05071,-0.0335 -0.04927,-0.03929 0.0099,-0.03983 0.03807,-3.44e-4 0.06922,0.01766 0.06922,0.03983 0,0.04932 -0.0045,0.04932 -0.07911,0 z"
       id="path417" /></g><g
     id="g419"
     transform="matrix(1.4116357,0,0,1.0770092,13.324074,-20.028313)"
     style="fill:#a2a2a2;fill-opacity:1"><path
       style="fill:#a2a2a2;fill-opacity:1;stroke-width:0.331512"
       d="m -6.3082009,33.229434 v -0.38228 H -6.765299 -7.2223975 l 0.00706,-0.24211 c 0.015664,-0.53814 0.021524,-0.522448 -0.1951622,-0.522448 H -7.6050335 V 31.85324 31.623861 l 0.2053328,8.8e-5 0.2053329,8.8e-5 v -0.369625 -0.369627 l 0.4430862,-0.01446 0.4430866,-0.01446 V 30.47534 30.094846 h 0.4755075 0.4755078 v 0.382278 0.38228 h 0.4538925 0.453894 v 0.38228 0.38228 h 0.194518 0.194525 v 0.229379 0.229356 h -0.194521 -0.194526 v 0.382279 0.382279 h -0.4538931 -0.4538933 v 0.382281 0.382277 h -0.4755081 -0.4755074 z m 0.6828158,-0.751817 0.012792,-0.344052 h 0.2527673 c 0.2824765,0 0.3052454,-0.02692 0.3052454,-0.360961 v -0.19971 h -0.2809819 -0.2809819 v -0.325638 -0.325634 l -0.1454955,-0.03218 c -0.080022,-0.01774 -0.1804761,-0.01632 -0.2232311,0.0031 -0.023912,0.01682 -0.018917,0.09375 -0.042868,0.212379 -0.00774,0.04721 -0.015544,0.169706 -0.017371,0.272246 l -0.00331,0.186426 -0.2410264,0.01753 c -0.1325643,0.0097 -0.270448,-0.002 -0.3064079,-0.02581 -0.054586,-0.03613 -0.057615,-0.02616 -0.018336,0.06035 0.025872,0.05699 0.047041,0.184981 0.047041,0.284416 0,0.151333 0.017974,0.186095 0.1104176,0.213444 0.060729,0.018 0.1774438,0.01989 0.2593676,0.0043 l 0.1489513,-0.02851 v 0.349342 c 0,0.383528 0.016909,0.409163 0.2593674,0.393252 l 0.1512968,-0.0099 z m -1.0293011,-0.739074 c -0.00152,-0.08795 -0.079786,-0.176055 -0.1262885,-0.14217 -0.038009,0.0277 -0.037896,0.05398 4.58e-4,0.108475 0.054229,0.07705 0.1269151,0.09652 0.1258305,0.0337 z m -0.042565,-0.242109 c 0,-0.01397 -0.00972,-0.02548 -0.021615,-0.02548 -0.011888,0 -0.021615,0.01136 -0.021615,0.02548 0,0.01397 0.00972,0.02548 0.021615,0.02548 0.011888,0 0.021615,-0.01135 0.021615,-0.02548 z"
       id="path418" /><path
       style="fill:#a2a2a2;fill-opacity:1;stroke-width:0.288098"
       d="m -7.5538221,25.171134 c 0,-0.280264 0.01681,-0.442066 0.04942,-0.475398 0.03899,-0.03988 0.03828,-0.06878 -0.0034,-0.137015 -0.0399,-0.06533 -0.05232,-0.32997 -0.05076,-1.081762 0.0011,-0.547404 0.0027,-1.009199 0.0034,-1.026216 7.16e-4,-0.01705 0.382567,-0.03093 0.848511,-0.03093 h 0.8471692 v 1.361225 1.361227 h 0.136257 c 0.148759,0 0.272044,-0.09718 0.172724,-0.136153 -0.04071,-0.01591 -0.05807,-0.113712 -0.06311,-0.355435 l -0.0069,-0.333404 h 0.122595 c 0.12022,0 0.122596,-0.004 0.122596,-0.206247 0,-0.201662 0.0027,-0.206246 0.121025,-0.206246 h 0.121026 v -0.247493 -0.247496 h 0.141194 0.1411961 v -0.203507 c 0,-0.191342 0.0067,-0.204286 0.110939,-0.216558 0.108477,-0.01284 0.111202,-0.01974 0.122842,-0.314669 0.01188,-0.300964 0.01215,-0.301589 0.121026,-0.288744 l 0.109122,0.01283 0.01057,1.577782 0.01057,1.577784 H -5.2336419 -6.1014624 V 24.19349 22.832264 h -0.1210247 -0.121026 v 0.412494 0.412491 h -0.121026 c -0.116542,0 -0.121026,0.0069 -0.121026,0.185612 0,0.178751 -0.0045,0.185631 -0.121025,0.185631 h -0.121026 v 0.26812 0.268121 l -0.131111,-2.6e-5 -0.131108,-2.6e-5 0.01379,0.203377 0.01379,0.203375 -0.134813,0.01321 -0.134813,0.01321 -0.01184,0.299056 c -0.01135,0.286783 -0.01593,0.299057 -0.11094,0.299057 -0.09881,0 -0.09909,-0.0012 -0.09909,-0.424867 z m 2.9237783,-0.777967 0.01528,-0.728468 -0.128175,0.0067 c -0.126053,0.0065 -0.128176,0.01 -0.128176,0.212853 0,0.194332 -0.0064,0.206999 -0.1109391,0.219298 -0.06349,0.0075 -0.110939,0.03834 -0.110939,0.07219 0,0.109286 -0.0046,0.120727 -0.08349,0.206567 -0.113217,0.123217 -0.03637,0.104533 -0.0781,0.134485 -0.0453,0.03252 -0.163086,0.0069 -0.163086,0.03197 -0.01349,0.117928 -0.01437,0.262014 -0.01567,0.307541 0.112423,0.01514 0.195769,-0.03641 0.05795,0.186532 v 0.102618 l 0.365033,-0.01189 0.3650321,-0.01188 z m -2.4565953,-0.302763 c 0.0032,-0.200574 0.0068,-0.206601 0.131109,-0.219172 0.124175,-0.01246 0.127854,-0.01859 0.127854,-0.212045 0,-0.196725 0.0017,-0.199323 0.140707,-0.215916 0.06297,0.01457 0.129022,0.005 0.193535,0.0077 -0.06444,-0.07598 -0.09085,-0.168614 -0.09997,-0.35062 l -0.01239,-0.247351 -0.352987,-0.01188 -0.352988,-0.01189 v 0.746833 0.746832 l 0.110939,-0.01302 c 0.104015,-0.01226 0.111143,-0.02593 0.114194,-0.219299 z"
       id="path419" /></g><path
     style="fill:#a2a2a2;fill-opacity:1;stroke-width:0.348324"
     d="M 5.942252,3.5199382 C 5.9415815,3.477644 5.5805006,3.4654738 4.3253334,3.4654738 c -1.01714,0 -1.6288511,-0.016187 -1.650572,-0.043576 -0.018987,-0.023963 -0.083159,-0.043576 -0.1426189,-0.043576 -0.1053645,0 -0.1079761,-0.048853 -0.1030212,-1.9240694 0.00282,-1.05823905 0.017928,-1.95016745 0.033625,-1.98206415 0.023193,-0.0471299 0.5139484,-0.0579969 2.6201978,-0.0579969 h 2.5916704 l -0.03011,0.0218633 V 1.4508053 3.4655589 L 7.0409299,3.4655427 C 6.6834953,3.4071581 6.2103743,3.4634964 5.9422111,3.5199856 Z M 3.8474001,2.7793134 V 2.5505373 l 0.2233589,-0.00506 c 0.1228547,-0.0028 0.2562006,-0.00162 0.2963376,0.00258 0.040133,0.00431 0.068577,-0.018007 0.063185,-0.049295 -0.00536,-0.031309 -0.00678,-0.155463 -0.00325,-0.275892 l 0.00663,-0.2189592 0.2162428,0.016187 0.21624,0.015994 0.037239,-0.1937119 C 4.9376154,1.6643333 4.9519724,1.6503699 5.0810899,1.669615 5.1827983,1.68479 5.2190068,1.716077 5.2123156,1.7830456 c -0.021527,0.2153038 -3.571e-4,0.2558123 0.1207937,0.2310992 0.1918624,-0.039139 0.3943446,0.043145 0.3826845,0.1555234 -0.00565,0.05385 -0.00734,0.1616149 -0.00395,0.239487 0.00607,0.1400026 0.00918,0.1415793 0.2824627,0.1415793 H 6.270588 l 0.016897,0.2286997 0.016897,0.2287007 0.4048388,0.012741 0.4048401,0.012741 V 2.7485605 2.4634988 l -0.29316,6.03e-5 -0.2931586,5.92e-5 0.019128,-0.2396496 0.019128,-0.2396507 H 6.3095276 6.0530809 V 1.7905673 1.5968155 l -0.29316,-0.013161 C 5.4740364,1.5709026 5.4663261,1.5670577 5.4492636,1.4289205 c -0.014483,-0.1174371 0.00169,-0.1415782 0.095088,-0.1415782 0.061928,0 0.1764192,0.022693 0.254429,0.050415 0.130054,0.046236 0.1668864,0.032666 0.4433232,-0.1633554 C 6.5432436,0.960876 6.5435937,0.96032026 6.5496115,0.68837005 L 6.5556815,0.4161129 H 6.8348791 7.114078 V 0.13295964 -0.15019146 H 6.6952782 6.2764783 v 0.23958823 c 0,0.23596087 -0.00254,0.2396744 -0.1675216,0.24503683 C 6.0168187,0.3374496 5.9163104,0.3447729 5.8855974,0.3508257 5.8548804,0.3568567 5.7976804,0.3641806 5.7584796,0.3672178 5.7100606,0.3708798 5.6938686,0.4271749 5.7079856,0.54273583 5.734143,0.75679783 5.5832533,0.89653008 5.3616095,0.8634756 5.2231704,0.84282933 5.2155081,0.8511223 5.2155081,1.0210033 c 0,0.1257548 -0.023659,0.179322 -0.079193,0.179322 -0.043549,0 -0.1189444,0.011944 -0.1675216,0.026451 -0.072558,0.021713 -0.088326,-0.00894 -0.088326,-0.1717345 V 0.85685953 L 4.6468574,0.84350461 C 4.4135126,0.8301497 4.413236,0.82994507 4.4045502,0.64497735 4.3901797,0.33905504 4.3936806,0.34343416 4.1685091,0.35097215 3.8495924,0.36174224 3.8360322,0.34994038 3.8639007,0.08776403 L 3.889169,-0.1500256 H 3.4320475 2.9749316 l 0.017434,0.27226254 -0.011716,0.23965501 C 2.970485,0.5707628 3.6399151,0.44880659 3.5953201,0.50339157 3.5659581,0.53933137 3.541565,0.64223852 3.5410992,0.73209124 L 3.540231,0.89544661 h 0.2480682 0.2480681 l 0.017165,0.18513039 0.017165,0.1851303 0.2931601,0.013161 0.29316,0.013161 V 1.4422302 1.5924116 H 4.3442747 4.0315325 l 0.01996,0.1960178 0.01996,0.1960383 -0.1958418,6.774e-4 C 3.5769096,1.9861769 3.5269461,2.0296256 3.5579231,2.261538 l 0.027005,0.2021094 h -0.267144 c -0.2298341,0 -0.2718458,0.013764 -0.300814,0.098008 -0.046302,0.1347996 -0.043718,0.4035586 0.00423,0.440975 0.021683,0.016995 0.2164362,0.025094 0.4327595,0.018212 L 3.8472844,3.0082953 Z M 2.5351619,3.46549 c -0.071584,-0.03608 -0.069551,-0.042316 0.013975,-0.042897 0.053741,-3.705e-4 0.097714,0.01902 0.097714,0.042897 0,0.053118 -0.00635,0.053118 -0.1116745,0 z"
     id="path420" /><path
     style="fill:#a2a2a2;fill-opacity:1;stroke-width:0.355231"
     d="m 2.3285236,12.099573 2.661e-4,-2.05468 -0.01533,-2.0546935 c 0,0 0.1440264,-0.029025 0.8449515,0.01342 0.7009251,0.042391 1.8121224,0.011158 2.8026531,0.019192 1.4251323,0.011352 1.4258875,0.033452 1.4970241,0.1007219 0.3448358,0.326113 0.1779903,1.4196791 0.1774807,2.1025756 -0.016403,1.543552 -0.00409,1.75244 -0.00339,1.87266 l -2.6593424,0.01156 -1.8171431,0.01156 M 5.2462214,11.277737 V 10.900116 H 5.5360161 5.8258108 L 5.8065279,10.636772 5.7872449,10.373427 6.1443408,10.3592 c 0.1964023,-0.0079 0.3757859,-0.0093 0.3986318,-0.0033 0.02284,0.0059 0.033809,0.300942 0.024365,0.655281 l -0.01718,0.644288 H 6.8947677 7.239379 V 10.100514 8.5456088 H 6.8832714 6.5271623 l 0.0096,0.5220048 c 0.014229,0.7738915 0.02819,0.7471601 -0.3806716,0.7290803 L 5.8157063,9.7816266 V 9.5190194 9.2564112 H 5.5298148 5.2439318 L 5.2647252,8.9010035 5.2855185,8.5455991 H 4.9241878 4.5628557 V 9.1625165 9.7794359 L 4.3809142,9.8002653 C 4.0715485,9.8356774 4.0011644,9.7996611 3.9821355,9.596129 L 3.9649136,9.411885 H 3.3384819 2.7120601 l -0.00946,0.1332831 c -0.00522,0.073312 0.00494,0.3781746 0.022572,0.6774939 l 0.032072,0.544217 h 0.5059938 c 0.3551323,0 0.512531,0.01651 0.5279221,0.05553 0.011999,0.03054 0.03666,0.10831 0.054673,0.172806 0.018012,0.06449 0.5948788,0.109859 0.6483487,0.08751 0.086943,-0.03636 0.095878,-0.01402 0.084543,0.210478 -0.017829,0.353119 -0.00903,0.362203 0.35258,0.362203 h 0.3149966 z"
     id="path421" /><path
     style="fill:#a2a2a2;fill-opacity:1;stroke-width:0.334524"
     d="m 2.3285236,-5.2397619 2.661e-4,-1.8221166 -0.01533,-1.8221282 c 0,0 0.1440264,-0.02574 0.8449515,0.0119 0.7009251,0.037593 1.8121224,0.0099 2.8026531,0.01702 1.4251323,0.010067 1.4258875,0.029666 1.4970241,0.089322 0.3448358,0.2892012 0.1779903,1.2589894 0.1774807,1.8645912 -0.016403,1.3688409 -0.00409,1.5540855 -0.00339,1.6606982 L 4.9728367,-5.230228 3.1556936,-5.21998 M 5.2462197,-5.9685782 V -6.3034573 H 5.5360144 5.8258091 L 5.8065261,-6.536994 5.7872431,-6.7705316 6.144339,-6.7831482 c 0.1964023,-0.00697 0.3757859,-0.00821 0.3986318,-0.00296 0.02284,0.00525 0.033809,0.2668794 0.024365,0.581112 l -0.01718,0.5713621 H 6.8947677 7.239379 V -7.012553 -8.3914627 H 6.8832714 6.5271623 l 0.0096,0.4629206 c 0.014229,0.6862967 0.02819,0.6625909 -0.3806716,0.6465576 L 5.8157063,-7.2953464 V -7.5282297 -7.7611141 H 5.5298148 5.2439318 l 0.020793,-0.31518 0.020793,-0.3151771 h -0.36133 -0.3613321 v 0.5470901 0.547092 l -0.1819415,0.018471 c -0.3093657,0.031405 -0.3797498,-5.351e-4 -0.3987787,-0.18103 L 3.9649136,-7.623238 H 3.3384819 2.7120601 l -0.00946,0.1181973 c -0.00522,0.065014 0.00494,0.3353699 0.022572,0.60081 l 0.032072,0.4826185 h 0.5059938 c 0.3551323,0 0.512531,0.014642 0.5279221,0.049246 0.011999,0.027087 0.03666,0.096051 0.054673,0.1532467 0.018012,0.057192 0.5948788,0.097425 0.6483487,0.077602 0.086943,-0.032245 0.095878,-0.012436 0.084543,0.1866552 -0.017829,0.3131505 -0.00903,0.3212058 0.35258,0.3212058 h 0.3149966 z"
     id="path422" /><g
     id="g423"
     transform="matrix(1.3767209,0,0,1.0946103,13.164113,-37.688102)"
     style="fill:#a2a2a2;fill-opacity:1"><path
       style="fill:#a2a2a2;fill-opacity:1;stroke-width:0.331512"
       d="m -6.3082009,33.229434 v -0.38228 H -6.765299 -7.2223975 l 0.00706,-0.24211 c 0.015664,-0.53814 0.021524,-0.522448 -0.1951622,-0.522448 H -7.6050335 V 31.85324 31.623861 l 0.2053328,8.8e-5 0.2053329,8.8e-5 v -0.369625 -0.369627 l 0.4430862,-0.01446 0.4430866,-0.01446 V 30.47534 30.094846 h 0.4755075 0.4755078 v 0.382278 0.38228 h 0.4538925 0.453894 v 0.38228 0.38228 h 0.194518 0.194525 v 0.229379 0.229356 h -0.194521 -0.194526 v 0.382279 0.382279 h -0.4538931 -0.4538933 v 0.382281 0.382277 h -0.4755081 -0.4755074 z m 0.6828158,-0.751817 0.012792,-0.344052 h 0.2527673 c 0.2824765,0 0.3052454,-0.02692 0.3052454,-0.360961 v -0.19971 h -0.2809819 -0.2809819 v -0.325638 -0.325634 l -0.1454955,-0.03218 c -0.080022,-0.01774 -0.1804761,-0.01632 -0.2232311,0.0031 -0.023912,0.01682 -0.018917,0.09375 -0.042868,0.212379 -0.00774,0.04721 -0.015544,0.169706 -0.017371,0.272246 l -0.00331,0.186426 -0.2410264,0.01753 c -0.1325643,0.0097 -0.270448,-0.002 -0.3064079,-0.02581 -0.054586,-0.03613 -0.057615,-0.02616 -0.018336,0.06035 0.025872,0.05699 0.047041,0.184981 0.047041,0.284416 0,0.151333 0.017974,0.186095 0.1104176,0.213444 0.060729,0.018 0.1774438,0.01989 0.2593676,0.0043 l 0.1489513,-0.02851 v 0.349342 c 0,0.383528 0.016909,0.409163 0.2593674,0.393252 l 0.1512968,-0.0099 z m -1.0293011,-0.739074 c -0.00152,-0.08795 -0.079786,-0.176055 -0.1262885,-0.14217 -0.038009,0.0277 -0.037896,0.05398 4.58e-4,0.108475 0.054229,0.07705 0.1269151,0.09652 0.1258305,0.0337 z m -0.042565,-0.242109 c 0,-0.01397 -0.00972,-0.02548 -0.021615,-0.02548 -0.011888,0 -0.021615,0.01136 -0.021615,0.02548 0,0.01397 0.00972,0.02548 0.021615,0.02548 0.011888,0 0.021615,-0.01135 0.021615,-0.02548 z"
       id="path423" /></g><path
     style="fill:#000000;fill-opacity:1;stroke:#000000;stroke-width:0.500887;stroke-linejoin:round;stroke-miterlimit:3.5;stroke-dashoffset:0.06;stroke-opacity:1;paint-order:stroke fill markers"
     d="m -18.151503,-3.6721376 c -3.487244,-1.451937 -5.164508,-6.140355 -3.408312,-9.5271664 1.108215,-2.137186 3.807551,-4.017084 5.768112,-4.017084 1.345817,0 1.448017,0.127666 1.303365,1.627883 -0.119812,1.24285 -0.421157,1.665435 -1.273972,1.786638 -1.318504,0.187371 -3.140524,2.327159 -3.140524,3.688217 0,1.2361134 2.179781,3.4158944 3.415895,3.4158944 0.526345,0 1.550888,-0.467157 2.276757,-1.038127 l 1.319771,-1.03813 v -8.4787284 -8.478732 l 1.627883,0.0014 c 1.366156,0.0011 1.788945,0.301855 2.629659,1.870349 0.599394,1.118281 1.856828,2.339949 3.130545,3.0415 1.555012,0.856482 2.128767,1.485448 2.128767,2.333602 0,1.536919 -0.882354,1.803179 -3.263172,0.984693 -2.571777,-0.88413 -2.730261,-0.587449 -2.739801,5.128805 -0.0072,4.2203174 -0.114603,4.7218414 -1.319555,6.1538624 -2.286839,2.717755 -5.626475,3.72302 -8.455418,2.545169 z"
     id="path424" /><g
     id="g546"
     transform="matrix(4.1331262,0,0,4.1331262,-285.10387,17.372906)"
     style="fill:#000000;fill-opacity:1;stroke:#020202;stroke-opacity:1"><path
       style="fill:#000000;fill-opacity:1;stroke:#020202;stroke-width:0.0220971;stroke-linejoin:round;stroke-miterlimit:3.5;stroke-dashoffset:0.06;stroke-opacity:1;paint-order:stroke fill markers"
       d="M 70.859296,-1.9811806 V -3.685079 l 0.403271,0.00889 c 0.455772,0.010052 0.537548,0.03204 0.561326,0.1509285 0.02374,0.1186756 0.08969,0.1082735 0.471962,-0.074435 0.262864,-0.1256371 0.426915,-0.1689302 0.640129,-0.1689302 0.406532,0 0.898819,0.233437 1.071796,0.508233 0.07515,0.119384 0.140533,0.3135649 0.180775,0.536875 0.03,0.1664702 0.03833,0.4068842 0.04588,1.3248045 l 0.0092,1.1214271 h -0.472422 -0.472454 l -0.02726,-0.8156 c -0.04603,-1.3775675 -0.07101,-1.4816253 -0.393791,-1.6405302 -0.278111,-0.1369134 -0.606388,-0.082841 -0.825143,0.1359135 -0.199286,0.1992856 -0.220998,0.3438113 -0.220998,1.4710817 v 0.8491389 h -0.486135 -0.486136 z"
       id="path544" /><path
       style="fill:#000000;fill-opacity:1;stroke:#020202;stroke-width:0.0220971;stroke-linejoin:round;stroke-miterlimit:3.5;stroke-dashoffset:0.06;stroke-opacity:1;paint-order:stroke fill markers"
       d="m 69.202014,-1.9787578 v -1.7014757 h 0.541379 0.541378 v 1.7014757 1.7014756 h -0.541378 -0.541379 z"
       id="path545" /><path
       style="fill:#000000;fill-opacity:1;stroke:#020202;stroke-width:0.0220971;stroke-linejoin:round;stroke-miterlimit:3.5;stroke-dashoffset:0.06;stroke-opacity:1;paint-order:stroke fill markers"
       d="m 69.547336,-4.2872 c -0.281701,-0.1004146 -0.451529,-0.4515931 -0.366042,-0.7569219 0.0405,-0.1446613 0.192557,-0.295607 0.341202,-0.3387138 0.413589,-0.1199398 0.801696,0.1368931 0.8055,0.5330446 0.0039,0.4048532 -0.402192,0.6974987 -0.78066,0.5625911 z"
       id="path546" /></g></svg>
